<?xml version="1.0" standalone="no"?>
<!DOCTYPE svg PUBLIC "-//W3C//DTD SVG 1.1//EN" "http://www.w3.org/Graphics/SVG/1.1/DTD/svg11.dtd" >
<svg xmlns="http://www.w3.org/2000/svg" xmlns:xlink="http://www.w3.org/1999/xlink" version="1.1">
<metadata></metadata>
<defs>
<font id="fette_mikadoregular" horiz-adv-x="643" >
<font-face units-per-em="2048" ascent="1536" descent="-512" />
<missing-glyph horiz-adv-x="352" />
<glyph horiz-adv-x="0" />
<glyph horiz-adv-x="682" />
<glyph unicode=" "  horiz-adv-x="352" />
<glyph unicode="&#x09;" horiz-adv-x="352" />
<glyph unicode="&#xa0;" horiz-adv-x="352" />
<glyph unicode="!" horiz-adv-x="468" d="M55 1204q66 35 116 91.5t75 127.5l28 7q53 -96 78 -204t25 -216q0 -86 -14.5 -170t-32 -167t-32.5 -166t-15 -167l-93 18q10 96 20.5 191.5t10.5 191.5q0 86 -7 144.5t-26.5 107.5t-51.5 97.5t-81 113.5zM121 115q0 -47 33.5 -81t81.5 -34q47 0 80.5 34t33.5 81 t-33.5 80.5t-80.5 33.5t-81 -33.5t-34 -80.5z" />
<glyph unicode="&#x22;" horiz-adv-x="587" d="M45 1477l186 73l13 -14q-4 -135 -23.5 -273.5t-36.5 -273.5l-55 -39l-55 355q-6 43 -12.5 86t-16.5 86zM336 1477l186 73l13 -14q-4 -135 -23.5 -273.5t-36.5 -273.5l-55 -39l-55 355q-6 43 -12.5 86t-16.5 86z" />
<glyph unicode="#" horiz-adv-x="1011" d="M29 358l26 164h221l60 244h-191l21 164h211l78 295h102l-74 -295h203l72 295h100l-72 -295h185l-27 -164h-201l-59 -244h178l-28 -164h-191l-88 -342h-100l86 342h-203l-86 -342h-102l83 342h-204zM379 522h205l63 244h-205z" />
<glyph unicode="$" horiz-adv-x="800" d="M45 434q2 109 68.5 174.5t173.5 65.5q43 0 84 -21v97v106q-47 33 -92.5 64.5t-80 67.5t-55 79t-18.5 98q2 115 72.5 172.5t169.5 71.5v41q0 25 -9.5 46.5t-17.5 41.5h162q-8 -25 -18.5 -48.5t-10.5 -49.5v-31q33 -4 70 -15.5t67.5 -28.5t50 -43t19.5 -58 q-2 -29 -29.5 -54.5t-56.5 -25.5q-39 0 -65.5 26.5t-55.5 51.5v-254q49 -29 101.5 -69t95.5 -99.5t68.5 -143.5t23.5 -202q-2 -59 -25.5 -114.5t-63.5 -102t-92.5 -80t-107.5 -52.5v-43q0 -31 7 -57.5t18 -48.5q-20 -2 -41 -2h-39q-20 0 -41 1t-41 1l31 59q2 37 2 74 q-63 0 -122 22.5t-105 63.5t-72.5 97.5t-24.5 121.5zM174 434q-2 -88 53.5 -137t141.5 -49v41v123q6 61 -23 96t-67.5 39t-71.5 -24t-33 -89zM299 1174q-2 -35 17.5 -58.5t52.5 -46.5v31l-2 188q-31 -14 -49.5 -47.5t-18.5 -66.5zM473 270q59 31 95 92.5t38 133.5 q2 96 -37 162.5t-96 117.5v-506z" />
<glyph unicode="%" horiz-adv-x="1394" d="M86 1024q0 170 73.5 261t196.5 91q119 0 194 -90t75 -262q0 -170 -74 -261t-195 -91t-195.5 91t-74.5 261zM246 1024q0 -227 108 -227q111 0 111 227t-109 227q-111 0 -110 -227zM299 0l666 1366h135l-666 -1366h-135zM770 342q0 170 75 261t193 91q121 0 196 -92 t75 -260q0 -170 -74 -262t-197 -92q-121 0 -194.5 92t-73.5 262zM930 336q0 -221 108 -221q111 0 111 227t-111 227q-109 0 -108 -233z" />
<glyph unicode="&#x26;" horiz-adv-x="1032" d="M96 301q0 213 238 324q-94 150 -94 252q0 94 70.5 164.5t185.5 70.5q117 0 181 -67.5t64 -170.5q0 -172 -196 -282l184 -268q63 98 96 286l136 -30q-39 -219 -146 -371q57 -74 115 -74q16 0 49 6v-141q-49 -14 -86 -14q-102 0 -188 108q-125 -115 -279 -114 q-160 0 -245 94t-85 227zM270 309q0 -84 49.5 -138t126.5 -54q104 0 181 84l-221 321q-135 -80 -136 -213zM397 881q0 -78 74 -191q127 74 127 187q0 49 -26.5 80.5t-71.5 31.5q-43 0 -73 -29.5t-30 -78.5z" />
<glyph unicode="'" horiz-adv-x="282" d="M45 1477l186 73l13 -14q-4 -135 -23.5 -273.5t-36.5 -273.5l-55 -39l-55 355q-6 43 -12.5 86t-16.5 86z" />
<glyph unicode="(" horiz-adv-x="581" d="M23 592q0 295 109.5 544.5t356.5 424.5l58 -60q-88 -88 -148.5 -195.5t-98.5 -226t-55.5 -242.5t-17.5 -245q0 -115 18.5 -241t56.5 -247.5t98.5 -231.5t146.5 -191l-58 -60q-248 176 -357 424t-109 547z" />
<glyph unicode=")" horiz-adv-x="581" d="M35 -324q88 86 148.5 196t97 229.5t53 245.5t16.5 245q0 113 -18.5 239.5t-57 249.5t-98 234.5t-141.5 191.5l51 54q248 -174 360.5 -423t112.5 -546q0 -299 -112.5 -547t-360.5 -424z" />
<glyph unicode="*" horiz-adv-x="722" d="M35 1141l94 -8q35 14 66.5 31.5t62.5 35.5q-35 20 -58.5 33.5t-45 22t-48 11.5t-69.5 3q27 47 54.5 93t53.5 93q25 -35 38.5 -55.5t28.5 -35.5t36.5 -29.5t60.5 -35.5q-4 53 -4 76t-3 38.5t-12 34.5t-32 67q16 0 31.5 1t32.5 1q39 0 75.5 -1t75.5 -1q-14 -31 -32.5 -61 t-18.5 -64v-95q45 29 65.5 42.5t34.5 27.5q12 12 23.5 29.5l34.5 52.5q29 -45 54 -92t54 -94q-43 -6 -64.5 -6.5t-37 -3.5t-37 -13t-64.5 -37q41 -23 96.5 -45t102.5 -18q-29 -47 -54.5 -94.5t-54.5 -94.5l-38 86q-29 18 -57.5 37t-57.5 35q0 -25 2 -53.5t7 -58t13.5 -57.5 t22.5 -48q-29 -2 -54.5 -2h-54.5h-54t-54 2l53 76l6 133q-41 -25 -92 -64t-72 -82q-29 47 -56.5 93.5t-53.5 93.5z" />
<glyph unicode="+" horiz-adv-x="907" d="M59 655q0 27 1 52.5t3 52.5q86 -47 148.5 -57.5t136.5 -8.5q2 74 -8 135.5t-57 147.5q27 2 52 3t52 1q53 0 106.5 -2t106.5 -2q-12 -23 -29.5 -44.5t-23.5 -47.5q-10 -41 -14.5 -89t-4.5 -102q53 0 107.5 2t107.5 19q16 4 38 23.5t40 19.5l-4 -121l4 -178q-35 12 -52 20 t-31.5 13.5t-33 8.5t-57.5 3h-54.5t-57.5 2q2 -31 3 -58.5t1 -54.5q0 -39 3 -57.5t8 -32.5t13 -31.5t21 -52.5l-178 4l-121 -4q0 18 19.5 40t23.5 38q14 53 17 107.5t1 109.5q-53 0 -101 -4t-89 -14q-27 -6 -48.5 -23.5t-44.5 -30.5q0 53 -2 106.5t-2 106.5z" />
<glyph unicode="," horiz-adv-x="434" d="M111 -266q23 92 36 172q12 68 17.5 132t-6.5 89q-4 8 21.5 13t59 6t63.5 -3t36 -12q25 -41 5.5 -97.5t-59.5 -114.5t-88 -108t-85 -77z" />
<glyph unicode="-" horiz-adv-x="673" d="M59 547q0 53 2 106.5t2 106.5q23 -12 44.5 -29.5t48.5 -23.5q51 -12 80.5 -15.5t55 -2.5t55.5 5t83 4q39 0 57.5 3.5t33 8.5t31.5 13t52 20l-4 -178l4 -121q-18 0 -39.5 19.5t-38.5 23.5q-37 10 -40 14.5t-1 5.5t-2 0t-41 -1q-59 0 -104 2t-88 -3t-87 -18.5t-100 -44.5 q-2 27 -3 52.5t-1 52.5z" />
<glyph unicode="." horiz-adv-x="446" d="M121 115q0 47 33.5 80.5t81.5 33.5q47 0 80.5 -33.5t33.5 -80.5t-33.5 -81t-80.5 -34t-81 34t-34 81z" />
<glyph unicode="/" horiz-adv-x="882" d="M-2 -340q31 129 89 287.5t134 330t164 346.5t179 338.5t182.5 306t173.5 249.5q37 47 54 69.5t42 -10.5l-6 -25q-25 -20 -72 -101t-106.5 -201t-128 -267t-136 -303t-130 -306.5t-109.5 -277.5t-76 -218t-29 -126q0 -8 -27.5 -26.5t-64.5 -38t-72.5 -36t-50.5 -20.5z" />
<glyph unicode="0" horiz-adv-x="649" d="M23 514v109.5t6 142.5t19 153.5t38 141t66 104.5t100 47q23 2 44 4.5t44 2.5q111 0 170 -67t85 -163t29 -201.5t3 -185.5v-130t-7.5 -150.5t-24.5 -152.5t-52 -134.5t-89.5 -95t-136.5 -35.5q-84 0 -134 27.5t-79.5 74.5t-43 108.5t-21.5 129.5q-10 68 -13 135t-3 135z M189 663.5q1 -73.5 1 -112.5v-107.5t10.5 -140.5t39 -121t84.5 -51q39 0 64.5 27.5t39.5 70.5t20.5 96.5t7.5 105.5t0 97t-1 72q0 39 1 105.5t-9.5 130t-39 110.5t-85.5 47t-85 -54t-38.5 -128t-9.5 -147.5z" />
<glyph unicode="1" horiz-adv-x="419" d="M20 1094q43 33 88.5 63.5t81.5 67.5q25 25 45.5 56.5t53.5 47.5q12 -242 15 -482.5t3 -481.5q0 -57 5 -100.5t15.5 -82.5t29 -79t42.5 -89q-27 -2 -53.5 -3t-52.5 -1q-61 0 -121.5 3t-120.5 7q16 41 35.5 75t28.5 79q10 63 14 127t4 129v70v100t-1 113.5t-4 111t-8 92 t-11 58.5q-14 35 -38 63.5t-51 55.5z" />
<glyph unicode="2" horiz-adv-x="616" d="M20 14q0 106 31 197.5t75 172.5t95 152.5t95 140t74 136.5t30 141q0 27 -11.5 53.5t-30 47t-43 33t-50.5 12.5q-41 0 -72 -22.5t-31 -67.5q0 -47 34 -60.5t73 -13.5l24 -2q-8 -45 -33.5 -72.5t-72.5 -27.5q-53 0 -89 23.5t-56.5 61t-28.5 84t-8 89.5q0 51 20.5 94 t55 75.5t79.5 51t94 18.5q86 0 145.5 -31.5t94.5 -86t50.5 -124t15.5 -143.5q0 -4 -8.5 -33.5t-18.5 -64.5t-20.5 -65.5t-12.5 -37.5q-25 -53 -78 -119.5t-106 -136t-95 -137t-44 -123.5q63 14 115.5 33t119.5 19q43 0 85 -10.5t79 -32.5q-10 -12 -24.5 -30l-29 -36 t-26.5 -35.5t-16 -32.5q-4 -12 -6 -24t-4.5 -23.5t-7.5 -22.5t-17 -20q-51 29 -105.5 50.5t-113.5 21.5q-35 0 -63.5 -7t-54.5 -18.5t-51.5 -23.5t-56.5 -23z" />
<glyph unicode="3" horiz-adv-x="622" d="M20 266q0 41 15.5 79t43 66.5t63.5 46t79 17.5q35 0 55.5 -25.5t34.5 -52.5q-18 -4 -38.5 -5t-39 -7t-29.5 -20.5t-11 -42.5q0 -35 29.5 -57.5t62.5 -22.5q39 0 67.5 18.5t47 46t26.5 62t8 67.5q0 92 -20.5 137t-57.5 65.5t-88 29t-112 28.5q2 16 2 31.5v32.5 q25 8 54.5 12t57 10t54 16.5t45.5 30.5q27 29 44 74t17 86q0 57 -32.5 102.5t-94.5 45.5q-35 0 -64.5 -18.5t-29.5 -57.5q0 -25 9 -38t24.5 -19.5t35 -7.5t37.5 -1v-26q-23 -23 -54.5 -40.5t-65.5 -17.5q-29 0 -55.5 17.5t-47 43t-32 56.5t-11.5 57q0 57 20.5 105.5 t56.5 82.5t85 52t106 18q61 0 110.5 -25.5t83.5 -66.5t52.5 -95t18.5 -109q0 -59 -11.5 -99.5t-31 -74t-48 -64.5t-63.5 -72q45 -37 78 -66.5t54.5 -63.5t31.5 -77t10 -106q0 -76 -20.5 -148.5t-61.5 -130t-103.5 -92.5t-146.5 -35q-117 0 -183.5 66t-66.5 182z" />
<glyph unicode="4" horiz-adv-x="675" d="M20 354q4 45 9.5 86t27.5 82q86 168 131 351.5t41 373.5q72 16 143.5 37t137.5 59q-6 -37 -26.5 -98t-50.5 -133t-63.5 -148.5t-66.5 -147.5t-62.5 -128t-47.5 -90q-16 -29 -34 -52.5t-18 -58.5q18 2 50 9.5t63 18.5t53.5 28.5t22.5 42.5t-11.5 49t-11.5 53v14.5t4 14.5 q25 61 60 119.5t57 124.5q16 47 30.5 93t41.5 89q4 -10 4 -22.5v-24.5q0 -37 -6 -74t-9 -76q-2 -72 -7 -145.5t-5 -145.5q0 -16 2 -32.5t13 -30.5q41 -4 81.5 -4t81.5 -10q-20 -53 -40.5 -106.5t-30.5 -109.5q-18 0 -37 4.5t-37 4.5q-35 0 -43 -20.5t-8 -51.5q0 -45 5 -78 t14 -62.5t22.5 -60t29.5 -69.5h-301q16 31 37 56.5t29 59.5q12 55 14 111.5t4 112.5l-20 20l-33 2q-61 0 -120.5 -13t-119.5 -24z" />
<glyph unicode="5" horiz-adv-x="616" d="M20 254q0 39 12.5 75t36 62.5t56.5 43t76 16.5q31 0 59.5 -12.5t40.5 -41.5q-16 -8 -33.5 -12t-34 -11t-26.5 -19.5t-10 -37.5q0 -31 28.5 -52t57.5 -21q51 0 84.5 21.5t54 57t30 79.5t9.5 87t-12.5 83t-36 71t-58.5 49.5t-82 18.5q-55 0 -96 -32t-86 -58 q18 178 23.5 354t1.5 354q47 -14 93 -24.5t93 -10.5q51 0 94 12.5t90 22.5q8 -55 22.5 -110.5t43.5 -104.5l-8 -14q-16 -2 -30.5 -3t-31.5 -1q-74 0 -130 21.5t-120 60.5q-10 -43 -15 -87t-5 -90q0 -29 2 -55t6 -55q31 10 62.5 16t64.5 6q74 0 123 -39.5t76.5 -98t39 -128 t11.5 -127.5q0 -78 -14.5 -166t-51 -163.5t-99 -126t-159.5 -50.5q-53 0 -98 17.5t-80 49.5t-54.5 76t-19.5 97z" />
<glyph unicode="6" horiz-adv-x="630" d="M23 659q0 88 10 188.5t46 186.5t103.5 142.5t182.5 56.5q41 0 79.5 -13.5t68.5 -39t48.5 -61.5t18.5 -81q0 -43 -11.5 -65.5t-42.5 -52.5q-23 -23 -43 -22t-47 -7q-4 16 -1 31.5t3 31.5q0 41 -29.5 55.5t-64.5 14.5q-51 0 -81 -29.5t-45 -72.5t-19 -91.5t-4 -87.5l2 -47 q27 23 44 43.5t34.5 36t41 23.5t64.5 8q74 0 119 -42t69.5 -103.5t32.5 -131t8 -122.5q0 -78 -6 -165t-35.5 -161t-88 -122t-163.5 -48q-98 0 -155.5 50t-86 126t-36.5 163t-8 161q0 61 -4 123.5t-4 123.5zM188 358q0 -35 7.5 -72.5t25 -69.5t46 -52.5t69.5 -20.5 q43 0 66.5 26t36 62.5t15.5 78.5t3 73q0 33 -4 74t-18.5 77.5t-41 61.5t-71.5 25q-39 0 -65 -31t-41 -73t-21.5 -86t-6.5 -73z" />
<glyph unicode="7" horiz-adv-x="602" d="M20 981q33 53 52.5 112.5t42.5 118.5q59 -16 118.5 -26t120.5 -10q59 0 114 18.5t114 24.5q-25 -100 -64 -207t-78 -214.5t-66.5 -214t-27.5 -206.5q0 -53 5 -87t15.5 -61.5t26 -56.5t35.5 -74q-74 -16 -135.5 -61t-102.5 -107h-28q-14 51 -20.5 103.5t-6.5 105.5 q0 102 19.5 190.5t48 167t64.5 151.5t68 143.5t57.5 141.5t33.5 146q-53 -12 -89 -29.5t-71 -33t-78 -26.5t-110 -11h-28.5t-29.5 2z" />
<glyph unicode="8" horiz-adv-x="634" d="M20 223q0 74 30 138.5t65 115.5t64.5 85t29.5 44q0 8 -21.5 38t-46 75t-46 104.5t-21.5 128.5q0 57 19.5 109.5t54 91.5t84 61.5t110.5 22.5q43 0 86 -15.5t77 -44t55.5 -67.5t21.5 -86q0 -37 -14.5 -70.5t-37.5 -62.5h-20q-10 29 -20.5 55.5t-25.5 48t-39 33.5t-60 12 q-68 0 -113 -46t-45 -113q0 -59 33.5 -111.5t91.5 -73.5q16 25 32.5 52.5t16.5 58.5q0 10 -9.5 19.5t-21.5 17.5t-24.5 16t-18.5 17q6 20 19.5 34.5t35.5 14.5q29 0 52.5 -13.5t41 -35t27 -47t9.5 -52.5q0 -29 -11.5 -51t-24 -40.5t-23.5 -37t-11 -37.5q0 -4 2 -10t4 -10 q43 -41 78 -76t59.5 -74t36.5 -86t12 -110q0 -66 -20.5 -126.5t-59 -106.5t-94 -73.5t-125.5 -27.5q-66 0 -120 25.5t-93 68.5t-60.5 99.5t-21.5 117.5zM199 305q0 -59 27.5 -107t97.5 -48q63 0 97 48t34 107q0 20 -12.5 56t-31 71t-42 60.5t-47.5 25.5q-23 0 -44.5 -25.5 t-39 -60.5t-28.5 -71t-11 -56z" />
<glyph unicode="9" horiz-adv-x="634" d="M23 741q0 70 8 157t35.5 163t82 128t146.5 52q100 0 158.5 -31.5t90 -87t43 -129t17.5 -157.5q4 -66 7 -131.5t3 -131.5q0 -57 -3 -127.5t-14 -143.5t-33.5 -141.5t-60.5 -121.5t-94.5 -86t-134.5 -33q-43 0 -82.5 13.5t-72.5 39t-52.5 61.5t-19.5 83q0 66 41 110.5 t109 44.5q4 -16 2 -30.5t-2 -28.5q0 -33 12 -53q18 -10 37.5 -18.5t42.5 -8.5q45 0 73.5 31t45 75t23.5 91t7 80v21t-2 22q-27 -23 -42 -42.5t-32.5 -32.5t-40 -21.5t-65.5 -8.5q-74 0 -120 40t-71.5 99.5t-33.5 128t-8 125.5zM186 791q0 -29 4.5 -72t17.5 -84t37.5 -69.5 t65.5 -28.5q39 0 65.5 26.5t43 63.5t24 77.5t7.5 71.5q0 33 -4.5 75t-18.5 79t-42 61.5t-73 24.5q-41 0 -65.5 -23.5t-38.5 -58.5t-18.5 -73.5t-4.5 -69.5z" />
<glyph unicode=":" horiz-adv-x="446" d="M121 115q0 47 33.5 80.5t81.5 33.5q47 0 80.5 -33.5t33.5 -80.5t-33.5 -81t-80.5 -34t-81 34t-34 81zM121 557q0 47 33.5 81t81.5 34q47 0 80.5 -34t33.5 -81t-33.5 -81t-80.5 -34t-81 34t-34 81z" />
<glyph unicode=";" horiz-adv-x="434" d="M111 -266q23 92 36 172q12 68 17.5 132t-6.5 89q-4 8 21.5 13t59 6t63.5 -3t36 -12q25 -41 5.5 -97.5t-59.5 -114.5t-88 -108t-85 -77zM121 557q0 47 33.5 81t81.5 34q47 0 80.5 -34t33.5 -81t-33.5 -81t-80.5 -34t-81 34t-34 81z" />
<glyph unicode="&#x3c;" horiz-adv-x="1003" d="M4 373v116l946 371v-119l-559 -309v-4l559 -309v-119z" />
<glyph unicode="=" horiz-adv-x="907" d="M59 287q0 53 2 86t2 86q51 -29 93.5 -42.5t84.5 -19.5t89 -6t108 2q106 2 169 7.5t99.5 11.5t60.5 13t54 17q-4 -74 -4 -129t4 -129q-23 2 -40 19.5t-38 23.5q-43 14 -92 17.5t-94 3.5h-272q-59 0 -114.5 -18.5t-107.5 -47.5q-2 27 -3 52.5t-1 52.5zM59 588q0 53 2 86 t2 86q51 -29 93.5 -42t84.5 -19.5t89 -6.5t108 2q106 2 169 7.5t99.5 11.5t60.5 13t54 17q-4 -74 -4 -129t4 -129q-23 2 -40 19.5t-38 23.5q-43 14 -92 17.5t-94 3.5h-272q-59 0 -114.5 -18.5t-107.5 -47.5q-2 27 -3 52.5t-1 52.5z" />
<glyph unicode="&#x3e;" horiz-adv-x="1003" d="M53 0v119l557 309v4l-557 309v119l946 -371v-116z" />
<glyph unicode="?" horiz-adv-x="616" d="M25 1092q0 51 20.5 94t55 75.5t79.5 51t94 18.5q86 0 145.5 -31.5t94.5 -86t50.5 -124t15.5 -143.5q0 -70 -20.5 -124t-51.5 -99t-69 -87t-72.5 -86t-62.5 -96.5t-38 -119.5l-65 16q18 98 55 175t73 144.5t63.5 135t27.5 149.5q0 27 -11.5 53.5t-30 47t-43 33t-50.5 12.5 q-41 0 -72 -22.5t-31 -67.5q0 -47 34 -60.5t73 -13.5l24 -2q-8 -45 -33.5 -72.5t-72.5 -27.5q-53 0 -89 23.5t-56.5 61t-28.5 84t-8 89.5zM121 115q0 -47 33.5 -81t81.5 -34q47 0 80.5 34t33.5 81t-33.5 80.5t-80.5 33.5t-81 -33.5t-34 -80.5z" />
<glyph unicode="@" horiz-adv-x="1419" d="M45 256q0 158 62.5 285t167 217t241.5 139t287 49q106 0 210.5 -29.5t186.5 -89t132 -148.5t50 -208q0 -104 -39.5 -190t-107.5 -148.5t-158 -96.5t-190 -34q-20 0 -40 2t-35 9t-24.5 22.5t-9.5 42.5q0 37 8.5 73.5t14.5 73.5l-6 2q-23 -33 -62 -71.5t-84 -72.5 t-92 -57.5t-90 -23.5q-29 0 -48.5 15.5t-30.5 38t-15 50t-4 50.5q0 102 41 193t109.5 158.5t160.5 106.5t194 39q47 0 90.5 -11t90.5 -13q-10 -33 -28.5 -100.5t-35 -142.5t-29 -141.5t-12.5 -97.5q0 -18 6.5 -34.5t28.5 -16.5q74 0 128 35t89 89t52.5 121t17.5 130 q0 100 -39 174t-104.5 123t-149.5 72.5t-176 23.5q-129 0 -239.5 -45t-190.5 -125t-125 -190.5t-45 -239.5q0 -119 40 -211t110.5 -154.5t166.5 -95t211 -32.5q72 0 151 14t144 47l27 -59q-86 -49 -181.5 -73t-193.5 -24q-133 0 -249 38t-201 112t-134 181.5t-49 248.5z M563 227q0 -10 1 -24.5t5 -28.5t11.5 -23.5t21.5 -9.5q23 0 54.5 24.5t62.5 57.5t56.5 67t35.5 52q23 47 37 100.5t24 102.5q-23 10 -47 17t-51 7q-55 0 -95 -36.5t-65.5 -89t-38 -112t-12.5 -104.5z" />
<glyph unicode="A" horiz-adv-x="1026" d="M20 0q18 35 43 72t41 73q12 31 27.5 89.5t29 122t23 123t9.5 91.5q-31 0 -62 -8t-61 -12q-2 8 -2 22q0 37 22.5 48.5t51 17.5t53 17.5t30.5 45.5q8 57 21.5 114.5t26 116t20.5 116t8 116.5v16.5t-4 16.5q-55 12 -102 21q-41 8 -78 16t-49 12q23 35 53.5 64.5t52.5 66.5 q14 23 26.5 47.5t30.5 42.5q14 0 46 -10t74 -22.5t92.5 -22.5t101.5 -10q57 0 96 6t73 16.5t68.5 26t83.5 31.5l27 -21q-70 -53 -122 -87t-102.5 -59.5t-108.5 -47t-140 -47.5l-4 -17q-6 -23 -14.5 -82t-16.5 -126.5t-14 -127t-6 -84.5q0 -37 8 -67q45 10 90 22.5t84 40.5 v95.5t1 120t4 116.5t11 86q2 8 28.5 25.5t60.5 35t65 32t43 18.5q-25 -117 -39 -224.5t-19 -228.5v-18q31 8 60 24.5t56.5 33.5t56 33.5t59.5 24.5q0 -8 -9.5 -52t-19.5 -96t-20.5 -98t-12.5 -61q-20 10 -50.5 27.5t-53.5 17.5q-12 0 -24.5 -1t-24.5 -1q25 -135 98.5 -251.5 t188.5 -194.5q-23 -27 -50.5 -49.5t-50.5 -49.5q-31 -35 -56.5 -75.5t-57.5 -75.5q-41 43 -75 100.5t-60.5 121t-45 129t-26.5 122.5q-8 51 -12.5 99t-26.5 96q-53 -4 -102.5 -20.5t-98.5 -35.5q-8 -78 -14 -161t-6 -160q0 -43 7 -79t19 -69t27.5 -65.5t32.5 -71.5 q-65 3 -130 3q-32 0 -64 -1q-96 -2 -196 -2z" />
<glyph unicode="B" horiz-adv-x="937" d="M20 6q37 70 56.5 148.5t28 159.5t9.5 162t1 159q0 100 13 198.5t13 196.5q0 72 -10 146.5t-27 146.5q-8 33 -21 62.5t-17 62.5h362q78 0 159 -12.5t146.5 -46t106.5 -94t41 -158.5q0 -61 -17.5 -101.5t-47.5 -69t-68.5 -53t-79.5 -57.5q25 -18 53.5 -30.5t54.5 -30.5 q82 -59 112 -151.5t30 -190.5q0 -109 -37 -213.5t-129 -169.5q-49 -37 -143.5 -51.5t-200.5 -17.5q-79 -2 -156 -2h-52h-28q-84 0 -141 -5zM295 250q29 -2 57.5 -3t57.5 -1q66 0 127 8t109 33.5t77 75t29 131.5q0 47 -9.5 91t-32 78.5t-58.5 55t-89 20.5q-43 0 -75.5 -25.5 t-32.5 -70.5q0 -27 20.5 -48.5t48.5 -21.5q16 0 33.5 4.5t34.5 8.5l14 -15q-23 -33 -56.5 -56t-74.5 -23q-29 0 -53.5 14t-42 37.5t-26.5 51.5t-9 54q0 68 26.5 108t65.5 64.5t85 42t85 40t65.5 56t26.5 95.5q0 76 -41 109.5t-99 45.5q-53 11 -113 10h-11h-18q-54 0 -94 5 q-2 -233 -14.5 -466t-12.5 -466v-43z" />
<glyph unicode="C" horiz-adv-x="837" d="M23 668q0 72 12 171t37.5 200.5t64.5 190.5t92 142q47 45 112 66.5t128 21.5q70 0 131.5 -24.5t107.5 -68.5t73.5 -103.5t27.5 -128.5q0 -61 -17.5 -122t-52 -109t-87 -78.5t-120.5 -30.5q-39 0 -74.5 14t-62 38.5t-43 58.5t-16.5 75q0 80 50 114.5t146 51.5 q-20 -16 -29 -49t-9 -56q0 -33 25.5 -51t55.5 -18q51 0 78 42t27 87q0 84 -59.5 129t-137.5 45q-102 0 -161.5 -60.5t-88 -148.5t-36 -186.5t-7.5 -173.5q0 -70 13.5 -149t46.5 -145.5t89 -110.5t144 -44q59 0 108.5 34t49.5 99q0 27 -9 44.5t-24.5 31.5t-33 26.5 t-31.5 28.5q33 12 67 13q49 0 88 -19.5t64.5 -52.5t40 -76t14.5 -88q0 -74 -34.5 -143.5t-94.5 -114.5q-14 -10 -42 -22.5t-60.5 -22.5t-62 -17.5t-46.5 -7.5q-90 0 -159.5 32t-120 85t-84 123t-54 147.5t-28.5 157.5t-8 152z" />
<glyph unicode="D" horiz-adv-x="952" d="M20 -6q25 41 59 82t50 84q14 37 25.5 98t18.5 134t11 153t6.5 154.5t2.5 139v107.5q0 39 -12.5 81t-20.5 81q68 8 124 11t128 16v-27q0 -29 -10.5 -65.5t-14.5 -65.5q-10 -70 -15 -139.5t-5 -141.5v-91t7 -71.5t23.5 -66.5t48.5 -78q-55 -31 -112.5 -59.5t-97.5 -79.5 q29 -14 59.5 -17.5t60.5 -3.5q94 0 158 16.5t106 54.5t66.5 99.5t40.5 151.5q10 55 17.5 111.5t7.5 113.5q0 63 -7.5 139t-34 141.5t-75.5 110.5t-133 45q-74 0 -145.5 -18t-147.5 -18q-45 0 -88 10t-84 26q27 61 56.5 115.5t51.5 120.5q35 -4 70 -12.5t70 -8.5 q49 0 99 14.5t101 14.5q129 0 214 -50t136.5 -133t73 -187.5t21.5 -213.5q0 -90 -1 -173t-10.5 -162.5t-31 -159.5t-62.5 -162q-14 -29 -25.5 -50.5t-24.5 -40t-31.5 -35.5t-45.5 -34q-59 -39 -130.5 -50t-141.5 -11h-406z" />
<glyph unicode="E" horiz-adv-x="886" d="M14 -37q8 43 34 79t38 77q31 104 43 213q13 110 17 222q3 72 2 143v79q-2 110 -3 219q0 78 -6 132.5t-19.5 102.5t-31.5 98t-43 120q104 -16 217 -42t217 -26q39 0 78 9.5t74 21.5t61.5 21.5t42.5 9.5q18 -66 40 -129.5t52 -122.5q-80 -29 -161 -29q-68 0 -124.5 18.5 t-99.5 40t-71.5 40t-40.5 18.5q-4 0 -8.5 -2t-8.5 -2q16 -57 23.5 -119.5t9.5 -126.5q1 -32 1 -64q0 -30 -1 -62q-2 -64 -4 -122q49 66 100.5 104t110.5 38q12 0 36.5 -8.5t48.5 -20.5t41 -27.5t17 -29.5q0 -16 -10 -34t-20 -30q-29 -39 -45.5 -79t-38.5 -81q-8 20 -16.5 41 t-19.5 38.5t-28.5 27.5t-44.5 10q-33 0 -62.5 -19.5t-45.5 -47.5q-12 -27 -21.5 -98.5t-13.5 -153.5t-6 -159t-2 -112q57 20 102 51t93 57.5t107.5 46t145.5 19.5q53 0 96 -14q-10 -31 -24.5 -59.5t-24.5 -59.5q-16 -45 -24.5 -96t-18.5 -98q-55 31 -109.5 43t-107.5 12 q-66 0 -134.5 -9t-138 -21.5t-138 -26t-132.5 -21.5z" />
<glyph unicode="F" horiz-adv-x="851" d="M20 1448l15 20q61 -8 125.5 -20t128 -24.5t128 -21.5t126.5 -9q61 0 102 21.5t94 47.5q8 -70 35 -133t57 -125q-94 -45 -188 -45q-53 0 -91 11.5t-72 30t-66.5 40t-75.5 41.5q-2 -10 -3 -18.5t-1 -18.5q0 -37 7 -72.5t9 -72.5q1 -17 1 -35q0 -26 -2 -52q-3 -44 -3 -87 q0 -35 2 -70l4 -70q25 23 45.5 45.5t44 40t52 27.5t65.5 10q53 0 100.5 -30.5t73.5 -77.5q-37 -47 -77 -107.5t-56 -120.5q-23 55 -43 88t-68 33q-53 0 -81.5 -36.5t-41 -87t-14.5 -105.5t-2 -92q0 -61 11.5 -133t39.5 -129q14 -29 29.5 -54.5t26.5 -56.5q-68 -3 -135 -3 q-32 0 -66 1q-100 2 -203 2q16 41 34.5 75t29.5 79q20 88 28.5 181t10.5 188q1 63 1 126v63q-1 94 -1 185q0 63 -5.5 138t-19.5 151t-41 144.5t-70 117.5z" />
<glyph unicode="G" horiz-adv-x="882" d="M23 662q0 74 6 160.5t23.5 174.5t48 169t80.5 143.5t123 100.5t171 38q49 0 92 -12.5t84 -27.5t83 -30.5t89 -19.5q-53 -76 -81.5 -155t-69.5 -159q-25 31 -45.5 61t-45 53.5t-55 36.5t-75.5 13q-66 0 -110 -30.5t-72.5 -79.5t-45 -112.5t-23.5 -128t-8.5 -126 t-1.5 -106.5q0 -66 9.5 -134.5t36 -125t75.5 -92t131 -35.5q49 0 89 19t68 53t42 78t14 91q0 33 -9 66t-28.5 59.5t-48 44t-65.5 17.5q-45 0 -69.5 -30t-24.5 -73v-13t2 -13q20 23 41.5 24.5t37 -9.5t18.5 -32.5t-11 -46.5q-33 -27 -72 -27q-33 0 -56.5 16.5t-40 42 t-24.5 55.5t-8 58q0 53 17.5 99.5t50 80t77.5 53t99 19.5q37 0 80 -14t86 -35.5t83.5 -45t71.5 -44.5q-31 -49 -45 -102.5t-19 -108.5q-4 -39 -4 -79q0 -16 1 -33q2 -56 2 -111q0 -63 16 -123.5t21 -120.5q-16 -4 -35 8.5t-36.5 27.5t-33.5 29.5t-27 14.5q-6 0 -25.5 -24.5 t-53 -55t-84 -55.5t-115.5 -25q-137 0 -217 69t-121 172t-52 224t-11 224z" />
<glyph unicode="H" horiz-adv-x="997" d="M20 0q35 76 53.5 152.5t28 156.5t10.5 160t1 162l-2 432q0 59 -8.5 104t-19.5 85t-24.5 81t-21.5 94h135q58 1 120 3h22q50 0 98 -9q-18 -45 -43 -84t-29 -90q-10 -109 -21.5 -215t-15.5 -217q23 16 42.5 34.5t43 35t53 27t70.5 10.5q45 0 89 -33t77 -62l-2 23q4 47 6 93 t2 93q0 55 -7 104.5t-19.5 95.5t-27 92t-28.5 99q61 7 126 7h24q78 -2 153 -2q18 0 38 1t38 -3q-41 -78 -64.5 -171.5t-35 -192.5t-13.5 -197.5t-2 -184.5q0 -123 9.5 -264t37.5 -260q10 -41 33 -79t29 -81l-297 -2h-46.5t-45.5 4q59 125 74.5 274.5t15.5 288.5v221 q-27 -35 -65 -88t-58 -92q-10 18 -21.5 40t-25.5 41.5t-33.5 31.5t-44.5 12q-45 0 -69.5 -33.5t-37 -80t-15.5 -95.5t-3 -80q0 -78 9.5 -163.5t29.5 -159.5q8 -29 28.5 -52.5t20.5 -54.5q0 -6 -4 -18q-52 4 -104 4q-27 0 -53 -1q-78 -3 -158 -3q-27 0 -52 6z" />
<glyph unicode="I" horiz-adv-x="430" d="M20 6q16 45 37 86t29 88q33 199 34 402.5t1 404.5q0 74 -7.5 128t-18.5 103.5t-25.5 100.5t-28.5 117l217 -9l150 9q0 -35 -24 -74t-30 -74q-25 -137 -31 -278.5t-6 -280.5v-198t8.5 -168.5t28 -166.5t56.5 -190q-66 -6 -127 -6q-66 0 -131.5 3t-131.5 3z" />
<glyph unicode="J" horiz-adv-x="899" d="M20 229q80 25 120 65t71 80t66.5 73.5t105.5 46.5q-37 -41 -53.5 -76t-16.5 -90q0 -23 9.5 -47.5t24.5 -45t38 -33t47 -12.5q55 0 85 43t43 101.5t16.5 120t3.5 98.5q0 72 -5.5 141.5t-5.5 141.5q0 217 25 436q-37 -25 -68.5 -47.5t-65.5 -41t-71 -28.5t-84 -10 q-14 0 -38.5 4t-49 12t-46 18.5t-32.5 20.5q33 63 66 124.5t67 123.5q31 -18 50.5 -29.5t39 -16.5t42 -7t57.5 -2q43 0 86 8t86 18.5t86 18.5t88 8q18 0 35.5 -1t36.5 -3q-12 -31 -27.5 -55.5t-29 -48t-24 -50t-14.5 -63.5q-16 -160 -23 -318.5t-7 -318.5 q0 -100 18.5 -184.5t93.5 -159.5q-37 -59 -90 -109.5t-115.5 -87.5t-133 -57.5t-140.5 -20.5q-131 0 -225 70t-142 190z" />
<glyph unicode="K" horiz-adv-x="940" d="M20 -6q12 39 31 74.5t29 76.5q10 39 18 105.5t14.5 146.5t9.5 168t5 172t3 156t1 121q0 70 -4 145.5t-27 143.5q-10 31 -26.5 59.5t-26.5 58.5q66 4 131.5 6.5t130.5 2.5h54.5t52.5 -3q-16 -51 -38 -95t-28 -99q-6 -47 -12 -101.5t-12.5 -110.5t-10.5 -111.5t-4 -100.5 q0 -12 6.5 -25.5t10.5 -23.5q61 18 111 57t86 91.5t55.5 113.5t19.5 123q0 39 -5 62.5t-14.5 43t-21.5 40t-27 52.5q76 16 142.5 34t138.5 44q23 8 45 15.5t45 11.5q-6 -37 -23.5 -71t-27.5 -68q-29 -86 -46.5 -149.5t-40 -120t-58 -112t-101.5 -126.5q-8 -4 -15 -10.5 t-7 -16.5q0 -8 2 -14q86 -72 125 -143.5t57 -147.5t29.5 -157t42.5 -173q14 -39 36.5 -74.5t43.5 -70.5l-310 -2q-18 0 -36.5 2t-34.5 12q45 68 59 152t14 161q0 33 -10 92.5t-30.5 117t-53.5 99.5t-76 42q-55 0 -83.5 -16.5t-40 -44t-11.5 -65.5v-79q0 -74 5 -146.5 t20 -144.5q10 -47 33.5 -87t40.5 -87q-78 -3 -155 -3h-37.5h-37.5q-77 0 -156 -3z" />
<glyph unicode="L" horiz-adv-x="851" d="M20 -29q37 57 60.5 106.5t34.5 117.5q31 199 34 403.5t3 402.5q0 37 -2.5 79t-7.5 85t-15 84t-27 74q-12 25 -24.5 47t-20.5 51q20 2 40 2h42h264h24.5t25.5 -2q-16 -37 -36 -75.5t-30 -77.5q-18 -78 -28.5 -174.5t-14.5 -195.5t-4 -197.5v-180.5q0 -80 -8 -159.5 t-19 -157.5q47 16 91 36.5t92 32.5q33 8 68.5 15.5t66 23t50 42t19.5 69.5v16q-8 41 -61 64l6 20q86 -8 136 -63.5t50 -141.5q0 -41 -13 -87t-33.5 -92t-45 -89t-47.5 -78q-37 12 -60.5 24.5t-45 22t-48 14.5t-69.5 5q-51 0 -99.5 -11.5t-96.5 -24.5t-95 -24.5t-96 -11.5 q-33 0 -60 6z" />
<glyph unicode="M" horiz-adv-x="1396" d="M20 104q33 47 67 94.5t56 100.5q16 41 38 81t34 81q49 162 84 337t35 345q0 47 -3 83t-11.5 67.5t-23.5 63t-42 70.5q63 6 133 7q63 0 127 -3.5t129 -3.5q-16 -41 -33.5 -80.5t-17.5 -84.5q0 -18 7 -61.5t19.5 -97.5t28 -113.5t30.5 -113t29.5 -94.5t22.5 -57 q14 27 41 100.5t51.5 158.5t43 161t18.5 106q0 31 -7.5 52.5t-17.5 41t-20.5 40t-18.5 45.5q55 2 112 2q50 0 100 -2q108 -4 212 -3q-25 -37 -41 -60.5t-25.5 -46t-13.5 -51t-4 -75.5q0 -53 5 -141t15.5 -193.5t24 -219.5t29.5 -216t35.5 -184t40.5 -127q14 -29 32.5 -56.5 t34.5 -56.5q-31 -8 -71 -8q-78 0 -159 1t-159 7q16 25 29.5 43t24 36.5t16.5 40t6 52.5l-84 856q-6 -18 -22.5 -64t-36 -105.5t-40 -126t-38 -125t-28.5 -101.5t-11 -55q0 -61 30.5 -115.5t59.5 -106.5q-53 -53 -101.5 -114.5t-70.5 -134.5h-27q-12 37 -31.5 67.5t-41 60 t-43 59.5t-39.5 62q8 20 22 45t26.5 50.5t21.5 50t9 49.5q0 10 -10 55t-24.5 107.5t-34 132t-35.5 132t-30.5 109t-20.5 60.5q-6 -23 -14.5 -102.5t-17.5 -188t-23.5 -230.5t-33 -229.5t-44 -187.5t-58.5 -100q-2 -2 -16 6t-32.5 19t-35 21.5t-22.5 14.5q-37 16 -74 29.5 t-72 31.5z" />
<glyph unicode="N" horiz-adv-x="983" d="M20 1219q43 55 93.5 104t93.5 104q63 -18 110.5 -57t81 -91t57 -111.5t42.5 -116.5q41 -125 87 -246t99 -242h21q1 44 1 88v43q-1 66 -1 131q0 55 4 110.5t4 108.5q0 66 -6.5 110t-16.5 81t-26.5 77t-34.5 95q43 2 85 3t85 1h82t82 -4q-16 -41 -35 -79t-29 -81 q-23 -102 -33 -209.5t-14 -217.5q-3 -88 -4 -174q0 -22 1 -44q1 -108 1 -213q0 -59 14.5 -102t31.5 -74t31.5 -49.5t14.5 -24.5q-45 -33 -80 -76t-69 -83q-18 -6 -37 -7q-29 0 -47 21q-6 8 -34 74.5t-68 164t-85 212t-85 217t-69.5 181.5t-37.5 103h-27q-9 -106 -9 -211v-21 q1 -116 1 -233q0 -92 8 -187t33 -183q10 -35 31.5 -65t42.5 -60q-31 -4 -63 -6.5t-62 -2.5q-61 0 -122 4.5t-122 4.5q12 27 29.5 49t27.5 49q23 59 33 153.5t12 196.5q1 51 1 100.5t-1 97.5q-2 97 -2 165q0 47 4.5 96t4.5 96q0 49 -5.5 82t-18.5 57.5t-39 45t-67 45.5z" />
<glyph unicode="O" horiz-adv-x="872" d="M25 610q0 82 18 168t59 157t107.5 118t163.5 53q-63 -53 -100 -99t-55.5 -96.5t-23 -111t-4.5 -140.5q0 -63 10.5 -134.5t40 -132t80 -100.5t130.5 -40q82 0 130 49t72.5 121t31.5 152.5t7 142.5q0 86 -12 170t-48 150.5t-100.5 106.5t-166.5 40q-43 0 -80 -13.5t-73 -32 t-72 -36t-74 -23.5q39 82 52 148.5t37.5 111.5t79 70t171.5 25q143 0 232 -58.5t136 -153t63.5 -210t16.5 -232.5q0 -70 -4 -157.5t-18.5 -178t-41 -175.5t-73.5 -151.5t-116 -107.5t-165 -41q-133 0 -213 61.5t-125 157t-59 208t-14 214.5z" />
<glyph unicode="P" horiz-adv-x="913" d="M29 8q23 41 39 79t26 81q33 156 37 311.5t8 315.5q2 72 7.5 140.5t5.5 139.5q0 57 -7.5 104.5t-20.5 92.5t-30.5 89t-38.5 95q43 -6 80 -22.5t82 -16.5q37 0 73 7.5t71.5 16.5t72.5 16t74 7q98 0 171 -35.5t122 -97t73.5 -142.5t24.5 -171q0 -80 -20.5 -158t-62.5 -139.5 t-107.5 -99t-155.5 -37.5q-88 0 -136 60.5t-48 141.5q0 29 8 61t25.5 59.5t44 46t65.5 18.5h5q65 1 99 -47q19 -27 20 -67q0 -32 -13 -71q-18 35 -39 47.5t-56 12.5q-29 0 -49 -23.5t-20 -52.5q0 -43 29.5 -66.5t70.5 -23.5q53 0 87 28.5t52.5 69.5t25.5 89t7 89 q0 51 -11 98.5t-36 82t-65.5 56t-98.5 21.5q-78 0 -119 -44t-49 -117q-12 -127 -19 -250t-7 -250v-139.5t7 -142t26.5 -138t58.5 -125.5q-20 -2 -41 -2h-41q-78 0 -154 3q-33 1 -65 1q-44 0 -88 -2z" />
<glyph unicode="Q" horiz-adv-x="876" d="M20 580q0 51 6.5 117.5t23 132t43 122t69.5 90.5q31 25 72.5 52.5t80.5 27.5q-43 -53 -70.5 -101t-43 -98.5t-21.5 -107.5t-6 -127q0 -55 13.5 -134t42 -151.5t76.5 -124t118 -51.5q23 0 51 15q-14 41 -40.5 69.5t-53.5 55.5q53 0 93 -34t71 -75q47 31 75.5 80t45 107.5 t21.5 120t5 114.5q0 88 -10 182t-43 172t-96.5 128t-169.5 50q-59 0 -98 -11t-72 -28.5t-66 -38t-80 -40.5q10 25 20.5 53.5t23 66t25.5 88t32 117.5q47 29 114.5 42.5t120.5 13.5q131 0 219 -57.5t142.5 -149.5t77 -208t22.5 -233q0 -152 -10 -308.5t-62 -297.5 q-20 -55 -57 -106.5t-70 -98.5q23 -31 52.5 -54t62.5 -42q-35 -41 -70.5 -75.5t-64.5 -77.5q-23 -39 -49 -66q-14 61 -17.5 124.5t-27.5 123.5q-29 0 -55.5 -2t-55.5 -2q-119 0 -197.5 60.5t-126 154.5t-67 205.5t-19.5 214.5z" />
<glyph unicode="R" horiz-adv-x="905" d="M20 4q12 35 31 68.5t29 70.5q20 74 31.5 194t15.5 250t5 254t1 208q0 59 -8 108t-20.5 95t-28 92.5t-31.5 101.5q35 -14 68.5 -28.5t70.5 -14.5t73 7t72 14.5t70.5 14.5t69.5 7q45 0 97 -1t93 -13q74 -23 118 -69t67.5 -107.5t31 -130t7.5 -132.5q0 -23 -11.5 -52.5 t-28 -58t-36 -55t-33.5 -43.5q-25 -27 -71 -46t-78 -38q27 -47 59.5 -87t48.5 -93q29 -86 38 -171t34 -171q14 -49 36.5 -95t43.5 -93h-88.5t-103.5 1t-101 4t-84 9q25 39 41 68.5t24.5 60.5t11.5 65.5t3 82.5q0 45 -2 91t-11.5 89t-29 82t-53.5 73q-20 20 -39 29.5 t-37.5 16t-38 10.5t-43.5 14q-23 -49 -25 -102.5t-2 -106.5q0 -35 1 -81t4 -95t8.5 -95t15.5 -77q10 -35 30.5 -61.5t24.5 -63.5q-23 -4 -47.5 -4h-46.5q-71 0 -139 4q-34 2 -68.5 2t-69.5 -2zM317 899q0 -25 3.5 -50.5t7.5 -49.5q51 -6 106 -6q47 0 97.5 11t90.5 36.5 t65.5 65.5t25.5 98q0 39 -11.5 74.5t-33 64t-54 46t-75.5 17.5q-68 0 -111 -26.5t-67.5 -70.5t-34 -99.5t-9.5 -110.5z" />
<glyph unicode="S" horiz-adv-x="1003" d="M16 -4q41 53 78 107.5t66 115.5q27 61 48 120.5t54 106t83 75t134 28.5q39 0 75 -16.5t63.5 -43t44 -61.5t16.5 -74q0 -45 -25.5 -78.5t-62.5 -47.5q-24 -9 -49 -10q-14 0 -28 3q-40 8 -69 49q27 8 53.5 31t26.5 57q0 41 -25.5 62.5t-66.5 21.5q-55 0 -85 -42t-30 -91 t22.5 -88t58.5 -67.5t80 -44t89 -15.5q51 0 95.5 19.5t77 52.5t52 78t19.5 96q0 88 -46 144.5t-113.5 98.5t-148.5 77.5t-148.5 84t-113.5 117t-46 176.5q0 86 20.5 160t63.5 127t110.5 84t161.5 31q47 0 92 -11.5t90 -27t88 -31.5t88 -29q-20 -25 -42.5 -48t-41.5 -50 q-29 -41 -50 -87t-50 -87q-23 35 -48.5 68.5t-55 60.5t-66.5 43t-84 16q-55 0 -95 -39.5t-40 -95.5q0 -66 48 -109.5t118.5 -82.5t154.5 -80t155 -98.5t119 -140.5t48 -205q0 -113 -53.5 -217.5t-149.5 -163.5q-74 -47 -148 -53q-28 -2 -56 -3q-46 1 -92 7q-74 10 -150 26 t-154 16q-41 0 -80 -11t-80 -11z" />
<glyph unicode="T" horiz-adv-x="905" d="M25 1430q186 0 369.5 -3t369.5 -2l125 -2q-4 -41 -22.5 -77.5t-35.5 -75.5q-23 -53 -33 -110.5t-26 -112.5q-14 27 -30.5 57.5t-37 57t-48 43t-64.5 16.5q-29 0 -39 -21.5t-11 -51.5t3 -60.5t4 -47.5q0 -125 -8.5 -249.5t-8.5 -251.5q0 -61 2.5 -131t10.5 -140.5 t24.5 -137.5t44.5 -122q-102 -4 -193 -7q-39 -1 -78 -1q-52 0 -105 2q33 74 52 143.5t28.5 139t11.5 142.5t2 153q0 86 1 181t11 181q6 47 11 92t5 92v36t-6 31t-19 21.5t-38 8.5q-35 0 -57.5 -17.5t-38 -44t-25.5 -57.5t-18 -57q-18 20 -28.5 47.5t-17 56.5t-12.5 57.5 t-14 53.5q-16 43 -38.5 82t-22.5 86z" />
<glyph unicode="U" horiz-adv-x="993" d="M25 1436q63 6 127 6q66 0 131 -3t131 -3q-12 -29 -28.5 -56.5t-29.5 -56.5q-14 -33 -23 -93.5t-15.5 -136t-10.5 -158.5t-5 -162t-2 -144.5t-1 -106.5q0 -53 9 -101t33 -85t64.5 -59.5t102.5 -22.5q35 0 66.5 11t56.5 36q20 20 34.5 70.5t23.5 116t14.5 140t7.5 144.5 t3 128t1 91q0 74 -5 117t-17.5 76t-35 68t-57.5 94q96 27 191.5 50t185.5 66q-4 -16 -7 -30.5t-14 -30.5q-41 -78 -59 -169t-23 -179q-6 -156 -10 -310.5t-10 -310.5q-4 -96 -20.5 -176t-56.5 -137.5t-109.5 -89t-180.5 -31.5q-104 0 -172.5 27.5t-111.5 74.5t-64.5 110.5 t-30 136.5t-8.5 149.5v152.5q0 104 7.5 206.5t7.5 207.5q0 61 -4.5 106t-14.5 86t-27.5 83t-43.5 98z" />
<glyph unicode="V" horiz-adv-x="958" d="M2 1427q113 -4 205 -5t184 -1q-4 -20 -13 -49t-17.5 -57.5t-14.5 -56t-6 -46.5q0 -29 7 -93t19.5 -149t27 -178.5t28.5 -176.5t27.5 -147.5t21.5 -90.5q20 29 45 76t49.5 104t49 120.5t43 123t29.5 111t11 85.5q0 82 -41 137.5t-131 96.5q16 10 56.5 44t83.5 71.5 t77.5 67.5t40.5 30q31 -8 57.5 -41t47 -74t32 -84t11.5 -71q0 -111 -40 -217.5t-94.5 -211t-107.5 -210t-80 -213.5q-8 -29 -15 -57.5t-7 -59.5q0 -57 23.5 -105.5t47.5 -97.5q-70 -6 -143 -6h-37q-92 2 -180 2q-16 0 -31.5 2t-31.5 8q23 43 41 91t18 98q0 78 -19.5 153.5 t-31.5 151.5q-16 96 -32.5 225t-43.5 259t-67 249t-99 192z" />
<glyph unicode="W" horiz-adv-x="1374" d="M20 1413q104 6 209 6q104 0 209 -6q-16 -33 -28.5 -56.5t-20.5 -47t-12 -50t-4 -65.5q0 -27 7 -82t18.5 -127t25.5 -148.5t29.5 -146t30 -122t26.5 -74.5q18 68 38.5 132t37 129.5t28 132t11.5 136.5q0 31 -10.5 55.5t-26 45t-33.5 40t-33 43.5q16 18 46 54t62 73 t59.5 68t39.5 37q37 -66 86 -120t96 -112q-20 -25 -39.5 -50t-35.5 -54q-2 -14 -3.5 -27.5t-1.5 -27.5q0 -43 18.5 -124t45.5 -170t52.5 -171t41.5 -127q20 63 44 135t43.5 142.5t31.5 136t12 114.5q0 78 -39 143.5t-100 108.5q14 12 49 46t75 68.5t74 61.5t44 25 q27 -8 50 -40t41.5 -71t29 -79t10.5 -64q0 -125 -39 -240t-85 -229.5t-85 -232t-39 -246.5q0 -39 7 -67t17.5 -52.5t24.5 -50t27 -58.5q-55 -4 -109.5 -7t-109.5 -3q-39 0 -76 2t-76 8q4 14 12 37t15.5 47.5t12.5 48t5 35.5q0 14 -8 54t-21.5 91.5t-30 108.5t-31.5 107.5 t-28.5 86t-21.5 46.5q-18 -29 -42 -96.5t-43.5 -144.5t-32.5 -147.5t-13 -105.5q0 -37 20.5 -86t36.5 -82q-98 -6 -197 -6q-96 0 -190 6q29 63 49.5 117.5t20.5 126.5q0 41 -11.5 122t-30 181t-41 212t-47 211t-47 177t-41.5 115q-18 39 -40.5 72.5t-45.5 70.5z" />
<glyph unicode="X" horiz-adv-x="1048" d="M20 8q39 61 73 128t64.5 134.5t62.5 135t67 133.5q29 53 66.5 105t58.5 108q4 8 4 16v14q0 47 -25.5 89t-44.5 83q-20 43 -49 88t-64.5 87t-77.5 76t-87 52q57 20 100 46t80 51.5t69.5 48t73.5 37.5q23 -131 78 -271.5t123 -255.5q55 86 86 161t31 153q0 59 -17 100 t-37 94q35 8 72 11.5t72 3.5q51 0 100 -3t100 -3q-23 -51 -51 -95.5t-49 -97.5q-39 -104 -90 -197.5t-113 -185.5q-12 -18 -26.5 -43t-14.5 -47q0 -6 16.5 -45t41 -96.5t54.5 -124t57.5 -126t48 -104.5t26.5 -57q27 -47 68 -106.5t71 -104.5q-123 6 -224 7t-202 1 q14 33 35 68t21 71q0 37 -18.5 101.5t-46.5 134.5t-58.5 130t-55.5 87q-61 -80 -100 -185.5t-39 -207.5q0 -53 17.5 -101.5t31.5 -97.5h-379z" />
<glyph unicode="Y" horiz-adv-x="1044" d="M20 1421q104 6 207 7.5t207 1.5q-18 -41 -31.5 -83t-13.5 -85q0 -37 21.5 -102.5t51.5 -137.5t60.5 -137.5t46.5 -102.5q72 168 94.5 329t26.5 319q31 -4 75 -19.5t92 -34t92 -38t75 -31.5q-61 -51 -128 -158t-122 -230.5t-91 -243.5t-36 -200q0 -90 5 -145.5 t16.5 -102.5t31 -97t48.5 -130q-96 0 -192 3q-31 1 -63 1q-64 0 -128 -4q16 55 37.5 103.5t27.5 107.5q6 72 11 144.5t5 144.5q0 33 -19 95t-49 140t-68 163t-74.5 162t-69.5 137t-53 91q-23 35 -48 65.5t-45 67.5z" />
<glyph unicode="Z" horiz-adv-x="921" d="M20 -18q90 160 168 329.5t146 339.5q25 61 49.5 122t52.5 120q27 53 57.5 108.5t51.5 110.5q10 23 19 52.5t9 54.5q-41 -12 -80.5 -30t-79.5 -33t-81 -26.5t-86 -11.5q-35 0 -71 9.5t-64 29.5q37 61 60 129.5t52 134.5q57 -25 120 -36t126 -11q53 0 105.5 7.5t105.5 16.5 t106.5 16t108.5 7q-27 -57 -56.5 -109t-52.5 -112q-33 -92 -75.5 -178t-81.5 -174q-41 -94 -82 -186.5t-82 -186.5q-31 -70 -61.5 -140.5t-51.5 -141.5q55 16 94 36.5t78 38t84 29.5t111 12q96 0 182 -37q-27 -43 -53.5 -86t-48.5 -90q-14 -31 -22.5 -62.5t-22.5 -62.5 q-39 16 -68 28.5t-55.5 20t-57 11.5t-75.5 4q-55 0 -110.5 -8.5t-111 -18.5t-110.5 -18t-113 -8h-33z" />
<glyph unicode="[" horiz-adv-x="389" d="M59 131q0 39 4.5 77t4.5 79v788q0 96 -2.5 190.5t-2.5 190.5q0 23 0.5 43t4.5 43q43 -4 85 -3t85 1q31 0 61.5 -2t60.5 -6v-8q0 -20 -16 -31.5t-33 -17.5q-23 -29 -32 -65t-9 -73v-1095q0 -66 20.5 -127.5t57.5 -114.5q-25 -10 -50.5 -13t-51.5 -3q-29 0 -59.5 3t-59.5 7 q-43 23 -55.5 57.5t-12.5 79.5z" />
<glyph unicode="\" horiz-adv-x="901" d="M6 1647h279q-4 -23 -10.5 -45.5t-6.5 -45.5q0 -8 21.5 -82.5t58.5 -192.5t83 -266.5t95 -303t97.5 -304t88.5 -270.5t65.5 -201.5t31.5 -95.5q29 -78 86 -133q-35 -2 -69.5 -2h-69.5q-37 0 -73 1t-73 1l31 76q-16 82 -45 163t-53 158q-43 139 -86 276.5t-88 276.5 l-187 586q-23 72 -44 145.5t-50 145.5q-14 35 -36.5 59.5t-45.5 53.5z" />
<glyph unicode="]" horiz-adv-x="389" d="M27 1532q72 12 145 8t147 2q4 -23 4.5 -43t0.5 -43q0 -96 -2.5 -190.5t-2.5 -190.5v-788q0 -35 4.5 -71t4.5 -71q0 -49 -10.5 -87t-57.5 -64q-29 -4 -59.5 -7t-59.5 -3q-27 0 -52.5 3t-49.5 13q37 53 57.5 114.5t20.5 127.5v1095q0 37 -9.5 73t-31.5 65q-23 8 -36 19 t-13 38z" />
<glyph unicode="^" horiz-adv-x="876" d="M27 684l358 854h111l354 -854h-115l-295 504h-4l-295 -504h-114z" />
<glyph unicode="_" horiz-adv-x="1568" d="M66 -414h1437v-98h-1437v98z" />
<glyph unicode="`" horiz-adv-x="565" d="M82 1198q0 4 17.5 25.5t40 44t42 39t19.5 12.5q4 -33 52 -83t107 -99q68 -58 156 -121q-53 -6 -123.5 4t-137.5 33.5t-116 59.5t-57 85z" />
<glyph unicode="a" d="M20 223q0 100 39 149.5t95.5 76t118 46t108.5 60.5q10 27 10 49q0 102 -104 103q-27 0 -53.5 -11.5t-26.5 -44.5q0 -16 6 -30.5t10 -30.5h-39q-59 0 -95 32.5t-36 96.5q0 53 23.5 89t60.5 57.5t82 30.5t90 9q92 0 141.5 -30.5t71 -82t24.5 -118t3 -135.5q0 -53 1 -129 t9 -154t26.5 -148.5t51.5 -111.5q-72 2 -125 3t-104 5q-6 23 -8.5 45.5t-6.5 44.5q-29 -25 -46 -44t-36.5 -33.5t-45 -21.5t-68.5 -7q-51 0 -85 20.5t-54.5 54t-29 75.5t-8.5 85zM205 258q0 -33 16.5 -53.5t50.5 -20.5q33 0 56.5 15.5t38 39t20.5 52t6 57.5q0 49 -8 88 q-31 -6 -63.5 -21.5t-58 -39t-42 -53t-16.5 -64.5z" />
<glyph unicode="b" horiz-adv-x="684" d="M20 1178q47 20 89.5 44.5t78.5 59.5q10 10 29 29.5t35 19.5l14 -2q2 -4 4 -39t4 -85t4.5 -109.5t4.5 -114.5t4 -98t4 -62q23 23 40 42.5t35.5 34.5t42 23.5t60.5 8.5q45 0 80 -26.5t57.5 -66.5t33.5 -85t11 -84q0 -53 5.5 -107.5t5.5 -107.5q0 -74 -7.5 -155t-36 -148.5 t-85 -110.5t-152.5 -43q-74 0 -124 23.5t-80 65.5t-42 99.5t-12 122.5v94.5t-1 137t-2 157.5t-4 155t-8.5 129t-11.5 79q-10 29 -34.5 60.5t-41.5 58.5zM281 430q0 -51 9 -100t31.5 -85t69.5 -36q51 0 76 39t33 93q6 43 6 88v23q-2 56 -2 91q0 25 -4 56.5t-16.5 60t-33 48 t-53.5 19.5q-6 0 -11 -1t-11 -1q-61 -31 -77.5 -90.5t-16.5 -120.5v-84z" />
<glyph unicode="c" horiz-adv-x="571" d="M23 444q0 68 7 151t33.5 156.5t80 123t145.5 49.5q53 0 102 -14.5t103 -18.5q-1 -23 -1 -46q0 -33 2 -67q3 -56 3 -114v-31q-41 37 -78 71.5t-96 34.5q-55 0 -85 -33.5t-45.5 -82t-18.5 -102.5t-3 -93q0 -31 7 -73t24.5 -76.5t46.5 -58.5q23 -19 55 -18q8 0 17 1 q6 -2 20 -2q39 0 69.5 28.5t30.5 69.5q0 16 -15 45t-24 45q33 -2 61 -18.5t47 -42t29.5 -57t10.5 -62.5q0 -51 -21.5 -91t-56.5 -67.5t-79 -43t-91 -15.5q-96 0 -151.5 43t-84 109.5t-36.5 146.5t-8 153z" />
<glyph unicode="d" horiz-adv-x="647" d="M20 449q0 53 5.5 133t26 153.5t63.5 126.5t116 53q51 0 89 -38.5t81 -92.5q0 33 2.5 77t2.5 77q0 66 -5.5 104.5t-15.5 63t-26.5 44t-39.5 48.5q35 14 73 26.5t67 35.5q27 20 50 39.5t56 29.5l2 -149q0 -178 -5 -352.5t-5 -350.5q0 -74 1 -131t7 -109.5t20.5 -106.5 t41.5 -124q-27 -2 -52.5 -3t-52.5 -1q-70 0 -94.5 3t-29.5 15q-5 14 -2 38q1 4 1 9q0 23 -12 58q-20 -20 -34.5 -42t-31 -40t-38 -29.5t-58.5 -11.5q-76 0 -116.5 50t-60 121t-23 146.5t-3.5 129.5zM182 414q0 -29 2 -66t12.5 -68.5t32 -54t58.5 -22.5q39 0 61.5 30.5 t33.5 73.5t13 87t2 71v63q0 25 -5 56.5t-18.5 59.5t-33.5 47.5t-51 19.5q-37 0 -58.5 -35t-33 -82t-13.5 -98.5t-2 -81.5z" />
<glyph unicode="e" horiz-adv-x="561" d="M20 453q0 72 7.5 152.5t34 148t81 112.5t150.5 45q66 0 113 -21.5t76.5 -60t44 -90t14.5 -110.5q0 -53 -11.5 -100.5t-38 -82t-67.5 -56t-98 -21.5q-45 0 -76 15t-70 34q-4 -12 -6 -25.5t-2 -25.5q0 -33 12.5 -65t34 -56.5t50 -40t63.5 -15.5q43 0 61.5 13.5t24.5 34 t8 46t10 50.5q47 -16 76 -53t29 -88q0 -49 -22.5 -87t-57.5 -65t-79 -40t-89 -13q-92 0 -146.5 47t-82 116.5t-36 151.5t-8.5 150zM174 600q0 -51 36 -86t87 -35q45 0 72.5 37t27.5 78q0 51 -31.5 85t-84.5 34q-41 0 -74 -37t-33 -76z" />
<glyph unicode="f" horiz-adv-x="430" d="M20 14q16 37 38 75t28 79q10 76 11 154v53q0 52 -1 105q-2 79 -3 158v32q0 63 3 125q-8 4 -20.5 7t-24.5 8t-20 13t-8 21q0 16 10 23t22.5 12.5t22.5 13.5t12 27q3 28 3 54v12q-1 32 -1 67q0 51 7 99t27.5 87t59 62.5t99.5 23.5q70 0 124 -38t54 -116q0 -53 -23.5 -90 t-83.5 -43q-2 12 -2 27.5t-3 31t-11 26t-27 10.5q-23 0 -34 -12.5t-16 -29t-6 -37t-1 -34.5q0 -18 -1 -42t2 -45.5t12.5 -35.5t29.5 -14q35 0 60.5 21.5t54.5 35.5q2 -25 2 -49.5v-48.5q0 -49 -2 -97.5t-6 -97.5q-10 14 -21.5 41t-26 53.5t-31 46t-36.5 19.5 q-16 0 -22.5 -10.5t-8.5 -24.5q-6 -47 -8 -106.5t-2 -122t1 -125t1 -111.5t2 -84t8 -65.5t19.5 -62.5t35.5 -75q-16 -10 -34.5 -13t-38.5 -3q-51 0 -114 -2h-15q-53 0 -97 12z" />
<glyph unicode="g" horiz-adv-x="653" d="M20 444q0 57 4.5 136t25 150t64.5 121t124 50q25 0 44 -10t36.5 -26.5t32 -35t30.5 -34.5q8 23 12 47t10 49q33 -10 61 -28.5t54.5 -39t54 -40t60.5 -31.5q-23 -27 -42.5 -51.5t-23.5 -59.5q-11 -142 -11 -283v-24q1 -152 1 -305q0 -82 -9 -159t-41 -136.5t-92.5 -95 t-162.5 -35.5q-39 0 -80 13t-73.5 37.5t-54 60.5t-21.5 79q0 51 34.5 95t89.5 44q23 0 42.5 -6t37.5 -16q-27 -14 -27.5 -31.5t12.5 -32t33.5 -23.5t39.5 -9q41 0 64.5 38.5t35.5 91t15 106.5t3 83q-35 -37 -55 -63.5t-39.5 -44t-42 -25.5t-61.5 -8q-47 0 -79 24.5 t-52.5 64.5t-31.5 89t-15 99t-5.5 96.5t-1.5 78.5zM182 436q2 -57 2 -88q0 -23 5.5 -51.5t17.5 -54t31.5 -43t48.5 -17.5q43 0 65.5 35t32.5 82t11 96t1 78t-4 68t-16 73.5t-36 58t-62 23.5q-43 0 -63.5 -43t-27.5 -101q-6 -46 -6 -91v-25z" />
<glyph unicode="h" horiz-adv-x="694" d="M20 6q31 51 50.5 107.5t21.5 115.5q4 170 8 338t4 338q0 49 -2 84t-9 65.5t-21 61.5t-39 74q59 23 113.5 60.5t121.5 105.5q1 -21 1 -50v-31q-1 -50 -1 -83q0 -59 -4 -118.5t-4 -119.5v-84t8 -84q27 23 44.5 42.5t36 35t42 24.5t66.5 9q57 0 91 -31.5t52 -83.5t24 -116 q5 -54 4 -109v-19q-1 -64 -5.5 -122t-4.5 -94q0 -57 3.5 -94.5t9.5 -69t16 -65.5t27 -87q-47 -6 -92 -6q-47 0 -93.5 3t-93.5 3q49 104 56.5 223t7.5 234q0 27 -1 65.5t-9.5 75.5t-29 62.5t-57.5 25.5l-18 -2q-37 -18 -55.5 -69.5t-25.5 -111.5t-7 -120.5v-97.5q0 -41 2 -80 t8 -78q4 -33 19.5 -60.5t19.5 -58.5q-51 -4 -101 -7t-102 -3h-40.5t-41.5 2z" />
<glyph unicode="i" horiz-adv-x="333" d="M20 6q16 35 34 66.5t24 72.5q16 104 19 209t3 211q0 51 -24.5 95.5t-42.5 91.5q23 10 43 20t41 23q35 20 63.5 52.5t81.5 65.5l2 -43q-4 -162 -8 -323.5t-4 -323.5q0 -59 22.5 -111.5t38.5 -105.5q-37 -2 -73.5 -3t-73.5 -1q-35 0 -72 1t-74 3zM80 1176q0 41 27.5 71.5 t68.5 30.5q43 0 70.5 -28.5t27.5 -69.5q0 -47 -28.5 -76t-75.5 -29q-39 0 -64.5 32t-25.5 69z" />
<glyph unicode="j" horiz-adv-x="288" d="M-123 -260q0 53 26.5 80.5t67.5 54.5q6 -10 11.5 -24.5t11.5 -30t15 -25.5t24 -10q20 0 32.5 11t17.5 28.5t7 36t2 35.5q4 121 6 239.5t2 239.5q0 59 2 106v23q0 35 -4 67q-6 43 -24.5 84t-59.5 90q33 16 66 27.5t61 34.5q29 23 53.5 45.5t59.5 32.5q6 -74 6 -146 q0 -168 -3 -333.5t-3 -333.5q0 -41 2 -92q1 -21 1 -42q0 -32 -2 -64q-3 -54 -12.5 -106.5t-31 -93.5t-60 -66.5t-98.5 -25.5q-72 0 -124 40t-52 118zM74 1161q0 41 30.5 74t71.5 33t65.5 -34t24.5 -71t-28.5 -64.5t-63.5 -27.5q-39 0 -69.5 24.5t-30.5 65.5z" />
<glyph unicode="k" horiz-adv-x="708" d="M10 4q37 41 54.5 103.5t19.5 115.5q4 145 7 289.5t3 290.5q0 59 -6 117.5t-10 117.5q-4 47 -20.5 76t-37.5 70q33 16 68 35.5t64 40.5q29 18 49 37.5t43 39.5q12 -92 12 -186q0 -78 -4 -153.5t-4 -153.5q0 -80 3 -177.5t7 -177.5q18 35 43 74t45.5 78t34.5 73t14 56 q0 51 -26 100q25 3 49 3q12 0 24 -1q36 -2 72 -2q31 0 62.5 4.5t62.5 4.5h18.5t18.5 -2q-27 -35 -60.5 -63t-60.5 -62q-37 -49 -71.5 -100.5t-71.5 -100.5q29 -102 78 -197.5t90 -193.5q18 -47 48.5 -84t59.5 -76q-25 -2 -49.5 -2h-48.5q-47 0 -96.5 1t-98.5 1 q4 27 11.5 52.5t7.5 51.5q0 20 -12.5 57.5t-29 76t-33.5 74.5t-28 57q-47 -41 -56 -87t-9 -94q0 -29 3 -51t9 -42.5t14.5 -41t18.5 -47.5q-65 -4 -131 -5h-27q-56 0 -123 3z" />
<glyph unicode="l" horiz-adv-x="342" d="M20 0q10 35 30 66.5t30 66.5q27 92 27 204l-1 216q0 71 4 153q2 37 3 74q1 45 -3 90q-6 82 -23 159t-60 134q29 16 57.5 29.5t54.5 32.5q33 23 61.5 52.5t65.5 45.5q4 -25 6 -49.5t2 -48.5q0 -141 -6 -280.5t-6 -280.5q0 -117 -1 -235v-34q0 -101 5 -200 q4 -49 24.5 -98.5t31.5 -96.5h-302z" />
<glyph unicode="m" horiz-adv-x="1048" d="M20 0q18 35 36 66.5t22 72.5q12 98 13 198.5t1 199.5q0 68 -12 112.5t-47 102.5q57 27 107 63.5t104 69.5l18 -125q20 20 41 42.5t43.5 41t48 30t60.5 11.5q33 0 56.5 -14.5t39.5 -36t28.5 -47t24.5 -50.5h21q29 53 71.5 99.5t112.5 46.5q61 0 93 -35t46.5 -85 t16.5 -106.5t2 -97.5q0 -49 -4.5 -98t-4.5 -99v-65.5t1.5 -71.5t6.5 -71.5t15 -63.5q10 -27 22.5 -43t22.5 -45l-135 -2q-39 0 -76 2t-76 8q31 61 47 124q15 62 20 126q4 53 4 108v22q-1 66 -1 132q0 20 -3 47t-13.5 51.5t-27.5 41t-44 16.5q-47 0 -71.5 -40t-36 -94.5 t-13.5 -110.5t-2 -87q0 -59 6 -114.5t10 -112.5q4 -37 14.5 -61.5t20.5 -59.5q-20 -2 -39.5 -3t-40.5 -1q-47 0 -91 3t-91 7q12 31 26.5 55.5t18.5 59.5q10 117 13.5 235.5t3.5 237.5q0 12 -6.5 27.5t-15.5 30t-22.5 24.5t-25.5 10q-57 0 -86 -41t-40 -98.5t-11 -118.5v-100 q0 -47 2 -93.5t2 -93.5q0 -39 17.5 -71.5t27.5 -67.5q-45 0 -90 -1t-90 -1h-45.5t-45.5 2z" />
<glyph unicode="n" horiz-adv-x="702" d="M20 6q23 35 42.5 64.5t23.5 74.5q8 86 12 168t4 168v86t-6 55.5t-18 52t-37 77.5q14 8 47 28.5t69 41t67.5 36.5t41.5 19q4 -29 5 -55.5t5 -55.5q18 23 37 44t38.5 37.5t44 27t57.5 10.5q53 0 98 -33t61 -86q10 -33 13.5 -99.5t3.5 -140t-2 -143.5t-2 -109 q0 -70 12 -142.5t49 -131.5q-27 -10 -50.5 -10h-43.5q-49 0 -97.5 3t-97.5 7q16 39 31.5 70.5t20.5 74.5q9 91 9 196v21q-1 117 -1 218q0 18 -4 40.5t-14.5 42t-26 32t-39.5 12.5q-49 0 -73 -50.5t-33 -116.5q-8 -59 -8 -119v-13q1 -68 1 -101q0 -49 2 -86t8 -71.5 t18.5 -69.5t33.5 -80q-82 -2 -159 -9q-19 -2 -37 -2q-56 0 -106 17z" />
<glyph unicode="o" horiz-adv-x="569" d="M25 408q0 88 1 179t26.5 165.5t85.5 122t179 47.5q90 0 138.5 -47.5t70 -117t24.5 -149.5t3 -143q0 -80 -5 -163t-32 -150.5t-83 -110.5t-159 -43q-86 0 -136 39t-75.5 99.5t-31.5 133t-6 138.5zM180 453q0 -27 2 -69t12.5 -82t32 -68.5t60.5 -28.5t61.5 24.5t32.5 59.5 t13 72.5t3 66.5t-1 77t-10 95t-32.5 82t-66.5 35q-45 0 -66.5 -30t-31 -72t-9.5 -86.5v-75.5z" />
<glyph unicode="p" d="M20 725q59 37 112.5 81t119.5 71q2 -29 3 -59t1 -64q12 23 23.5 44t30 38.5t46 27.5t70.5 10q74 0 114 -41.5t58 -102t21.5 -129.5t3.5 -120q0 -37 -1 -89t-6.5 -110.5t-16.5 -115.5t-34.5 -103.5t-59.5 -75t-89 -28.5q-102 0 -172 160v-35t-1 -45.5t-1 -44v-33.5 q0 -51 3 -77.5t12 -46t22.5 -41t35.5 -60.5q-16 -10 -47.5 -31.5t-67.5 -44t-69 -43t-47 -29.5l-2 205q0 174 4 346t4 346q0 63 -14.5 127t-55.5 113zM248 397q0 -25 3 -67.5t14 -83.5t34 -71t61 -30q43 0 64.5 44t29.5 103q8 52 8 103v13q-1 57 -1 86q0 25 -2 57.5 t-11.5 62t-27.5 50t-51 20.5q-47 0 -72 -33t-36 -79t-12 -94t-1 -81z" />
<glyph unicode="q" horiz-adv-x="641" d="M20 377q0 55 1.5 138t18.5 162t59 135t122 56q33 0 52.5 -7t35 -19.5t30.5 -29.5t38 -40q6 23 10 46.5t14 45.5q20 -6 36 -19.5t32 -29.5q33 -33 73 -50t79 -40q-39 -53 -56.5 -110.5t-22.5 -118.5q-4 -43 -4 -87q0 -18 1 -35q2 -63 2 -124q0 -31 -1 -96v-43q0 -44 1 -89 q2 -69 6 -128.5t16 -81.5q10 -23 26.5 -42.5t26.5 -41.5q-25 -12 -56.5 -34t-65 -43.5t-64.5 -37.5t-51 -16l-2 90q0 92 4 184t6 184q-23 -12 -41 -30.5t-37.5 -34t-41 -26.5t-50.5 -11q-74 0 -114 47t-58 112.5t-21.5 138.5t-3.5 126zM176 343q0 -46 9.5 -89t32 -73.5 t67.5 -30.5q39 0 60.5 30.5t32.5 73.5t13 87t2 73q0 37 -2 81t-14 81.5t-38 64.5t-71 27q-37 0 -55 -30t-26.5 -70t-9.5 -82t-1 -66v-77z" />
<glyph unicode="r" horiz-adv-x="577" d="M23 750q63 23 114 64.5t103 82.5l26 -145q39 68 69 106.5t83 38.5q37 0 63.5 -17.5t44 -45t25.5 -60.5t8 -63q0 -33 -7 -66t-23.5 -59.5t-43 -43t-63.5 -16.5q-43 0 -78 23q43 2 66.5 26.5t25.5 51t-20.5 49t-69.5 22.5q-43 0 -62.5 -53t-25.5 -123q-4 -52 -4 -103v-34 q2 -68 2 -96q0 -47 4 -82t13.5 -66.5t23.5 -64.5t33 -76q-53 2 -98 2q-34 0 -65 -1q-71 -3 -138 -3q43 86 56 178t13 186q0 57 -2 113.5t-2 114.5q0 51 -15.5 88t-55.5 72z" />
<glyph unicode="s" horiz-adv-x="593" d="M23 199q0 63 31.5 108t101.5 45q14 0 28.5 -1t28.5 -3q-20 -16 -29.5 -38.5t-9.5 -47.5q0 -18 11.5 -31.5t27.5 -20.5t34.5 -11t33.5 -4q25 0 49 2t42.5 11t31 27.5t12.5 49.5q0 39 -27 65.5t-66.5 48t-86 43t-86 51t-66.5 74.5t-27 111q0 115 52.5 176t171.5 61 q55 0 106.5 -17t104.5 -17q16 0 30.5 2t28.5 8q-6 -31 -17.5 -60.5t-24.5 -58.5t-26.5 -58.5t-19.5 -60.5q-25 18 -41 31.5t-31.5 23t-35 13.5t-52.5 4q-29 0 -59.5 -19.5t-30.5 -50.5q0 -35 26.5 -56t66.5 -39.5t87 -40t87 -54.5t66.5 -84t26.5 -129q0 -70 -21.5 -121 t-60 -84t-94 -48t-121.5 -15q-47 0 -92 14t-80.5 42t-58 67.5t-22.5 91.5z" />
<glyph unicode="t" horiz-adv-x="454" d="M8 838q10 29 35 44t51 25v21q0 45 -15 87t-38 81q59 23 107.5 58.5t95.5 74.5q14 -53 14 -108q0 -15 -1 -31q-5 -70 -5 -140q0 -27 8 -45t39 -18q37 0 62.5 23.5t52.5 45.5l-6 -305h-21q-6 18 -14 45t-20.5 52.5t-30 43t-41.5 17.5q-14 0 -22.5 -17.5t-8.5 -29.5v-502 q0 -18 5 -39.5t30 -21.5t38 8t19 21.5t8 30.5t4 36q35 -33 51.5 -58.5t16.5 -74.5q0 -76 -44 -117t-118 -41q-66 0 -101.5 26.5t-53 68.5t-20.5 94.5t-3 101.5q0 127 1 251t9 251q-23 10 -42 20t-42 21z" />
<glyph unicode="u" horiz-adv-x="673" d="M20 768q31 16 63.5 32.5t55.5 45.5q27 16 50.5 36.5t56.5 24.5q6 -25 6 -51q0 -125 -12.5 -249t-12.5 -249q0 -18 3 -44.5t11.5 -51t24 -43t39.5 -18.5q37 0 60.5 24.5t39 62.5t21.5 86t9 95q2 35 2 67v21q-1 41 -1 66q0 35 -15 68.5t-34 62.5q57 31 105.5 71.5 t101.5 75.5q10 -16 14 -33.5t4 -36.5q0 -150 -12 -300t-12 -302q0 -59 21.5 -120.5t54.5 -110.5q-44 -1 -82 -1h-37q-53 1 -107 5q-16 16 -16 37.5v42.5l-2 18q-35 -41 -82 -77.5t-105 -36.5q-55 0 -88.5 29.5t-51 75.5t-22.5 105.5t-5 118t4 111.5t4 88q0 43 -1 73.5 t-5.5 57.5t-15.5 55.5t-32 67.5z" />
<glyph unicode="v" horiz-adv-x="669" d="M16 874q23 2 43.5 3.5t42.5 1.5q43 0 86 -2.5t86 -2.5q-8 -29 -14 -58.5t-6 -57.5q0 -23 13.5 -85.5t29.5 -133t33.5 -136t25.5 -92.5h23q14 33 30.5 75t31 86t22.5 87t8 80t-13.5 61.5t-28.5 40t-28.5 27.5t-13.5 25q0 4 19.5 22.5t44 38.5t48 36.5t31.5 16.5 q27 0 47.5 -23.5t35 -56t22.5 -67.5t8 -55q0 -76 -35 -152t-75.5 -149.5t-75.5 -144.5t-35 -136q0 -6 4 -22.5t10 -35t11.5 -37t7.5 -30.5q-70 6 -134.5 6h-130.5q6 16 21.5 52t15.5 53q0 18 -9 69t-22.5 116.5t-31 140.5t-33.5 141.5t-30.5 116.5t-20.5 71 q-10 31 -30.5 56.5t-33.5 53.5z" />
<glyph unicode="w" horiz-adv-x="1019" d="M16 885q68 0 136.5 -4t136.5 -4q-8 -35 -15.5 -70t-7.5 -70t7.5 -84t18.5 -100t22.5 -99t21.5 -85h20q33 92 61.5 192.5t28.5 198.5q0 33 -15 60.5t-25 56.5q10 2 18 3t18 1q53 0 111.5 -1t110.5 -10q-10 -33 -26.5 -65.5t-16.5 -67.5t14 -95t35.5 -124.5t46 -123 t43.5 -87.5q16 23 29.5 58.5t23.5 75.5t15.5 78t5.5 67q0 35 -16.5 63.5t-35 51t-35 37t-16.5 20.5t22.5 27.5t51.5 46t55.5 46t34.5 27.5q31 -35 51.5 -57.5t30.5 -46t14 -53t4 -76.5q0 -72 -24.5 -137.5t-53 -130t-53 -130t-24.5 -135.5q0 -39 14 -73.5t25 -71.5 q-66 0 -128.5 3t-127.5 3q6 29 10 59.5t4 59.5q0 31 -13.5 83t-32 107.5t-39 106.5t-34.5 78q-14 -20 -30.5 -69.5t-30 -105t-22.5 -107.5t-9 -77q0 -35 11.5 -67.5t17.5 -67.5q-30 2 -61 2q-22 0 -46 -1q-54 -3 -108 -3h-28.5t-29.5 2q14 33 24.5 65.5t10.5 67.5 q0 10 -1 20.5t-3 20.5q-33 143 -60.5 286.5t-68.5 284.5q-12 39 -31.5 71t-36.5 69z" />
<glyph unicode="x" horiz-adv-x="702" d="M16 0q20 29 60.5 95.5t81.5 140t71.5 140t30.5 97.5q0 16 -27.5 73.5t-62.5 124t-68 126.5t-45 80q10 2 21.5 2h21.5q50 -1 100 -7q31 -4 62 -4q19 0 39 2q2 -25 4 -54.5t6 -57t15.5 -51t35.5 -39.5q36 49 48 90q5 16 4 37q0 32 -11 75q35 0 82 1t82 1h35t35 -2 q-23 -29 -56.5 -80t-66.5 -108t-55.5 -112.5t-22.5 -90.5q0 -27 21.5 -83t51.5 -117.5t60.5 -117t46.5 -77.5l62 -84l-55 -2q-53 0 -107.5 4t-109.5 4q0 18 3 36.5t3 37.5q0 14 -7.5 39.5t-19.5 56.5t-26.5 61.5t-26.5 53.5q-10 -18 -22.5 -44t-25 -53.5t-20.5 -54t-8 -47.5 q0 -23 3 -46t7 -46h-250z" />
<glyph unicode="y" horiz-adv-x="708" d="M18 885h314q-16 -33 -30.5 -67t-14.5 -70q0 -10 9 -45t24.5 -83.5t33 -102.5t33.5 -103t29.5 -88t19.5 -56l17 35q23 78 46 159t23 163q0 39 -33.5 77.5t-62.5 61.5q45 39 88 79t96 66q29 -41 51.5 -87t22.5 -97q0 -33 -19.5 -110.5t-49 -180t-67.5 -216.5t-75 -216 t-69.5 -181t-51.5 -110q-63 -104 -188 -104q-20 0 -37 8q2 53 10 104.5t8 104.5q90 10 140.5 53t50.5 141q0 18 -15.5 76t-39 133.5t-52 161.5t-55.5 163t-49.5 136.5t-32.5 81.5q-16 31 -36.5 57.5t-37.5 55.5z" />
<glyph unicode="z" horiz-adv-x="622" d="M18 -12q25 63 61 144t76 165t79.5 163t72.5 140q0 10 2 18.5t2 18.5q0 14 -12 20q-10 10 -31 11q-55 0 -91 -12.5t-79 -47.5v21q0 63 -7 126t-17 124q66 -25 132 -34t136 -9q61 0 110.5 15t108.5 21q-29 -70 -73 -154.5t-89 -172.5t-81.5 -173t-51.5 -155q28 -4 62 -5 q11 0 23 1q48 2 89 2q12 0 24.5 3t22.5 13q19 19 19 48q0 19 -8 43q63 -29 82.5 -62t19.5 -102q0 -37 -14.5 -68t-39 -53.5t-56 -35.5t-68.5 -13q-35 0 -66.5 7t-63.5 16t-64.5 17.5t-65.5 8.5q-41 0 -74 -19.5t-70 -29.5z" />
<glyph unicode="{" horiz-adv-x="608" d="M10 553v80q98 6 150.5 43t52.5 141t-6 208.5t-6 209.5q0 92 28.5 152.5t78.5 96.5t120 51t152 15v-86q-197 -16 -197 -211q0 -102 13.5 -201.5t13.5 -201.5q0 -104 -49.5 -169t-153.5 -85v-10q102 -18 152.5 -84t50.5 -168q0 -100 -13.5 -199.5t-13.5 -200.5 q0 -106 45 -155t152 -60v-88q-80 0 -149 14.5t-120 50.5t-80.5 94t-29.5 149q0 109 6 215t6 215q0 100 -55.5 139t-147.5 45z" />
<glyph unicode="|" horiz-adv-x="358" d="M33 -293l53 76q8 72 6 145.5t-2 145.5q0 147 1 291.5t1 291.5q0 221 -2 438.5t-2 438.5q0 33 -16.5 59.5t-30.5 53.5h283q-14 -31 -33 -61t-19 -64v-1682q0 -35 12.5 -69.5t32.5 -63.5q-35 -2 -70.5 -2h-70.5t-71.5 1t-71.5 1z" />
<glyph unicode="}" horiz-adv-x="608" d="M29 -283q100 10 152 61.5t52 155.5q0 98 -15 193.5t-15 194.5q0 104 47 174.5t156 89.5v10q-102 20 -152.5 86t-50.5 168q0 104 15 204.5t15 205.5q0 98 -55 148t-149 60v82q82 0 150.5 -13t118.5 -48t77.5 -94.5t27.5 -151.5q0 -102 -6 -202.5t-6 -202.5q0 -57 12.5 -95 t38 -62t64.5 -35t94 -13v-80q-53 -4 -93 -16.5t-65.5 -37t-38 -62.5t-12.5 -93q0 -104 6 -207.5t6 -208.5q0 -86 -29.5 -143t-80.5 -91t-120 -48.5t-144 -14.5v86z" />
<glyph unicode="~" horiz-adv-x="890" d="M55 653v121q43 70 106.5 109t145.5 39q51 0 97.5 -15.5t92.5 -34t93 -34t98 -15.5t87 30t59 71l4 -111q-76 -152 -238 -151q-55 0 -104.5 15t-94.5 34.5t-88 35t-88 15.5q-59 0 -100 -31t-70 -78z" />
<glyph unicode="&#xa1;" horiz-adv-x="468" d="M55 420q0 86 14.5 170t32 167t33 166t15.5 167l92 -19q-10 -96 -20.5 -191.5t-10.5 -191.5q0 -86 7 -145.5t26.5 -108.5t51.5 -97t81 -112q-66 -35 -116 -91t-75 -128l-28 -6q-53 96 -78 203.5t-25 216.5zM82 1315q0 47 34 81t81 34t80.5 -34t33.5 -81t-33.5 -81 t-80.5 -34t-81 34t-34 81z" />
<glyph unicode="&#xa4;" horiz-adv-x="1134" d="M55 293l146 145q-35 53 -51.5 115.5t-16.5 126.5q0 63 15.5 124.5t50.5 115.5l-144 143l123 129l148 -148q53 33 114.5 48.5t124.5 15.5q66 0 126.5 -14.5t113.5 -51.5l147 148l127 -127l-147 -145q35 -53 50 -114t15 -124q0 -66 -16 -126t-51 -116l149 -145l-127 -127 l-149 149q-53 -31 -113.5 -48t-124.5 -17q-63 0 -123.5 14.5t-113.5 48.5l-150 -149zM317 680q0 -55 17.5 -103.5t49.5 -83t78 -55t103 -20.5q55 0 101.5 20.5t79 56t50 83t17.5 102.5t-17.5 102t-50 82t-78.5 55.5t-102 20.5q-115 0 -181.5 -74.5t-66.5 -185.5z" />
<glyph unicode="&#xa5;" horiz-adv-x="964" d="M41 1323q16 8 57 13t88 6t92.5 1h67.5q43 0 84 -12q-6 -20 -17.5 -37.5t-23.5 -34t-24.5 -34t-18.5 -37.5q33 -127 81 -246t75 -248h22q12 43 37 116t49.5 148.5t44 145.5t19.5 106q-6 14 -17.5 26.5t-22.5 26t-19.5 28t-8.5 30.5q0 8 4 25q78 -6 157 -3t157 3 q10 0 25.5 -5.5t15.5 -19.5q0 -8 -12.5 -24.5t-30 -34t-33 -34t-21.5 -24.5q-10 -14 -31.5 -72.5t-51 -139.5t-61.5 -175t-58 -180h65q35 0 61.5 11t55.5 22v-201q-31 10 -61.5 22.5t-67.5 12.5h-92q-16 -51 -24.5 -87t-8.5 -50v-7q68 2 137 2q35 0 61.5 12.5t55.5 22.5 v-202q-31 10 -61.5 23t-67.5 13h-123q4 -23 8 -44t14 -37q6 -12 19.5 -25.5t26 -28t21.5 -29t9 -24.5t-1 -17.5t-1 -17.5h-321q-45 0 -76 23q25 39 55.5 73.5t52.5 75.5q2 12 3.5 24.5t1.5 24.5q-70 -4 -134 -8q-74 -6 -104 -22q-2 25 -2 49v51q0 27 1 52t1 50l78 -36 q41 -4 80 -5h82h2q0 27 -2 53.5t-9 49.5l-10 39q-61 -2 -117 -6q-74 -6 -104 -23q-2 25 -2 49v51q0 25 1 51.5t1 51.5l78 -39q41 -2 80 -4h22q-31 86 -65.5 172t-63.5 166q-16 47 -32.5 97t-36.5 97q-23 45 -56 80t-55 78z" />
<glyph unicode="&#xa6;" horiz-adv-x="358" d="M33 -293l53 76q6 66 5 133.5t-1 132.5q0 135 1 266t1 267h180v-742q0 -35 12.5 -69.5t32.5 -63.5q-35 -2 -70.5 -2h-70.5t-71.5 1t-71.5 1zM41 1647h283q-16 -31 -34 -62t-18 -67v-756h-180q0 195 -2 386t-2 386q0 33 -16.5 59.5t-30.5 53.5z" />
<glyph unicode="&#xa7;" horiz-adv-x="1046" d="M119 -43l184 33q39 -184 223 -185q96 0 147.5 47.5t51.5 127.5q0 82 -50 123.5t-206 103.5q-170 63 -241.5 132t-71.5 191q0 178 166 287q-123 96 -123 254q0 141 94 230.5t254 89.5q296 -1 364 -267l-172 -41q-45 160 -190 160q-78 0 -118 -44t-40 -105q0 -72 41 -109 t191 -98q156 -63 222 -131t66 -191q0 -160 -143 -276q156 -102 156 -283q0 -158 -109.5 -258t-292.5 -100q-334 0 -403 309zM340 584q0 -55 35 -99.5t180 -99.5q70 -27 84 -33q96 74 96 164q0 47 -35 94.5t-262 141.5q-98 -76 -98 -168z" />
<glyph unicode="&#xa8;" horiz-adv-x="565" d="M80 1176q0 41 27.5 71.5t68.5 30.5q43 0 70.5 -28.5t27.5 -69.5q0 -47 -28.5 -76t-75.5 -29q-39 0 -64.5 32t-25.5 69zM307 1176q0 41 27.5 71.5t68.5 30.5q43 0 71 -28.5t28 -69.5q0 -47 -29 -76t-76 -29q-39 0 -64.5 32t-25.5 69z" />
<glyph unicode="&#xa9;" horiz-adv-x="1355" d="M45 653q0 135 49 250t135 199t202 131t249 47t248.5 -47t200.5 -131t133.5 -199t48.5 -250q0 -133 -49.5 -246.5t-134.5 -197.5t-200.5 -131t-246.5 -47q-133 0 -249 47t-202 130t-135 196.5t-49 248.5zM154 653q0 -113 38.5 -212t109.5 -172.5t168 -116.5t212 -43 t211 43t166.5 116.5t109.5 173t39 211.5q0 113 -39 212.5t-108.5 174t-166.5 117.5t-212 43q-117 0 -213 -43t-167 -116.5t-109.5 -174t-38.5 -213.5zM324 645q0 86 32.5 154.5t89 117t130 73t155.5 24.5q53 0 108.5 -8.5t104.5 -30.5q4 -45 10.5 -89t12.5 -89l-49 -15 q-29 72 -69 118t-124 46q-57 0 -98 -25.5t-66.5 -67.5t-38 -92t-12.5 -99t14.5 -101.5t42 -96.5t69.5 -71.5t99 -27.5q78 0 124 47t77 112l57 -14q-14 -43 -24.5 -87t-26.5 -85q-53 -16 -112.5 -29.5t-114.5 -13.5q-78 0 -148.5 23.5t-125 68.5t-86 110.5t-31.5 147.5z" />
<glyph unicode="&#xaa;" d="M20 766q0 100 39 149.5t95.5 76t118 46t108.5 60.5q10 27 10 49q0 102 -104 102q-27 0 -53.5 -11t-26.5 -44q0 -16 6 -30.5t10 -30.5h-39q-59 0 -95 32.5t-36 96.5q0 53 23.5 88.5t60.5 57.5t82 31t90 9q92 0 141.5 -31t71 -82t24.5 -117.5t3 -136.5q0 -53 1 -128.5 t9 -153.5t26.5 -148.5t51.5 -111.5q-72 2 -125 3t-104 5q-6 23 -8.5 45t-6.5 45q-29 -25 -46 -44.5t-36.5 -33.5t-45 -21.5t-68.5 -7.5q-51 0 -85 20.5t-54.5 54.5t-29 76t-8.5 85zM205 801q0 -33 16.5 -53.5t50.5 -20.5q33 0 56.5 15.5t38 39t20.5 52t6 57.5q0 49 -8 88 q-31 -6 -63.5 -21.5t-58 -39t-42 -53t-16.5 -64.5z" />
<glyph unicode="&#xab;" horiz-adv-x="548" d="M35 446l256 388l-105 -392l105 -379zM258 446l256 388l-104 -392l104 -379z" />
<glyph unicode="&#xac;" horiz-adv-x="1110" d="M4 598v139h1040v-590h-161v451h-879z" />
<glyph unicode="&#xad;" horiz-adv-x="716" d="M63 653q0 35 1.5 72t1.5 72l75 -54q49 -4 98.5 -5t98.5 -1t99 2t100 2q33 0 58.5 16.5t53.5 30.5v-282q-31 14 -60.5 32.5t-64.5 18.5q-39 0 -104.5 1t-134 -2t-129 -12t-90.5 -32q-2 35 -2.5 70.5t-0.5 70.5z" />
<glyph unicode="&#xae;" horiz-adv-x="788" d="M45 1190q0 72 27.5 135.5t75 110.5t111.5 74.5t136 27.5t135.5 -27.5t110.5 -74.5t74.5 -110.5t27.5 -135.5t-27.5 -136.5t-74.5 -111.5t-110.5 -74.5t-135.5 -27.5q-74 0 -138 26.5t-111.5 73.5t-74 111.5t-26.5 138.5zM123 1190q0 -59 20.5 -110.5t56.5 -91.5t86 -62.5 t109 -22.5q61 0 111.5 22.5t86.5 61.5t56.5 91t20.5 112q0 57 -20.5 109.5t-57.5 92.5t-87.5 62.5t-109.5 22.5t-109 -22.5t-86 -62.5t-56.5 -92.5t-20.5 -109.5zM225 1010v39q39 2 45 10t6 45v190q0 31 -8 38t-39 7v41h185q51 0 91 -20.5t40 -79.5q0 -35 -20.5 -56.5 t-49.5 -33.5q23 -43 52.5 -82t68.5 -70l-10 -32q-61 0 -94 24.5t-52.5 54t-33 54t-37.5 24.5h-11v-59q0 -20 1 -30.5t7.5 -15.5t17.5 -6t30 -3v-39h-189zM358 1208h25q29 0 51.5 17.5t22.5 48.5q0 29 -16.5 47t-45.5 18q-18 0 -27.5 -6t-9.5 -26v-99z" />
<glyph unicode="&#xb0;" horiz-adv-x="526" d="M57 1411q0 100 58.5 153.5t154.5 53.5q94 0 153.5 -53.5t59.5 -153.5t-58 -153.5t-155 -53.5q-94 0 -153.5 53.5t-59.5 153.5zM182 1413q0 -98 86 -98q90 0 90 98t-88 98t-88 -98z" />
<glyph unicode="&#xb1;" horiz-adv-x="722" d="M47 105.5v70.5t1 71.5t1 71.5l76 -53q35 -4 71.5 -5t73.5 -1q72 0 145.5 2t145.5 2q33 0 58.5 16.5t54.5 30.5v-282q-31 14 -60.5 32.5t-64.5 18.5q-41 0 -112.5 1t-147.5 -2t-142.5 -12.5t-97.5 -31.5q-2 35 -2 70.5zM47 582.5v70.5t1 72t1 72l76 -54q37 -4 75 -5t74 -1 q-2 55 -2 82t-5 45.5t-14 38t-30 62.5h283q-14 -31 -32.5 -61t-18.5 -64v-103q55 2 80.5 3t42 5.5t35 14.5t61.5 28v-282q-31 14 -60.5 32.5t-64.5 18.5h-94q2 -49 9 -112.5t36 -104.5q-35 -2 -71 -2h-71t-71.5 1t-71.5 1l53 76l6 139q-25 0 -55.5 -2t-61 -6t-59 -12.5 t-49.5 -22.5q-2 35 -2 70.5z" />
<glyph unicode="&#xb2;" horiz-adv-x="462" d="M14 453q0 80 23.5 148.5t56.5 129t72 113.5t71.5 104t55 102.5t22.5 106.5q0 41 -30.5 76t-71.5 35q-29 0 -52.5 -17.5t-23.5 -50.5q0 -37 25.5 -46t54.5 -9l19 -2q-6 -35 -26 -55.5t-54 -20.5q-41 0 -68 18.5t-42 46t-21.5 62.5t-6.5 68q0 37 15.5 69.5t41 57t59.5 38 t71 13.5q66 0 109.5 -24.5t70.5 -64.5t38 -92.5t11 -107.5q0 -4 -6 -25.5t-14 -48t-15.5 -49t-9.5 -27.5q-18 -41 -57 -91t-79 -102t-71.5 -102.5t-34.5 -91.5q47 10 86 24.5t91 14.5q70 0 122 -32q-14 -20 -39.5 -49t-31.5 -52q-8 -16 -8 -35.5t-19 -31.5q-39 23 -80 38 t-84 15q-53 0 -88 -18.5t-82 -34.5z" />
<glyph unicode="&#xb3;" horiz-adv-x="466" d="M14 651q0 63 44 110.5t108 47.5q25 0 41 -19.5t26 -39.5q-14 -2 -29.5 -3.5t-28.5 -5.5t-22.5 -15t-9.5 -32q0 -27 22.5 -44t47.5 -17q29 0 50.5 13t34.5 34.5t20.5 48.5t7.5 51q0 70 -15.5 102.5t-43 48t-66.5 21.5t-84 23q2 10 2 23.5v23.5q18 6 39.5 9t43 7t41 12.5 t33.5 24.5q20 23 33 56.5t13 62.5q0 43 -24 77t-71 34q-27 0 -49 -14.5t-22 -43.5q0 -37 25.5 -43t54.5 -6v-18q-16 -18 -40 -30.5t-51 -12.5q-23 0 -42 12t-33.5 31.5t-23.5 42t-9 43.5q0 88 57.5 141t143.5 53q45 0 81.5 -19.5t63.5 -50t40 -70.5t13 -83q0 -45 -8 -74.5 t-23.5 -54.5t-37 -48.5t-45.5 -53.5q33 -29 57 -51.5t39.5 -47t24 -56.5t8.5 -81q0 -55 -15.5 -109.5t-46.5 -97.5t-77 -69.5t-109 -26.5q-88 0 -138.5 48t-50.5 136z" />
<glyph unicode="&#xb4;" horiz-adv-x="565" d="M195 1016q86 63 153 121q59 49 108.5 99t53.5 83q0 4 19.5 -12.5t42 -39t40 -44t17.5 -25.5q-8 -49 -57.5 -85t-116 -59.5t-138 -33.5t-122.5 -4z" />
<glyph unicode="&#xb6;" horiz-adv-x="1046" d="M33 971q0 131 50 223t129 132t247 40h446v-1708h-137v1571h-100v-1571h-138v913h-77q-141 0 -225.5 33t-139.5 128t-55 239z" />
<glyph unicode="&#xb7;" horiz-adv-x="446" d="M121 557q0 47 33.5 81t81.5 34q47 0 80.5 -34t33.5 -81t-33.5 -81t-80.5 -34t-81 34t-34 81z" />
<glyph unicode="&#xb8;" horiz-adv-x="516" d="M49 -480.5q6 13.5 39 27.5q27 8 53.5 34t48 55.5t34 57t12.5 44.5q0 23 -30 38t-52 29q-16 6 -7 22.5t33 33.5l4 4q23 16 27 62t0 100h143q-8 -35 -20 -68t-27 -61q78 -4 115 -31t37 -70q0 -35 -23.5 -69.5t-59.5 -66.5t-78 -60.5t-80 -50t-65.5 -36t-31.5 -16.5 q-18 -12 -38 -11t-30 10t-4 22.5z" />
<glyph unicode="&#xb9;" horiz-adv-x="315" d="M14 1307q33 25 67 47t62 51q18 18 33.5 42t40.5 38q10 -182 11 -363.5t1 -361.5q0 -43 4.5 -75t12.5 -61.5t21.5 -59t31.5 -66.5q-20 -2 -39.5 -2h-40.5q-47 0 -91 2t-89 4q12 31 26.5 56.5t20.5 59.5q8 47 11 95.5t3 95.5v89t-2 124.5t-5 120t-11 76.5q-10 27 -28.5 48 t-39.5 40z" />
<glyph unicode="&#xba;" horiz-adv-x="569" d="M25 942q0 88 1 179t26.5 166t85.5 122t179 47q90 0 138.5 -47t70 -116.5t24.5 -149.5t3 -144q0 -80 -5 -162.5t-32 -150.5t-83 -111t-159 -43q-86 0 -136 39t-75.5 99.5t-31.5 133.5t-6 138zM180 987q0 -27 2 -68.5t12.5 -81.5t32 -69t60.5 -29t61.5 24.5t32.5 59.5 t13 73t3 67t-1 76.5t-10 95t-32.5 82t-66.5 34.5q-45 0 -66.5 -29.5t-31 -71.5t-9.5 -87v-76z" />
<glyph unicode="&#xbb;" horiz-adv-x="548" d="M35 63l104 379l-104 392l256 -388zM258 63l104 379l-104 392l256 -388z" />
<glyph unicode="&#xbc;" horiz-adv-x="1431" d="M74 1253q33 25 66.5 47.5t62.5 51.5q18 18 33 42t40 38q10 -182 11.5 -363.5t1.5 -361.5q0 -43 4 -75t12 -61.5t21.5 -59.5t31.5 -67q-20 -2 -39.5 -2h-39.5q-47 0 -91.5 2t-89.5 5q12 31 26.5 56t20.5 60q8 47 11.5 95.5t3.5 95.5v89t-2 124.5t-5 120t-12 75.5 q-10 27 -28.5 48.5t-38.5 39.5zM178 4q37 94 105.5 212t157.5 244t193.5 255t213 249.5t216 226t204.5 183.5q23 18 38 31.5t27.5 21t23.5 6.5t25 -14l-6 -18q-29 -16 -85 -76.5t-126.5 -149t-151.5 -197t-161 -223t-153.5 -226t-130 -205t-90.5 -159.5t-34 -93 q0 -6 -33.5 -19.5t-76.5 -29t-85 -27.5t-59 -14zM897 266q4 33 8 63.5t21 61.5q66 127 98.5 264.5t30.5 280.5q53 10 107.5 26.5t103.5 45.5q-8 -43 -38 -122t-68 -164t-74.5 -161t-59.5 -112q-12 -23 -24.5 -40.5t-12.5 -43.5q14 2 38 7t46.5 14t39.5 21.5t17 30.5t-9 37 t-9 41q0 14 4 21q18 47 44 91t44 93q12 35 22.5 68.5t30.5 66.5q2 -8 2.5 -16.5t0.5 -18.5q0 -29 -4.5 -56.5t-6.5 -55.5q-2 -53 -5 -108.5t-3 -108.5q0 -12 1 -24.5t9 -23.5q31 -4 61.5 -3t61.5 -9q-16 -39 -30.5 -79t-22.5 -81q-14 0 -27.5 3.5t-27.5 3.5q-29 0 -34 -16.5 t-5 -39.5q0 -66 14 -104.5t39 -98.5h-225q12 23 27.5 42.5t21.5 46.5q10 41 11 84t3 83l-16 15l-25 2q-47 0 -90 -10.5t-90 -16.5z" />
<glyph unicode="&#xbd;" horiz-adv-x="1509" d="M74 1253q33 25 66.5 47.5t62.5 51.5q18 18 33 42t40 38q10 -182 11.5 -363.5t1.5 -361.5q0 -43 4 -75t12 -61.5t21.5 -59.5t31.5 -67q-20 -2 -39.5 -2h-39.5q-47 0 -91.5 2t-89.5 5q12 31 26.5 56t20.5 60q8 47 11.5 95.5t3.5 95.5v89t-2 124.5t-5 120t-12 75.5 q-10 27 -28.5 48.5t-38.5 39.5zM178 4q37 94 105.5 212t157.5 244t193.5 255t213 249.5t216 226t204.5 183.5q23 18 38 31.5t27.5 21t23.5 6.5t25 -14l-6 -18q-29 -16 -85 -76.5t-126.5 -149t-151.5 -197t-161 -223t-153.5 -226t-130 -205t-90.5 -159.5t-34 -93 q0 -6 -33.5 -19.5t-76.5 -29t-85 -27.5t-59 -14zM1014 -27q0 80 23.5 148.5t56 129t71.5 114t73 104.5t55.5 102.5t21.5 106.5q0 41 -31 75.5t-72 34.5q-29 0 -52 -17t-23 -50q0 -37 25.5 -46t54.5 -9l18 -2q-6 -35 -25.5 -55.5t-54.5 -20.5q-41 0 -67.5 18.5t-42 46 t-21.5 62.5t-6 67q0 37 15.5 70t41 57.5t59 38t70.5 13.5q66 0 110 -25t70.5 -65t38 -92t11.5 -107q0 -4 -6.5 -25.5t-14.5 -48.5t-15 -49.5t-9 -26.5q-18 -41 -57.5 -91t-79.5 -102.5t-71.5 -102.5t-33.5 -91q47 10 86 24.5t90 14.5q70 0 123 -33q-14 -20 -40 -49t-32 -51 q-8 -16 -8 -35.5t-18 -32.5q-39 23 -80 38.5t-84 15.5q-53 0 -88 -18.5t-82 -35.5z" />
<glyph unicode="&#xbe;" horiz-adv-x="1431" d="M14 651q0 63 44 110.5t108 47.5q25 0 41 -19.5t26 -39.5q-14 -2 -29.5 -3.5t-28.5 -5.5t-22.5 -15t-9.5 -32q0 -27 22.5 -44t47.5 -17q29 0 50.5 13t34.5 34.5t20.5 48.5t7.5 51q0 70 -15.5 102.5t-43 48t-66.5 21.5t-84 23q2 10 2 23.5v23.5q18 6 39.5 9t43 7t41 12.5 t33.5 24.5q20 23 33 56.5t13 62.5q0 43 -24 77t-71 34q-27 0 -49 -14.5t-22 -43.5q0 -37 25.5 -43t54.5 -6v-18q-16 -18 -40 -30.5t-51 -12.5q-23 0 -42 12t-33.5 31.5t-23.5 42t-9 43.5q0 88 57.5 141t143.5 53q45 0 81.5 -19.5t63.5 -50t40 -70.5t13 -83q0 -45 -8 -74.5 t-23.5 -54.5t-37 -48.5t-45.5 -53.5q33 -29 57 -51.5t39.5 -47t24 -56.5t8.5 -81q0 -55 -15.5 -109.5t-46.5 -97.5t-77 -69.5t-109 -26.5q-88 0 -138.5 48t-50.5 136zM178 4q37 94 105.5 212t157.5 244t193.5 255t213 249.5t216 226t204.5 183.5q23 18 38 31.5t27.5 21 t23.5 6.5t25 -14l-6 -18q-29 -16 -85 -76.5t-126.5 -149t-151.5 -197t-161 -223t-153.5 -226t-130 -205t-90.5 -159.5t-34 -93q0 -6 -33.5 -19.5t-76.5 -29t-85 -27.5t-59 -14zM897 266q4 33 8 63.5t21 61.5q66 127 98.5 264.5t30.5 280.5q53 10 107.5 26.5t103.5 45.5 q-8 -43 -38 -122t-68 -164t-74.5 -161t-59.5 -112q-12 -23 -24.5 -40.5t-12.5 -43.5q14 2 38 7t46.5 14t39.5 21.5t17 30.5t-9 37t-9 41q0 14 4 21q18 47 44 91t44 93q12 35 22.5 68.5t30.5 66.5q2 -8 2.5 -16.5t0.5 -18.5q0 -29 -4.5 -56.5t-6.5 -55.5q-2 -53 -5 -108.5 t-3 -108.5q0 -12 1 -24.5t9 -23.5q31 -4 61.5 -3t61.5 -9q-16 -39 -30.5 -79t-22.5 -81q-14 0 -27.5 3.5t-27.5 3.5q-29 0 -34 -16.5t-5 -39.5q0 -66 14 -104.5t39 -98.5h-225q12 23 27.5 42.5t21.5 46.5q10 41 11 84t3 83l-16 15l-25 2q-47 0 -90 -10.5t-90 -16.5z" />
<glyph unicode="&#xbf;" horiz-adv-x="616" d="M25 385q0 70 20.5 124t51 99t68.5 87t72.5 86t61.5 96.5t39 119.5l65 -16q-18 -98 -55 -175t-72.5 -144.5t-63.5 -135t-28 -149.5q0 -27 10.5 -53.5t29 -47t43 -33t52.5 -12.5q41 0 72 22.5t31 68.5q0 47 -34 60t-73 13l-24 2q8 45 33.5 73t72.5 28q53 0 89 -23.5 t56.5 -61.5t29 -84t8.5 -89q0 -51 -20.5 -95.5t-55.5 -76t-80 -50t-94 -18.5q-86 0 -145.5 31.5t-94.5 86t-50 124t-15 143.5zM254 1217q0 47 34 80.5t81 33.5t80.5 -33.5t33.5 -80.5t-33.5 -81t-80.5 -34t-81 33.5t-34 81.5z" />
<glyph unicode="&#xc0;" horiz-adv-x="1026" d="M20 0q18 35 43 72t41 73q12 31 27.5 89.5t29 122t23 123t9.5 91.5q-31 0 -62 -8t-61 -12q-2 8 -2 22q0 37 22.5 48.5t51 17.5t53 17.5t30.5 45.5q8 57 21.5 114.5t26 116t20.5 116t8 116.5v16.5t-4 16.5q-55 12 -102 21q-41 8 -78 16t-49 12q23 35 53.5 64.5t52.5 66.5 q14 23 26.5 47.5t30.5 42.5q14 0 46 -10t74 -22.5t92.5 -22.5t101.5 -10q57 0 96 6t73 16.5t68.5 26t83.5 31.5l27 -21q-70 -53 -122 -87t-102.5 -59.5t-108.5 -47t-140 -47.5l-4 -17q-6 -23 -14.5 -82t-16.5 -126.5t-14 -127t-6 -84.5q0 -37 8 -67q45 10 90 22.5t84 40.5 v95.5t1 120t4 116.5t11 86q2 8 28.5 25.5t60.5 35t65 32t43 18.5q-25 -117 -39 -224.5t-19 -228.5v-18q31 8 60 24.5t56.5 33.5t56 33.5t59.5 24.5q0 -8 -9.5 -52t-19.5 -96t-20.5 -98t-12.5 -61q-20 10 -50.5 27.5t-53.5 17.5q-12 0 -24.5 -1t-24.5 -1q25 -135 98.5 -251.5 t188.5 -194.5q-23 -27 -50.5 -49.5t-50.5 -49.5q-31 -35 -56.5 -75.5t-57.5 -75.5q-41 43 -75 100.5t-60.5 121t-45 129t-26.5 122.5q-8 51 -12.5 99t-26.5 96q-53 -4 -102.5 -20.5t-98.5 -35.5q-8 -78 -14 -161t-6 -160q0 -43 7 -79t19 -69t27.5 -65.5t32.5 -71.5 q-98 4 -194.5 2t-195.5 -2zM297 1608q0 4 17.5 25.5t40 44t42 39t19.5 12.5q4 -33 52 -83t107 -99q68 -58 156 -121q-53 -6 -123.5 4t-137.5 33.5t-116 59.5t-57 85z" />
<glyph unicode="&#xc1;" horiz-adv-x="1026" d="M20 0q18 35 43 72t41 73q12 31 27.5 89.5t29 122t23 123t9.5 91.5q-31 0 -62 -8t-61 -12q-2 8 -2 22q0 37 22.5 48.5t51 17.5t53 17.5t30.5 45.5q8 57 21.5 114.5t26 116t20.5 116t8 116.5v16.5t-4 16.5q-55 12 -102 21q-41 8 -78 16t-49 12q23 35 53.5 64.5t52.5 66.5 q14 23 26.5 47.5t30.5 42.5q14 0 46 -10t74 -22.5t92.5 -22.5t101.5 -10q57 0 96 6t73 16.5t68.5 26t83.5 31.5l27 -21q-70 -53 -122 -87t-102.5 -59.5t-108.5 -47t-140 -47.5l-4 -17q-6 -23 -14.5 -82t-16.5 -126.5t-14 -127t-6 -84.5q0 -37 8 -67q45 10 90 22.5t84 40.5 v95.5t1 120t4 116.5t11 86q2 8 28.5 25.5t60.5 35t65 32t43 18.5q-25 -117 -39 -224.5t-19 -228.5v-18q31 8 60 24.5t56.5 33.5t56 33.5t59.5 24.5q0 -8 -9.5 -52t-19.5 -96t-20.5 -98t-12.5 -61q-20 10 -50.5 27.5t-53.5 17.5q-12 0 -24.5 -1t-24.5 -1q25 -135 98.5 -251.5 t188.5 -194.5q-23 -27 -50.5 -49.5t-50.5 -49.5q-31 -35 -56.5 -75.5t-57.5 -75.5q-41 43 -75 100.5t-60.5 121t-45 129t-26.5 122.5q-8 51 -12.5 99t-26.5 96q-53 -4 -102.5 -20.5t-98.5 -35.5q-8 -78 -14 -161t-6 -160q0 -43 7 -79t19 -69t27.5 -65.5t32.5 -71.5 q-98 4 -194.5 2t-195.5 -2zM398 1485q86 63 153 121q59 49 108.5 99t53.5 83q0 4 19.5 -12.5t42 -39t40 -44t17.5 -25.5q-8 -49 -57.5 -85t-116 -59.5t-138 -33.5t-122.5 -4z" />
<glyph unicode="&#xc2;" horiz-adv-x="1026" d="M20 0q18 35 43 72t41 73q12 31 27.5 89.5t29 122t23 123t9.5 91.5q-31 0 -62 -8t-61 -12q-2 8 -2 22q0 37 22.5 48.5t51 17.5t53 17.5t30.5 45.5q8 57 21.5 114.5t26 116t20.5 116t8 116.5v16.5t-4 16.5q-55 12 -102 21q-41 8 -78 16t-49 12q23 35 53.5 64.5t52.5 66.5 q14 23 26.5 47.5t30.5 42.5q14 0 46 -10t74 -22.5t92.5 -22.5t101.5 -10q57 0 96 6t73 16.5t68.5 26t83.5 31.5l27 -21q-70 -53 -122 -87t-102.5 -59.5t-108.5 -47t-140 -47.5l-4 -17q-6 -23 -14.5 -82t-16.5 -126.5t-14 -127t-6 -84.5q0 -37 8 -67q45 10 90 22.5t84 40.5 v95.5t1 120t4 116.5t11 86q2 8 28.5 25.5t60.5 35t65 32t43 18.5q-25 -117 -39 -224.5t-19 -228.5v-18q31 8 60 24.5t56.5 33.5t56 33.5t59.5 24.5q0 -8 -9.5 -52t-19.5 -96t-20.5 -98t-12.5 -61q-20 10 -50.5 27.5t-53.5 17.5q-12 0 -24.5 -1t-24.5 -1q25 -135 98.5 -251.5 t188.5 -194.5q-23 -27 -50.5 -49.5t-50.5 -49.5q-31 -35 -56.5 -75.5t-57.5 -75.5q-41 43 -75 100.5t-60.5 121t-45 129t-26.5 122.5q-8 51 -12.5 99t-26.5 96q-53 -4 -102.5 -20.5t-98.5 -35.5q-8 -78 -14 -161t-6 -160q0 -43 7 -79t19 -69t27.5 -65.5t32.5 -71.5 q-98 4 -194.5 2t-195.5 -2zM260 1481l260 258l264 -258l-272 66z" />
<glyph unicode="&#xc3;" horiz-adv-x="1026" d="M20 0q18 35 43 72t41 73q12 31 27.5 89.5t29 122t23 123t9.5 91.5q-31 0 -62 -8t-61 -12q-2 8 -2 22q0 37 22.5 48.5t51 17.5t53 17.5t30.5 45.5q8 57 21.5 114.5t26 116t20.5 116t8 116.5v16.5t-4 16.5q-55 12 -102 21q-41 8 -78 16t-49 12q23 35 53.5 64.5t52.5 66.5 q14 23 26.5 47.5t30.5 42.5q14 0 46 -10t74 -22.5t92.5 -22.5t101.5 -10q57 0 96 6t73 16.5t68.5 26t83.5 31.5l27 -21q-70 -53 -122 -87t-102.5 -59.5t-108.5 -47t-140 -47.5l-4 -17q-6 -23 -14.5 -82t-16.5 -126.5t-14 -127t-6 -84.5q0 -37 8 -67q45 10 90 22.5t84 40.5 v95.5t1 120t4 116.5t11 86q2 8 28.5 25.5t60.5 35t65 32t43 18.5q-25 -117 -39 -224.5t-19 -228.5v-18q31 8 60 24.5t56.5 33.5t56 33.5t59.5 24.5q0 -8 -9.5 -52t-19.5 -96t-20.5 -98t-12.5 -61q-20 10 -50.5 27.5t-53.5 17.5q-12 0 -24.5 -1t-24.5 -1q25 -135 98.5 -251.5 t188.5 -194.5q-23 -27 -50.5 -49.5t-50.5 -49.5q-31 -35 -56.5 -75.5t-57.5 -75.5q-41 43 -75 100.5t-60.5 121t-45 129t-26.5 122.5q-8 51 -12.5 99t-26.5 96q-53 -4 -102.5 -20.5t-98.5 -35.5q-8 -78 -14 -161t-6 -160q0 -43 7 -79t19 -69t27.5 -65.5t32.5 -71.5 q-98 4 -194.5 2t-195.5 -2zM256 1579q0 66 27.5 109t81.5 43q35 0 66.5 -25.5t59 -55.5t50 -53.5t41 -19.5t32 46t21.5 145l135 -156q-16 -25 -36.5 -50.5t-42 -48t-46 -36.5t-49.5 -14q-39 0 -67.5 25.5t-55.5 55t-54.5 55t-64.5 25.5q-49 0 -65.5 -36t-12.5 -95 q-10 8 -15 39t-5 47z" />
<glyph unicode="&#xc4;" horiz-adv-x="1026" d="M20 0q18 35 43 72t41 73q12 31 27.5 89.5t29 122t23 123t9.5 91.5q-31 0 -62 -8t-61 -12q-2 8 -2 22q0 37 22.5 48.5t51 17.5t53 17.5t30.5 45.5q8 57 21.5 114.5t26 116t20.5 116t8 116.5v16.5t-4 16.5q-55 12 -102 21q-41 8 -78 16t-49 12q23 35 53.5 64.5t52.5 66.5 q14 23 26.5 47.5t30.5 42.5q14 0 46 -10t74 -22.5t92.5 -22.5t101.5 -10q57 0 96 6t73 16.5t68.5 26t83.5 31.5l27 -21q-70 -53 -122 -87t-102.5 -59.5t-108.5 -47t-140 -47.5l-4 -17q-6 -23 -14.5 -82t-16.5 -126.5t-14 -127t-6 -84.5q0 -37 8 -67q45 10 90 22.5t84 40.5 v95.5t1 120t4 116.5t11 86q2 8 28.5 25.5t60.5 35t65 32t43 18.5q-25 -117 -39 -224.5t-19 -228.5v-18q31 8 60 24.5t56.5 33.5t56 33.5t59.5 24.5q0 -8 -9.5 -52t-19.5 -96t-20.5 -98t-12.5 -61q-20 10 -50.5 27.5t-53.5 17.5q-12 0 -24.5 -1t-24.5 -1q25 -135 98.5 -251.5 t188.5 -194.5q-23 -27 -50.5 -49.5t-50.5 -49.5q-31 -35 -56.5 -75.5t-57.5 -75.5q-41 43 -75 100.5t-60.5 121t-45 129t-26.5 122.5q-8 51 -12.5 99t-26.5 96q-53 -4 -102.5 -20.5t-98.5 -35.5q-8 -78 -14 -161t-6 -160q0 -43 7 -79t19 -69t27.5 -65.5t32.5 -71.5 q-98 4 -194.5 2t-195.5 -2zM301 1586q0 41 27.5 71.5t68.5 30.5q43 0 70.5 -28.5t27.5 -69.5q0 -47 -28.5 -76t-75.5 -29q-39 0 -64.5 32t-25.5 69zM528 1586q0 41 27.5 71.5t68.5 30.5q43 0 71 -28.5t28 -69.5q0 -47 -29 -76t-76 -29q-39 0 -64.5 32t-25.5 69z" />
<glyph unicode="&#xc5;" horiz-adv-x="1026" d="M20 0q18 35 43 72t41 73q12 31 27.5 89.5t29 122t23 123t9.5 91.5q-31 0 -62 -8t-61 -12q-2 8 -2 22q0 37 22.5 48.5t51 17.5t53 17.5t30.5 45.5q8 57 21.5 114.5t26 116t20.5 116t8 116.5v16.5t-4 16.5q-55 12 -102 21q-41 8 -78 16t-49 12q23 35 53.5 64.5t52.5 66.5 q14 23 26.5 47.5t30.5 42.5q14 0 46 -10t74 -22.5t92.5 -22.5t101.5 -10q57 0 96 6t73 16.5t68.5 26t83.5 31.5l27 -21q-70 -53 -122 -87t-102.5 -59.5t-108.5 -47t-140 -47.5l-4 -17q-6 -23 -14.5 -82t-16.5 -126.5t-14 -127t-6 -84.5q0 -37 8 -67q45 10 90 22.5t84 40.5 v95.5t1 120t4 116.5t11 86q2 8 28.5 25.5t60.5 35t65 32t43 18.5q-25 -117 -39 -224.5t-19 -228.5v-18q31 8 60 24.5t56.5 33.5t56 33.5t59.5 24.5q0 -8 -9.5 -52t-19.5 -96t-20.5 -98t-12.5 -61q-20 10 -50.5 27.5t-53.5 17.5q-12 0 -24.5 -1t-24.5 -1q25 -135 98.5 -251.5 t188.5 -194.5q-23 -27 -50.5 -49.5t-50.5 -49.5q-31 -35 -56.5 -75.5t-57.5 -75.5q-41 43 -75 100.5t-60.5 121t-45 129t-26.5 122.5q-8 51 -12.5 99t-26.5 96q-53 -4 -102.5 -20.5t-98.5 -35.5q-8 -78 -14 -161t-6 -160q0 -43 7 -79t19 -69t27.5 -65.5t32.5 -71.5 q-98 4 -194.5 2t-195.5 -2zM414 1606q0 37 9 69.5t25.5 58t39 43t49.5 21.5t50 -6t40.5 -31.5t27 -51.5t9.5 -67t-8.5 -69.5t-24.5 -59t-39 -44t-47 -19.5q-27 -4 -50.5 6t-42 31.5t-28.5 51.5t-10 67zM473 1577q2 -39 20.5 -63.5t47.5 -20.5q27 4 44 33.5t15 70.5 q0 39 -17.5 62.5t-45.5 19.5q-29 -4 -47.5 -33.5t-16.5 -68.5z" />
<glyph unicode="&#xc6;" horiz-adv-x="1370" d="M20 0q18 35 43 72t41 73q12 31 27.5 89.5t29 122t23 123t9.5 91.5q-31 0 -62 -8t-61 -12q-2 8 -2 22q0 37 22.5 48.5t51 17.5t53 17.5t30.5 45.5q4 29 13.5 71t20.5 91t21.5 100.5t17.5 97.5t8 83t-7 59q-12 -4 -48 0t-75 11.5t-71.5 16.5t-36.5 15q23 35 53.5 64.5 t52.5 66.5q14 23 26.5 47.5t30.5 42.5q14 0 46 -10t74 -22.5t92.5 -22.5t101.5 -10q92 0 167.5 26.5t153.5 53.5q27 -43 67 -72t86 -37t94 10.5t91 69.5q18 -66 40 -129t52 -123q-109 -20 -178 -23t-113 8t-68 33.5t-40 53.5t-31.5 65.5t-42.5 71.5q-51 -37 -94 -62.5 t-89 -46t-98.5 -39t-121.5 -42.5l-4 -17q-6 -23 -14.5 -83t-17.5 -134t-18.5 -147.5t-13.5 -122.5q90 23 195 63v95.5t1 120t4 116.5t11 86q2 8 28.5 25.5t60.5 35t65 32t43 18.5q-25 -117 -39 -224.5t-19 -228.5v-18q31 8 81.5 27.5t105.5 41t105 41t81 27.5q0 -8 -9 -52 t-19.5 -96.5t-20.5 -98.5t-12 -60q-59 33 -96 43t-68 8t-62.5 -10.5t-78.5 -14.5q29 -178 95 -307t171 -223q33 4 60.5 11t57 23.5t61.5 46t73 83.5q10 14 17 13t26 -9q-8 -31 -18.5 -59.5t-20.5 -59.5q-10 -45 -17.5 -96t-15.5 -99q-43 31 -85 43.5t-83 12.5 q-49 0 -83 -8.5t-63.5 -18.5t-62.5 -23.5t-82 -21.5q-45 59 -75.5 142t-52 173.5t-33 179.5t-17.5 160q-41 -4 -104.5 -18t-112.5 -33q-8 -78 -14 -161t-6 -160q0 -43 7 -79t19 -69t27.5 -65.5t32.5 -71.5q-98 4 -194.5 2t-195.5 -2z" />
<glyph unicode="&#xc7;" horiz-adv-x="837" d="M23 668q0 72 12 171t37.5 200.5t64.5 190.5t92 142q47 45 112 66.5t128 21.5q70 0 131.5 -24.5t107.5 -68.5t73.5 -103.5t27.5 -128.5q0 -61 -17.5 -122t-52 -109t-87 -78.5t-120.5 -30.5q-39 0 -74.5 14t-62 38.5t-43 58.5t-16.5 75q0 80 50 114.5t146 51.5 q-20 -16 -29 -49t-9 -56q0 -33 25.5 -51t55.5 -18q51 0 78 42t27 87q0 84 -59.5 129t-137.5 45q-102 0 -161.5 -60.5t-88 -148.5t-36 -186.5t-7.5 -173.5q0 -70 13.5 -149t46.5 -145.5t89 -110.5t144 -44q59 0 108.5 34t49.5 99q0 27 -9 44.5t-24.5 31.5t-33 26.5 t-31.5 28.5q33 12 67 13q49 0 88 -19.5t64.5 -52.5t40 -76t14.5 -88q0 -74 -34.5 -143.5t-94.5 -114.5q-14 -10 -42 -22.5t-60.5 -22.5t-62 -17.5t-46.5 -7.5q-90 0 -159.5 32t-120 85t-84 123t-54 147.5t-28.5 157.5t-8 152zM237 -480.5q6 13.5 39 27.5q27 8 53.5 34 t48 55.5t34 57t12.5 44.5q0 23 -30 38t-52 29q-16 6 -7 22.5t33 33.5l4 4q23 16 27 62t0 100h143q-8 -35 -20 -68t-27 -61q78 -4 115 -31t37 -70q0 -35 -23.5 -69.5t-59.5 -66.5t-78 -60.5t-80 -50t-65.5 -36t-31.5 -16.5q-18 -12 -38 -11t-30 10t-4 22.5z" />
<glyph unicode="&#xc8;" horiz-adv-x="886" d="M14 -37q8 43 34 79t38 77q31 104 43 213.5t16.5 221.5t2 222.5t-2.5 218.5q0 78 -6 132.5t-19.5 102.5t-31.5 98t-43 120q104 -16 217 -42t217 -26q39 0 78 9.5t74 21.5t61.5 21.5t42.5 9.5q18 -66 40 -129.5t52 -122.5q-80 -29 -161 -29q-68 0 -124.5 18.5t-99.5 40 t-71.5 40t-40.5 18.5q-4 0 -8.5 -2t-8.5 -2q16 -57 23.5 -119.5t9.5 -126t0 -127t-4 -121.5q49 66 100.5 104t110.5 38q12 0 36.5 -8.5t48.5 -20.5t41 -27.5t17 -29.5q0 -16 -10 -34t-20 -30q-29 -39 -45.5 -79t-38.5 -81q-8 20 -16.5 41t-19.5 38.5t-28.5 27.5t-44.5 10 q-33 0 -62.5 -19.5t-45.5 -47.5q-12 -27 -21.5 -98.5t-13.5 -153.5t-6 -159t-2 -112q57 20 102 51t93 57.5t107.5 46t145.5 19.5q53 0 96 -14q-10 -31 -24.5 -59.5t-24.5 -59.5q-16 -45 -24.5 -96t-18.5 -98q-55 31 -109.5 43t-107.5 12q-66 0 -134.5 -9t-138 -21.5 t-138 -26t-132.5 -21.5zM156 1632q0 4 17.5 25.5t40 44t42 39t19.5 12.5q4 -33 52 -83t107 -99q68 -58 156 -121q-53 -6 -123.5 4t-137.5 33.5t-116 59.5t-57 85z" />
<glyph unicode="&#xc9;" horiz-adv-x="886" d="M14 -37q8 43 34 79t38 77q31 104 43 213.5t16.5 221.5t2 222.5t-2.5 218.5q0 78 -6 132.5t-19.5 102.5t-31.5 98t-43 120q104 -16 217 -42t217 -26q39 0 78 9.5t74 21.5t61.5 21.5t42.5 9.5q18 -66 40 -129.5t52 -122.5q-80 -29 -161 -29q-68 0 -124.5 18.5t-99.5 40 t-71.5 40t-40.5 18.5q-4 0 -8.5 -2t-8.5 -2q16 -57 23.5 -119.5t9.5 -126t0 -127t-4 -121.5q49 66 100.5 104t110.5 38q12 0 36.5 -8.5t48.5 -20.5t41 -27.5t17 -29.5q0 -16 -10 -34t-20 -30q-29 -39 -45.5 -79t-38.5 -81q-8 20 -16.5 41t-19.5 38.5t-28.5 27.5t-44.5 10 q-33 0 -62.5 -19.5t-45.5 -47.5q-12 -27 -21.5 -98.5t-13.5 -153.5t-6 -159t-2 -112q57 20 102 51t93 57.5t107.5 46t145.5 19.5q53 0 96 -14q-10 -31 -24.5 -59.5t-24.5 -59.5q-16 -45 -24.5 -96t-18.5 -98q-55 31 -109.5 43t-107.5 12q-66 0 -134.5 -9t-138 -21.5 t-138 -26t-132.5 -21.5zM289 1460q86 63 153 121q59 49 108.5 99t53.5 83q0 4 19.5 -12.5t42 -39t40 -44t17.5 -25.5q-8 -49 -57.5 -85t-116 -59.5t-138 -33.5t-122.5 -4z" />
<glyph unicode="&#xca;" horiz-adv-x="886" d="M14 -37q8 43 34 79t38 77q31 104 43 213.5t16.5 221.5t2 222.5t-2.5 218.5q0 78 -6 132.5t-19.5 102.5t-31.5 98t-43 120q104 -16 217 -42t217 -26q39 0 78 9.5t74 21.5t61.5 21.5t42.5 9.5q18 -66 40 -129.5t52 -122.5q-80 -29 -161 -29q-68 0 -124.5 18.5t-99.5 40 t-71.5 40t-40.5 18.5q-4 0 -8.5 -2t-8.5 -2q16 -57 23.5 -119.5t9.5 -126t0 -127t-4 -121.5q49 66 100.5 104t110.5 38q12 0 36.5 -8.5t48.5 -20.5t41 -27.5t17 -29.5q0 -16 -10 -34t-20 -30q-29 -39 -45.5 -79t-38.5 -81q-8 20 -16.5 41t-19.5 38.5t-28.5 27.5t-44.5 10 q-33 0 -62.5 -19.5t-45.5 -47.5q-12 -27 -21.5 -98.5t-13.5 -153.5t-6 -159t-2 -112q57 20 102 51t93 57.5t107.5 46t145.5 19.5q53 0 96 -14q-10 -31 -24.5 -59.5t-24.5 -59.5q-16 -45 -24.5 -96t-18.5 -98q-55 31 -109.5 43t-107.5 12q-66 0 -134.5 -9t-138 -21.5 t-138 -26t-132.5 -21.5zM190 1481l260 258l264 -258l-272 66z" />
<glyph unicode="&#xcb;" horiz-adv-x="886" d="M14 -37q8 43 34 79t38 77q31 104 43 213.5t16.5 221.5t2 222.5t-2.5 218.5q0 78 -6 132.5t-19.5 102.5t-31.5 98t-43 120q104 -16 217 -42t217 -26q39 0 78 9.5t74 21.5t61.5 21.5t42.5 9.5q18 -66 40 -129.5t52 -122.5q-80 -29 -161 -29q-68 0 -124.5 18.5t-99.5 40 t-71.5 40t-40.5 18.5q-4 0 -8.5 -2t-8.5 -2q16 -57 23.5 -119.5t9.5 -126t0 -127t-4 -121.5q49 66 100.5 104t110.5 38q12 0 36.5 -8.5t48.5 -20.5t41 -27.5t17 -29.5q0 -16 -10 -34t-20 -30q-29 -39 -45.5 -79t-38.5 -81q-8 20 -16.5 41t-19.5 38.5t-28.5 27.5t-44.5 10 q-33 0 -62.5 -19.5t-45.5 -47.5q-12 -27 -21.5 -98.5t-13.5 -153.5t-6 -159t-2 -112q57 20 102 51t93 57.5t107.5 46t145.5 19.5q53 0 96 -14q-10 -31 -24.5 -59.5t-24.5 -59.5q-16 -45 -24.5 -96t-18.5 -98q-55 31 -109.5 43t-107.5 12q-66 0 -134.5 -9t-138 -21.5 t-138 -26t-132.5 -21.5zM232 1586q0 41 27.5 71.5t68.5 30.5q43 0 70.5 -28.5t27.5 -69.5q0 -47 -28.5 -76t-75.5 -29q-39 0 -64.5 32t-25.5 69zM459 1586q0 41 27.5 71.5t68.5 30.5q43 0 71 -28.5t28 -69.5q0 -47 -29 -76t-76 -29q-39 0 -64.5 32t-25.5 69z" />
<glyph unicode="&#xcc;" horiz-adv-x="430" d="M-37 1683q0 4 17.5 25.5t40 44t42 39t19.5 12.5q4 -33 52 -83t107 -99q68 -58 156 -121q-53 -6 -123.5 4t-137.5 33.5t-116 59.5t-57 85zM20 6q16 45 37 86t29 88q33 199 34 402.5t1 404.5q0 74 -7.5 128t-18.5 103.5t-25.5 100.5t-28.5 117l217 -9l150 9q0 -35 -24 -74 t-30 -74q-25 -137 -31 -278.5t-6 -280.5v-198t8.5 -168.5t28 -166.5t56.5 -190q-66 -6 -127 -6q-66 0 -131.5 3t-131.5 3z" />
<glyph unicode="&#xcd;" horiz-adv-x="430" d="M20 6q16 45 37 86t29 88q33 199 34 402.5t1 404.5q0 74 -7.5 128t-18.5 103.5t-25.5 100.5t-28.5 117l217 -9l150 9q0 -35 -24 -74t-30 -74q-25 -137 -31 -278.5t-6 -280.5v-198t8.5 -168.5t28 -166.5t56.5 -190q-66 -6 -127 -6q-66 0 -131.5 3t-131.5 3zM37 1516 q86 63 153 121q59 49 108.5 99t53.5 83q0 4 19.5 -12.5t42 -39t40 -44t17.5 -25.5q-8 -49 -57.5 -85t-116 -59.5t-138 -33.5t-122.5 -4z" />
<glyph unicode="&#xce;" horiz-adv-x="430" d="M-47 1481l260 258l264 -258l-272 66zM20 6q16 45 37 86t29 88q33 199 34 402.5t1 404.5q0 74 -7.5 128t-18.5 103.5t-25.5 100.5t-28.5 117l217 -9l150 9q0 -35 -24 -74t-30 -74q-25 -137 -31 -278.5t-6 -280.5v-198t8.5 -168.5t28 -166.5t56.5 -190q-66 -6 -127 -6 q-66 0 -131.5 3t-131.5 3z" />
<glyph unicode="&#xcf;" horiz-adv-x="430" d="M4 1586q0 41 27.5 71.5t68.5 30.5q43 0 70.5 -28.5t27.5 -69.5q0 -47 -28.5 -76t-75.5 -29q-39 0 -64.5 32t-25.5 69zM20 6q16 45 37 86t29 88q33 199 34 402.5t1 404.5q0 74 -7.5 128t-18.5 103.5t-25.5 100.5t-28.5 117l217 -9l150 9q0 -35 -24 -74t-30 -74 q-25 -137 -31 -278.5t-6 -280.5v-198t8.5 -168.5t28 -166.5t56.5 -190q-66 -6 -127 -6q-66 0 -131.5 3t-131.5 3zM231 1586q0 41 27.5 71.5t68.5 30.5q43 0 71 -28.5t28 -69.5q0 -47 -29 -76t-76 -29q-39 0 -64.5 32t-25.5 69z" />
<glyph unicode="&#xd0;" horiz-adv-x="952" d="M20 -6q25 41 59 82t50 84q12 31 22.5 79t16.5 106t10 122.5t8 130.5q-57 -8 -133 -37q-2 18 -3 37.5t-1 38.5q0 39 2 77t2 77q25 -10 47.5 -22.5t51.5 -16.5l38 -7q2 59 2.5 111.5t0.5 89.5q0 39 -12.5 81t-20.5 81q68 8 124 11t128 16v-27q0 -29 -10.5 -65.5 t-14.5 -65.5q-8 -59 -13 -116.5t-7 -117.5q16 0 35.5 1t43.5 1q41 0 61.5 2.5t36 6.5t34 10t55.5 14l-4 -129l4 -86q-20 0 -43 13.5t-41 17.5q-37 6 -42 9t-3 3h-45h-92q2 -59 16 -104t63 -113q-55 -31 -112.5 -59.5t-97.5 -79.5q29 -14 59.5 -17.5t60.5 -3.5q94 0 158 16.5 t106 54.5t66.5 99.5t40.5 151.5q10 55 17.5 111.5t7.5 113.5q0 63 -7.5 139t-34 141.5t-75.5 110.5t-133 45q-74 0 -145.5 -18t-147.5 -18q-45 0 -88 10t-84 26q27 61 56.5 115.5t51.5 120.5q35 -4 70 -12.5t70 -8.5q49 0 99 14.5t101 14.5q129 0 214 -50t136.5 -133 t73 -187.5t21.5 -213.5q0 -90 -1 -173t-10.5 -162.5t-31 -159.5t-62.5 -162q-14 -29 -25.5 -50.5t-24.5 -40t-31.5 -35.5t-45.5 -34q-59 -39 -130.5 -50t-141.5 -11h-406z" />
<glyph unicode="&#xd1;" horiz-adv-x="983" d="M20 1219q43 55 93.5 104t93.5 104q63 -18 110.5 -57t81 -91t57 -111.5t42.5 -116.5q41 -125 87 -246t99 -242h21q2 66 1 131.5t-1 130.5q0 55 4 110.5t4 108.5q0 66 -6.5 110t-16.5 81t-26.5 77t-34.5 95q43 2 85 3t85 1h82t82 -4q-16 -41 -35 -79t-29 -81 q-23 -102 -33 -209.5t-14 -217t-3 -218t1 -213.5q0 -59 14.5 -102t31.5 -74t31.5 -49.5t14.5 -24.5q-45 -33 -80 -76t-69 -83q-18 -6 -37 -7q-29 0 -47 21q-6 8 -34 74.5t-68 164t-85 212t-85 217t-69.5 181.5t-37.5 103h-27q-10 -117 -9 -232.5t1 -232.5q0 -92 8 -187 t33 -183q10 -35 31.5 -65t42.5 -60q-31 -4 -63 -6.5t-62 -2.5q-61 0 -122 4.5t-122 4.5q12 27 29.5 49t27.5 49q23 59 33 153.5t12 196t0 198.5t-2 165q0 47 4.5 96t4.5 96q0 49 -5.5 82t-18.5 57.5t-39 45t-67 45.5zM236 1579q0 66 27.5 109t81.5 43q35 0 66.5 -25.5 t59 -55.5t50 -53.5t41 -19.5t32 46t21.5 145l135 -156q-16 -25 -36.5 -50.5t-42 -48t-46 -36.5t-49.5 -14q-39 0 -67.5 25.5t-55.5 55t-54.5 55t-64.5 25.5q-49 0 -65.5 -36t-12.5 -95q-10 8 -15 39t-5 47z" />
<glyph unicode="&#xd2;" horiz-adv-x="872" d="M25 610q0 82 18 168t59 157t107.5 118t163.5 53q-63 -53 -100 -99t-55.5 -96.5t-23 -111t-4.5 -140.5q0 -63 10.5 -134.5t40 -132t80 -100.5t130.5 -40q82 0 130 49t72.5 121t31.5 152.5t7 142.5q0 86 -12 170t-48 150.5t-100.5 106.5t-166.5 40q-43 0 -80 -13.5t-73 -32 t-72 -36t-74 -23.5q39 82 52 148.5t37.5 111.5t79 70t171.5 25q143 0 232 -58.5t136 -153t63.5 -210t16.5 -232.5q0 -70 -4 -157.5t-18.5 -178t-41 -175.5t-73.5 -151.5t-116 -107.5t-165 -41q-133 0 -213 61.5t-125 157t-59 208t-14 214.5zM219 1608q0 4 17.5 25.5t40 44 t42 39t19.5 12.5q4 -33 52 -83t107 -99q68 -58 156 -121q-53 -6 -123.5 4t-137.5 33.5t-116 59.5t-57 85z" />
<glyph unicode="&#xd3;" horiz-adv-x="872" d="M25 610q0 82 18 168t59 157t107.5 118t163.5 53q-63 -53 -100 -99t-55.5 -96.5t-23 -111t-4.5 -140.5q0 -63 10.5 -134.5t40 -132t80 -100.5t130.5 -40q82 0 130 49t72.5 121t31.5 152.5t7 142.5q0 86 -12 170t-48 150.5t-100.5 106.5t-166.5 40q-43 0 -80 -13.5t-73 -32 t-72 -36t-74 -23.5q39 82 52 148.5t37.5 111.5t79 70t171.5 25q143 0 232 -58.5t136 -153t63.5 -210t16.5 -232.5q0 -70 -4 -157.5t-18.5 -178t-41 -175.5t-73.5 -151.5t-116 -107.5t-165 -41q-133 0 -213 61.5t-125 157t-59 208t-14 214.5zM209 1475q86 63 153 121 q59 49 108.5 99t53.5 83q0 4 19.5 -12.5t42 -39t40 -44t17.5 -25.5q-8 -49 -57.5 -85t-116 -59.5t-138 -33.5t-122.5 -4z" />
<glyph unicode="&#xd4;" horiz-adv-x="872" d="M25 610q0 82 18 168t59 157t107.5 118t163.5 53q-63 -53 -100 -99t-55.5 -96.5t-23 -111t-4.5 -140.5q0 -63 10.5 -134.5t40 -132t80 -100.5t130.5 -40q82 0 130 49t72.5 121t31.5 152.5t7 142.5q0 86 -12 170t-48 150.5t-100.5 106.5t-166.5 40q-43 0 -80 -13.5t-73 -32 t-72 -36t-74 -23.5q39 82 52 148.5t37.5 111.5t79 70t171.5 25q143 0 232 -58.5t136 -153t63.5 -210t16.5 -232.5q0 -70 -4 -157.5t-18.5 -178t-41 -175.5t-73.5 -151.5t-116 -107.5t-165 -41q-133 0 -213 61.5t-125 157t-59 208t-14 214.5zM182 1481l260 258l264 -258 l-272 66z" />
<glyph unicode="&#xd5;" horiz-adv-x="872" d="M25 610q0 82 18 168t59 157t107.5 118t163.5 53q-63 -53 -100 -99t-55.5 -96.5t-23 -111t-4.5 -140.5q0 -63 10.5 -134.5t40 -132t80 -100.5t130.5 -40q82 0 130 49t72.5 121t31.5 152.5t7 142.5q0 86 -12 170t-48 150.5t-100.5 106.5t-166.5 40q-43 0 -80 -13.5t-73 -32 t-72 -36t-74 -23.5q39 82 52 148.5t37.5 111.5t79 70t171.5 25q143 0 232 -58.5t136 -153t63.5 -210t16.5 -232.5q0 -70 -4 -157.5t-18.5 -178t-41 -175.5t-73.5 -151.5t-116 -107.5t-165 -41q-133 0 -213 61.5t-125 157t-59 208t-14 214.5zM180 1579q0 66 27.5 109t81.5 43 q35 0 66.5 -25.5t59 -55.5t50 -53.5t41 -19.5t32 46t21.5 145l135 -156q-16 -25 -36.5 -50.5t-42 -48t-46 -36.5t-49.5 -14q-39 0 -67.5 25.5t-55.5 55t-54.5 55t-64.5 25.5q-49 0 -65.5 -36t-12.5 -95q-10 8 -15 39t-5 47z" />
<glyph unicode="&#xd6;" horiz-adv-x="872" d="M25 610q0 82 18 168t59 157t107.5 118t163.5 53q-63 -53 -100 -99t-55.5 -96.5t-23 -111t-4.5 -140.5q0 -63 10.5 -134.5t40 -132t80 -100.5t130.5 -40q82 0 130 49t72.5 121t31.5 152.5t7 142.5q0 86 -12 170t-48 150.5t-100.5 106.5t-166.5 40q-43 0 -80 -13.5t-73 -32 t-72 -36t-74 -23.5q39 82 52 148.5t37.5 111.5t79 70t171.5 25q143 0 232 -58.5t136 -153t63.5 -210t16.5 -232.5q0 -70 -4 -157.5t-18.5 -178t-41 -175.5t-73.5 -151.5t-116 -107.5t-165 -41q-133 0 -213 61.5t-125 157t-59 208t-14 214.5zM225 1586q0 41 27.5 71.5 t68.5 30.5q43 0 70.5 -28.5t27.5 -69.5q0 -47 -28.5 -76t-75.5 -29q-39 0 -64.5 32t-25.5 69zM452 1586q0 41 27.5 71.5t68.5 30.5q43 0 71 -28.5t28 -69.5q0 -47 -29 -76t-76 -29q-39 0 -64.5 32t-25.5 69z" />
<glyph unicode="&#xd7;" horiz-adv-x="798" d="M37 494l90 16q39 31 74 65.5t69 69.5q-18 18 -46.5 46t-60.5 53.5t-63.5 45t-58.5 23.5q49 53 98 103.5t103 97.5l16 -90q31 -41 67.5 -78t73.5 -74q45 49 70 71.5t40 42t26.5 45t27.5 79.5q51 -49 100.5 -99.5t98.5 -101.5q-37 -14 -66.5 -19.5t-60.5 -35.5l-109 -111 q29 -29 59.5 -54.5t59.5 -53.5q29 -27 53.5 -32t59.5 -16q-49 -51 -99.5 -100t-101.5 -98q-14 37 -19.5 67.5t-35.5 59.5l-103 100q-18 -18 -44.5 -46t-51 -58.5t-44 -62.5t-21.5 -56q-53 49 -103.5 98.5t-97.5 102.5z" />
<glyph unicode="&#xd8;" horiz-adv-x="872" d="M20 590q0 82 18.5 168t59.5 156.5t107.5 117.5t163.5 53q-63 -53 -100.5 -99t-55.5 -96t-22.5 -110.5t-4.5 -140.5q0 -53 7.5 -109.5t23.5 -109.5q78 174 169 348t183 324q-37 35 -88 53t-121 18q-43 0 -79.5 -13t-72.5 -31.5t-72 -36t-75 -23.5q39 82 52.5 148.5 t38 111.5t79 69.5t170.5 24.5q104 0 178 -31.5t126 -85.5q10 14 19 27.5t19 26.5q29 37 42.5 54t31.5 -9l-4 -19q-12 -10 -31.5 -40.5t-46.5 -78.5q72 -98 93.5 -230t21.5 -267q0 -70 -4 -158t-18.5 -178t-41 -175t-73.5 -151.5t-116 -107.5t-165 -41q-70 0 -125 18.5 t-96 48.5q-8 -31 -8 -51q0 -6 -21.5 -20.5t-50.5 -29.5t-56.5 -28.5t-39.5 -15.5l-8 23q14 57 33.5 119.5t43.5 129.5q-51 98 -67.5 217t-16.5 230zM301 283q57 -52 145 -52q82 0 130.5 49.5t73 121t31.5 152.5t7 142q0 92 -13 178.5t-54 153.5q-41 -86 -84 -182t-84 -193.5 t-80 -191.5t-72 -178z" />
<glyph unicode="&#xd9;" horiz-adv-x="993" d="M25 1436q63 6 127 6q66 0 131 -3t131 -3q-12 -29 -28.5 -56.5t-29.5 -56.5q-14 -33 -23 -93.5t-15.5 -136t-10.5 -158.5t-5 -162t-2 -144.5t-1 -106.5q0 -53 9 -101t33 -85t64.5 -59.5t102.5 -22.5q35 0 66.5 11t56.5 36q20 20 34.5 70.5t23.5 116t14.5 140t7.5 144.5 t3 128t1 91q0 74 -5 117t-17.5 76t-35 68t-57.5 94q96 27 191.5 50t185.5 66q-4 -16 -7 -30.5t-14 -30.5q-41 -78 -59 -169t-23 -179q-6 -156 -10 -310.5t-10 -310.5q-4 -96 -20.5 -176t-56.5 -137.5t-109.5 -89t-180.5 -31.5q-104 0 -172.5 27.5t-111.5 74.5t-64.5 110.5 t-30 136.5t-8.5 149.5v152.5q0 104 7.5 206.5t7.5 207.5q0 61 -4.5 106t-14.5 86t-27.5 83t-43.5 98zM281 1608q0 4 17.5 25.5t40 44t42 39t19.5 12.5q4 -33 52 -83t107 -99q68 -58 156 -121q-53 -6 -123.5 4t-137.5 33.5t-116 59.5t-57 85z" />
<glyph unicode="&#xda;" horiz-adv-x="993" d="M25 1436q63 6 127 6q66 0 131 -3t131 -3q-12 -29 -28.5 -56.5t-29.5 -56.5q-14 -33 -23 -93.5t-15.5 -136t-10.5 -158.5t-5 -162t-2 -144.5t-1 -106.5q0 -53 9 -101t33 -85t64.5 -59.5t102.5 -22.5q35 0 66.5 11t56.5 36q20 20 34.5 70.5t23.5 116t14.5 140t7.5 144.5 t3 128t1 91q0 74 -5 117t-17.5 76t-35 68t-57.5 94q96 27 191.5 50t185.5 66q-4 -16 -7 -30.5t-14 -30.5q-41 -78 -59 -169t-23 -179q-6 -156 -10 -310.5t-10 -310.5q-4 -96 -20.5 -176t-56.5 -137.5t-109.5 -89t-180.5 -31.5q-104 0 -172.5 27.5t-111.5 74.5t-64.5 110.5 t-30 136.5t-8.5 149.5v152.5q0 104 7.5 206.5t7.5 207.5q0 61 -4.5 106t-14.5 86t-27.5 83t-43.5 98zM461 1485q86 63 153 121q59 49 108.5 99t53.5 83q0 4 19.5 -12.5t42 -39t40 -44t17.5 -25.5q-8 -49 -57.5 -85t-116 -59.5t-138 -33.5t-122.5 -4z" />
<glyph unicode="&#xdb;" horiz-adv-x="993" d="M25 1436q63 6 127 6q66 0 131 -3t131 -3q-12 -29 -28.5 -56.5t-29.5 -56.5q-14 -33 -23 -93.5t-15.5 -136t-10.5 -158.5t-5 -162t-2 -144.5t-1 -106.5q0 -53 9 -101t33 -85t64.5 -59.5t102.5 -22.5q35 0 66.5 11t56.5 36q20 20 34.5 70.5t23.5 116t14.5 140t7.5 144.5 t3 128t1 91q0 74 -5 117t-17.5 76t-35 68t-57.5 94q96 27 191.5 50t185.5 66q-4 -16 -7 -30.5t-14 -30.5q-41 -78 -59 -169t-23 -179q-6 -156 -10 -310.5t-10 -310.5q-4 -96 -20.5 -176t-56.5 -137.5t-109.5 -89t-180.5 -31.5q-104 0 -172.5 27.5t-111.5 74.5t-64.5 110.5 t-30 136.5t-8.5 149.5v152.5q0 104 7.5 206.5t7.5 207.5q0 61 -4.5 106t-14.5 86t-27.5 83t-43.5 98zM244 1481l260 258l264 -258l-272 66z" />
<glyph unicode="&#xdc;" horiz-adv-x="993" d="M25 1436q63 6 127 6q66 0 131 -3t131 -3q-12 -29 -28.5 -56.5t-29.5 -56.5q-14 -33 -23 -93.5t-15.5 -136t-10.5 -158.5t-5 -162t-2 -144.5t-1 -106.5q0 -53 9 -101t33 -85t64.5 -59.5t102.5 -22.5q35 0 66.5 11t56.5 36q20 20 34.5 70.5t23.5 116t14.5 140t7.5 144.5 t3 128t1 91q0 74 -5 117t-17.5 76t-35 68t-57.5 94q96 27 191.5 50t185.5 66q-4 -16 -7 -30.5t-14 -30.5q-41 -78 -59 -169t-23 -179q-6 -156 -10 -310.5t-10 -310.5q-4 -96 -20.5 -176t-56.5 -137.5t-109.5 -89t-180.5 -31.5q-104 0 -172.5 27.5t-111.5 74.5t-64.5 110.5 t-30 136.5t-8.5 149.5v152.5q0 104 7.5 206.5t7.5 207.5q0 61 -4.5 106t-14.5 86t-27.5 83t-43.5 98zM285 1586q0 41 27.5 71.5t68.5 30.5q43 0 70.5 -28.5t27.5 -69.5q0 -47 -28.5 -76t-75.5 -29q-39 0 -64.5 32t-25.5 69zM512 1586q0 41 27.5 71.5t68.5 30.5 q43 0 71 -28.5t28 -69.5q0 -47 -29 -76t-76 -29q-39 0 -64.5 32t-25.5 69z" />
<glyph unicode="&#xdd;" horiz-adv-x="1044" d="M20 1421q104 6 207 7.5t207 1.5q-18 -41 -31.5 -83t-13.5 -85q0 -37 21.5 -102.5t51.5 -137.5t60.5 -137.5t46.5 -102.5q72 168 94.5 329t26.5 319q31 -4 75 -19.5t92 -34t92 -38t75 -31.5q-61 -51 -128 -158t-122 -230.5t-91 -243.5t-36 -200q0 -90 5 -145.5 t16.5 -102.5t31 -97t48.5 -130q-96 0 -191.5 3t-191.5 -3q16 55 37.5 103.5t27.5 107.5q6 72 11 144.5t5 144.5q0 33 -19 95t-49 140t-68 163t-74.5 162t-69.5 137t-53 91q-23 35 -48 65.5t-45 67.5zM398 1473q86 63 153 121q59 49 108.5 99t53.5 83q0 4 19.5 -12.5t42 -39 t40 -44t17.5 -25.5q-8 -49 -57.5 -85t-116 -59.5t-138 -33.5t-122.5 -4z" />
<glyph unicode="&#xde;" horiz-adv-x="935" d="M20 6q16 45 37 86t29 88q33 199 34 402.5t1 404.5q0 74 -7.5 128t-18.5 103.5t-25.5 100.5t-28.5 117l217 -9l150 9q0 -35 -24 -74t-30 -74q-18 -96 -24 -190q0 -31 10 -30t31.5 13.5t52.5 28.5t74 16q98 0 170.5 -35.5t122 -97t74 -142.5t24.5 -171q0 -80 -20.5 -158 t-62.5 -139t-107.5 -99t-155.5 -38q-88 0 -136.5 60.5t-48.5 142.5q0 29 8.5 60.5t26 59t44 46t65.5 18.5q70 2 104.5 -47t5.5 -137q-18 35 -38.5 47t-55.5 12q-29 0 -49 -23.5t-20 -52.5q0 -43 29.5 -66.5t70.5 -23.5q53 0 87 28.5t52.5 69.5t25.5 89.5t7 88.5 q0 51 -11.5 98.5t-36 82.5t-65.5 56.5t-98 21.5q-76 0 -128 -41t-65 -109v-198t8.5 -167.5t28 -165.5t56.5 -190q-66 -6 -127 -6q-66 0 -131.5 3t-131.5 3z" />
<glyph unicode="&#xdf;" horiz-adv-x="743" d="M20 14q16 37 38 75t28 79q10 76 11 154.5t-1 157.5t-3 158t3 157q-8 4 -20.5 7t-24.5 8t-20 13t-8 21q0 16 10 23t22.5 12.5t22.5 13.5t12 27q4 35 3 66.5t-1 66.5q0 51 16.5 99t49 87t81 62.5t109.5 23.5q35 0 77 -12.5t80 -41t63.5 -74.5t29.5 -114q0 -29 -8 -78 t-41 -87q57 -16 91 -69.5t50.5 -122.5t21.5 -143.5t5 -136.5q0 -74 -6 -153.5t-30 -146t-69 -109.5t-120 -43q-37 0 -73 15.5t-63.5 43t-45 67.5t-17.5 91q0 31 8 62.5t23.5 57t37 42t50.5 18.5q-6 -16 -21.5 -46t-15.5 -46q0 -39 20.5 -67.5t46.5 -28.5q10 0 15 2 q31 -6 50 16.5t30.5 58t16.5 75.5t5 71q0 39 -2 91t-12 99.5t-31.5 81t-58.5 33.5q-20 0 -36 -9t-29 -24.5t-26.5 -34t-27.5 -36.5v37q0 57 2 113.5t0 113.5q61 -8 92 33t35 93t-18.5 97t-69.5 45q-45 0 -83 -34.5t-38 -104.5v-155.5t-1 -155.5t-1 -179.5v-222.5 q0 -49 2 -84t8 -65.5t19.5 -62.5t35.5 -75q-16 -10 -34.5 -13t-38.5 -3q-51 0 -113.5 -2t-112.5 12z" />
<glyph unicode="&#xe0;" d="M20 223q0 100 39 149.5t95.5 76t118 46t108.5 60.5q10 27 10 49q0 102 -104 103q-27 0 -53.5 -11.5t-26.5 -44.5q0 -16 6 -30.5t10 -30.5h-39q-59 0 -95 32.5t-36 96.5q0 53 23.5 89t60.5 57.5t82 30.5t90 9q92 0 141.5 -30.5t71 -82t24.5 -118t3 -135.5q0 -53 1 -129 t9 -154t26.5 -148.5t51.5 -111.5q-72 2 -125 3t-104 5q-6 23 -8.5 45.5t-6.5 44.5q-29 -25 -46 -44t-36.5 -33.5t-45 -21.5t-68.5 -7q-51 0 -85 20.5t-54.5 54t-29 75.5t-8.5 85zM105 1198q0 4 17.5 25.5t40 44t42 39t19.5 12.5q4 -33 52 -83t107 -99q68 -58 156 -121 q-53 -6 -123.5 4t-137.5 33.5t-116 59.5t-57 85zM205 258q0 -33 16.5 -53.5t50.5 -20.5q33 0 56.5 15.5t38 39t20.5 52t6 57.5q0 49 -8 88q-31 -6 -63.5 -21.5t-58 -39t-42 -53t-16.5 -64.5z" />
<glyph unicode="&#xe1;" d="M20 223q0 100 39 149.5t95.5 76t118 46t108.5 60.5q10 27 10 49q0 102 -104 103q-27 0 -53.5 -11.5t-26.5 -44.5q0 -16 6 -30.5t10 -30.5h-39q-59 0 -95 32.5t-36 96.5q0 53 23.5 89t60.5 57.5t82 30.5t90 9q92 0 141.5 -30.5t71 -82t24.5 -118t3 -135.5q0 -53 1 -129 t9 -154t26.5 -148.5t51.5 -111.5q-72 2 -125 3t-104 5q-6 23 -8.5 45.5t-6.5 44.5q-29 -25 -46 -44t-36.5 -33.5t-45 -21.5t-68.5 -7q-51 0 -85 20.5t-54.5 54t-29 75.5t-8.5 85zM105 1016q86 63 153 121q59 49 108.5 99t53.5 83q0 4 19.5 -12.5t42 -39t40 -44t17.5 -25.5 q-8 -49 -57.5 -85t-116 -59.5t-138 -33.5t-122.5 -4zM205 258q0 -33 16.5 -53.5t50.5 -20.5q33 0 56.5 15.5t38 39t20.5 52t6 57.5q0 49 -8 88q-31 -6 -63.5 -21.5t-58 -39t-42 -53t-16.5 -64.5z" />
<glyph unicode="&#xe2;" d="M20 223q0 100 39 149.5t95.5 76t118 46t108.5 60.5q10 27 10 49q0 102 -104 103q-27 0 -53.5 -11.5t-26.5 -44.5q0 -16 6 -30.5t10 -30.5h-39q-59 0 -95 32.5t-36 96.5q0 53 23.5 89t60.5 57.5t82 30.5t90 9q92 0 141.5 -30.5t71 -82t24.5 -118t3 -135.5q0 -53 1 -129 t9 -154t26.5 -148.5t51.5 -111.5q-72 2 -125 3t-104 5q-6 23 -8.5 45.5t-6.5 44.5q-29 -25 -46 -44t-36.5 -33.5t-45 -21.5t-68.5 -7q-51 0 -85 20.5t-54.5 54t-29 75.5t-8.5 85zM45 1008l260 258l264 -258l-272 66zM205 258q0 -33 16.5 -53.5t50.5 -20.5q33 0 56.5 15.5 t38 39t20.5 52t6 57.5q0 49 -8 88q-31 -6 -63.5 -21.5t-58 -39t-42 -53t-16.5 -64.5z" />
<glyph unicode="&#xe3;" d="M20 223q0 100 39 149.5t95.5 76t118 46t108.5 60.5q10 27 10 49q0 102 -104 103q-27 0 -53.5 -11.5t-26.5 -44.5q0 -16 6 -30.5t10 -30.5h-39q-59 0 -95 32.5t-36 96.5q0 53 23.5 89t60.5 57.5t82 30.5t90 9q92 0 141.5 -30.5t71 -82t24.5 -118t3 -135.5q0 -53 1 -129 t9 -154t26.5 -148.5t51.5 -111.5q-72 2 -125 3t-104 5q-6 23 -8.5 45.5t-6.5 44.5q-29 -25 -46 -44t-36.5 -33.5t-45 -21.5t-68.5 -7q-51 0 -85 20.5t-54.5 54t-29 75.5t-8.5 85zM66 1169q0 66 27.5 109t81.5 43q35 0 66.5 -25.5t59 -55.5t50 -53.5t41 -19.5t32 46t21.5 145 l135 -156q-16 -25 -36.5 -50.5t-42 -48t-46 -36.5t-49.5 -14q-39 0 -67.5 25.5t-55.5 55t-54.5 55t-64.5 25.5q-49 0 -65.5 -36t-12.5 -95q-10 8 -15 39t-5 47zM205 258q0 -33 16.5 -53.5t50.5 -20.5q33 0 56.5 15.5t38 39t20.5 52t6 57.5q0 49 -8 88q-31 -6 -63.5 -21.5 t-58 -39t-42 -53t-16.5 -64.5z" />
<glyph unicode="&#xe4;" d="M20 223q0 100 39 149.5t95.5 76t118 46t108.5 60.5q10 27 10 49q0 102 -104 103q-27 0 -53.5 -11.5t-26.5 -44.5q0 -16 6 -30.5t10 -30.5h-39q-59 0 -95 32.5t-36 96.5q0 53 23.5 89t60.5 57.5t82 30.5t90 9q92 0 141.5 -30.5t71 -82t24.5 -118t3 -135.5q0 -53 1 -129 t9 -154t26.5 -148.5t51.5 -111.5q-72 2 -125 3t-104 5q-6 23 -8.5 45.5t-6.5 44.5q-29 -25 -46 -44t-36.5 -33.5t-45 -21.5t-68.5 -7q-51 0 -85 20.5t-54.5 54t-29 75.5t-8.5 85zM111 1176q0 41 27.5 71.5t68.5 30.5q43 0 70.5 -28.5t27.5 -69.5q0 -47 -28.5 -76t-75.5 -29 q-39 0 -64.5 32t-25.5 69zM205 258q0 -33 16.5 -53.5t50.5 -20.5q33 0 56.5 15.5t38 39t20.5 52t6 57.5q0 49 -8 88q-31 -6 -63.5 -21.5t-58 -39t-42 -53t-16.5 -64.5zM338 1176q0 41 27.5 71.5t68.5 30.5q43 0 71 -28.5t28 -69.5q0 -47 -29 -76t-76 -29q-39 0 -64.5 32 t-25.5 69z" />
<glyph unicode="&#xe5;" d="M20 223q0 100 39 149.5t95.5 76t118 46t108.5 60.5q10 27 10 49q0 102 -104 103q-27 0 -53.5 -11.5t-26.5 -44.5q0 -16 6 -30.5t10 -30.5h-39q-59 0 -95 32.5t-36 96.5q0 53 23.5 89t60.5 57.5t82 30.5t90 9q92 0 141.5 -30.5t71 -82t24.5 -118t3 -135.5q0 -53 1 -129 t9 -154t26.5 -148.5t51.5 -111.5q-72 2 -125 3t-104 5q-6 23 -8.5 45.5t-6.5 44.5q-29 -25 -46 -44t-36.5 -33.5t-45 -21.5t-68.5 -7q-51 0 -85 20.5t-54.5 54t-29 75.5t-8.5 85zM193 1113q0 37 9 69.5t25.5 58t39 43t49.5 21.5t50 -6t40.5 -31.5t27 -51.5t9.5 -67 t-8.5 -69.5t-24.5 -59t-39 -44t-47 -19.5q-27 -4 -50.5 6t-42 31.5t-28.5 51.5t-10 67zM205 258q0 -33 16.5 -53.5t50.5 -20.5q33 0 56.5 15.5t38 39t20.5 52t6 57.5q0 49 -8 88q-31 -6 -63.5 -21.5t-58 -39t-42 -53t-16.5 -64.5zM252 1084q2 -39 20.5 -63.5t47.5 -20.5 q27 4 44 33.5t15 70.5q0 39 -17.5 62.5t-45.5 19.5q-29 -4 -47.5 -33.5t-16.5 -68.5z" />
<glyph unicode="&#xe6;" horiz-adv-x="956" d="M20 223q0 100 39 149.5t95.5 76t118 46t108.5 60.5q10 27 10 49q0 102 -104 103q-27 0 -53.5 -11.5t-26.5 -44.5q0 -16 6 -30.5t10 -30.5h-39q-59 0 -95 32.5t-36 96.5q0 53 23.5 89t60.5 57.5t82 30.5t90 9q72 0 116 -19.5t69 -51.5q29 35 73.5 56t110.5 21t113 -21.5 t76.5 -60t44 -90t14.5 -110.5q0 -53 -11.5 -100.5t-38 -82t-67.5 -56t-98 -21.5q-45 0 -76 15t-70 34q-4 -12 -6 -25.5t-2 -25.5q0 -33 12.5 -65t34 -56.5t50 -40t63.5 -15.5q43 0 61.5 13.5t24.5 34t8 46t10 50.5q47 -16 76 -53t29 -88q0 -49 -22.5 -87t-57.5 -65t-79 -40 t-89 -13q-86 0 -137.5 40t-79.5 99q-43 -63 -108.5 -101t-155.5 -38q-51 0 -85 20.5t-54.5 54t-29 75.5t-8.5 85zM205 258q0 -33 16.5 -53.5t50.5 -20.5q33 0 56.5 15.5t38 39t20.5 52t6 57.5q0 49 -8 88q-31 -6 -63.5 -21.5t-58 -39t-42 -53t-16.5 -64.5zM559 600 q0 -51 36 -86t87 -35q45 0 72.5 37t27.5 78q0 51 -31.5 85t-84.5 34q-41 0 -74 -37t-33 -76z" />
<glyph unicode="&#xe7;" horiz-adv-x="571" d="M23 444q0 68 7 151t33.5 156.5t80 123t145.5 49.5q53 0 102 -14.5t103 -18.5q-2 -57 1 -113.5t3 -113.5v-31q-41 37 -78 71.5t-96 34.5q-55 0 -85 -33.5t-45.5 -82t-18.5 -102.5t-3 -93q0 -31 7 -73t24.5 -76.5t46.5 -58t72 -17.5q6 -2 20 -2q39 0 69.5 28.5t30.5 69.5 q0 16 -15 45t-24 45q33 -2 61 -18.5t47 -42t29.5 -57t10.5 -62.5q0 -51 -21.5 -91t-56.5 -67.5t-79 -43t-91 -15.5q-96 0 -151.5 43t-84 109.5t-36.5 146.5t-8 153zM104 -480.5q6 13.5 39 27.5q27 8 53.5 34t48 55.5t34 57t12.5 44.5q0 23 -30 38t-52 29q-16 6 -7 22.5 t33 33.5l4 4q23 16 27 62t0 100h143q-8 -35 -20 -68t-27 -61q78 -4 115 -31t37 -70q0 -35 -23.5 -69.5t-59.5 -66.5t-78 -60.5t-80 -50t-65.5 -36t-31.5 -16.5q-18 -12 -38 -11t-30 10t-4 22.5z" />
<glyph unicode="&#xe8;" horiz-adv-x="561" d="M20 453q0 72 7.5 152.5t34 148t81 112.5t150.5 45q66 0 113 -21.5t76.5 -60t44 -90t14.5 -110.5q0 -53 -11.5 -100.5t-38 -82t-67.5 -56t-98 -21.5q-45 0 -76 15t-70 34q-4 -12 -6 -25.5t-2 -25.5q0 -33 12.5 -65t34 -56.5t50 -40t63.5 -15.5q43 0 61.5 13.5t24.5 34 t8 46t10 50.5q47 -16 76 -53t29 -88q0 -49 -22.5 -87t-57.5 -65t-79 -40t-89 -13q-92 0 -146.5 47t-82 116.5t-36 151.5t-8.5 150zM66 1198q0 4 17.5 25.5t40 44t42 39t19.5 12.5q4 -33 52 -83t107 -99q68 -58 156 -121q-53 -6 -123.5 4t-137.5 33.5t-116 59.5t-57 85z M174 600q0 -51 36 -86t87 -35q45 0 72.5 37t27.5 78q0 51 -31.5 85t-84.5 34q-41 0 -74 -37t-33 -76z" />
<glyph unicode="&#xe9;" horiz-adv-x="561" d="M20 453q0 72 7.5 152.5t34 148t81 112.5t150.5 45q66 0 113 -21.5t76.5 -60t44 -90t14.5 -110.5q0 -53 -11.5 -100.5t-38 -82t-67.5 -56t-98 -21.5q-45 0 -76 15t-70 34q-4 -12 -6 -25.5t-2 -25.5q0 -33 12.5 -65t34 -56.5t50 -40t63.5 -15.5q43 0 61.5 13.5t24.5 34 t8 46t10 50.5q47 -16 76 -53t29 -88q0 -49 -22.5 -87t-57.5 -65t-79 -40t-89 -13q-92 0 -146.5 47t-82 116.5t-36 151.5t-8.5 150zM64 1016q86 63 153 121q59 49 108.5 99t53.5 83q0 4 19.5 -12.5t42 -39t40 -44t17.5 -25.5q-8 -49 -57.5 -85t-116 -59.5t-138 -33.5 t-122.5 -4zM174 600q0 -51 36 -86t87 -35q45 0 72.5 37t27.5 78q0 51 -31.5 85t-84.5 34q-41 0 -74 -37t-33 -76z" />
<glyph unicode="&#xea;" horiz-adv-x="561" d="M20 453q0 72 7.5 152.5t34 148t81 112.5t150.5 45q66 0 113 -21.5t76.5 -60t44 -90t14.5 -110.5q0 -53 -11.5 -100.5t-38 -82t-67.5 -56t-98 -21.5q-45 0 -76 15t-70 34q-4 -12 -6 -25.5t-2 -25.5q0 -33 12.5 -65t34 -56.5t50 -40t63.5 -15.5q43 0 61.5 13.5t24.5 34 t8 46t10 50.5q47 -16 76 -53t29 -88q0 -49 -22.5 -87t-57.5 -65t-79 -40t-89 -13q-92 0 -146.5 47t-82 116.5t-36 151.5t-8.5 150zM45 1010l260 258l264 -258l-272 66zM174 600q0 -51 36 -86t87 -35q45 0 72.5 37t27.5 78q0 51 -31.5 85t-84.5 34q-41 0 -74 -37t-33 -76z " />
<glyph unicode="&#xeb;" horiz-adv-x="561" d="M20 453q0 72 7.5 152.5t34 148t81 112.5t150.5 45q66 0 113 -21.5t76.5 -60t44 -90t14.5 -110.5q0 -53 -11.5 -100.5t-38 -82t-67.5 -56t-98 -21.5q-45 0 -76 15t-70 34q-4 -12 -6 -25.5t-2 -25.5q0 -33 12.5 -65t34 -56.5t50 -40t63.5 -15.5q43 0 61.5 13.5t24.5 34 t8 46t10 50.5q47 -16 76 -53t29 -88q0 -49 -22.5 -87t-57.5 -65t-79 -40t-89 -13q-92 0 -146.5 47t-82 116.5t-36 151.5t-8.5 150zM70 1176q0 41 27.5 71.5t68.5 30.5q43 0 70.5 -28.5t27.5 -69.5q0 -47 -28.5 -76t-75.5 -29q-39 0 -64.5 32t-25.5 69zM174 600q0 -51 36 -86 t87 -35q45 0 72.5 37t27.5 78q0 51 -31.5 85t-84.5 34q-41 0 -74 -37t-33 -76zM297 1176q0 41 27.5 71.5t68.5 30.5q43 0 71 -28.5t28 -69.5q0 -47 -29 -76t-76 -29q-39 0 -64.5 32t-25.5 69z" />
<glyph unicode="&#xec;" horiz-adv-x="333" d="M-49 1198q0 4 17.5 25.5t40 44t42 39t19.5 12.5q4 -33 52 -83t107 -99q68 -58 156 -121q-53 -6 -123.5 4t-137.5 33.5t-116 59.5t-57 85zM20 6q16 35 34 66.5t24 72.5q16 104 19 209t3 211q0 51 -24.5 95.5t-42.5 91.5q23 10 43 20t41 23q35 20 63.5 52.5t81.5 65.5 l2 -43q-4 -162 -8 -323.5t-4 -323.5q0 -59 22.5 -111.5t38.5 -105.5q-37 -2 -73.5 -3t-73.5 -1q-35 0 -72 1t-74 3z" />
<glyph unicode="&#xed;" horiz-adv-x="333" d="M-51 1016q86 63 153 121q59 49 108.5 99t53.5 83q0 4 19.5 -12.5t42 -39t40 -44t17.5 -25.5q-8 -49 -57.5 -85t-116 -59.5t-138 -33.5t-122.5 -4zM20 6q16 35 34 66.5t24 72.5q16 104 19 209t3 211q0 51 -24.5 95.5t-42.5 91.5q23 10 43 20t41 23q35 20 63.5 52.5 t81.5 65.5l2 -43q-4 -162 -8 -323.5t-4 -323.5q0 -59 22.5 -111.5t38.5 -105.5q-37 -2 -73.5 -3t-73.5 -1q-35 0 -72 1t-74 3z" />
<glyph unicode="&#xee;" horiz-adv-x="333" d="M-94 1071l260 258l264 -258l-272 66zM20 6q16 35 34 66.5t24 72.5q16 104 19 209t3 211q0 51 -24.5 95.5t-42.5 91.5q23 10 43 20t41 23q35 20 63.5 52.5t81.5 65.5l2 -43q-4 -162 -8 -323.5t-4 -323.5q0 -59 22.5 -111.5t38.5 -105.5q-37 -2 -73.5 -3t-73.5 -1 q-35 0 -72 1t-74 3z" />
<glyph unicode="&#xef;" horiz-adv-x="333" d="M-43 1176q0 41 27.5 71.5t68.5 30.5q43 0 70.5 -28.5t27.5 -69.5q0 -47 -28.5 -76t-75.5 -29q-39 0 -64.5 32t-25.5 69zM20 6q16 35 34 66.5t24 72.5q16 104 19 209t3 211q0 51 -24.5 95.5t-42.5 91.5q23 10 43 20t41 23q35 20 63.5 52.5t81.5 65.5l2 -43 q-4 -162 -8 -323.5t-4 -323.5q0 -59 22.5 -111.5t38.5 -105.5q-37 -2 -73.5 -3t-73.5 -1q-35 0 -72 1t-74 3zM184 1176q0 41 27.5 71.5t68.5 30.5q43 0 71 -28.5t28 -69.5q0 -47 -29 -76t-76 -29q-39 0 -64.5 32t-25.5 69z" />
<glyph unicode="&#xf0;" horiz-adv-x="630" d="M23 408q0 53 8 122.5t32.5 131t69.5 103.5t119 42q43 0 70.5 -6t48 -19.5t35 -34t30.5 -51.5l2 47q0 37 -22.5 96.5t-57.5 116.5q-29 -25 -55 -47q-39 -35 -53 -61q-12 16 -25.5 33.5t-25.5 33.5q-10 16 -22.5 35t-24.5 35l71 12q37 23 72 47q-25 29 -47.5 45.5 t-42.5 16.5q-23 0 -42.5 -8t-19.5 -33q0 -10 2 -19.5t0 -19.5q-43 -6 -67.5 25.5t-24.5 64.5q0 53 43 85t97 32q51 0 104 -29.5t102 -79.5q8 6 23 17q23 16 36 36.5t27 43.5l99 -136q-27 -8 -55.5 -15t-53.5 -26l-6 -4q61 -86 101 -188t40 -193q0 -61 -4 -123.5t-4 -123.5 q0 -74 -8 -161t-37 -163t-86 -126t-156 -50q-104 0 -162.5 48t-88 122t-35.5 161t-6 165zM176 383q0 -31 3 -73t15.5 -78.5t36 -62.5t66.5 -26q41 0 69.5 20.5t46 52.5t24.5 69.5t7 72.5q0 29 -6 73t-21.5 86t-41 73t-64.5 31q-45 0 -71.5 -25t-41 -61.5t-18.5 -77.5t-4 -74 z" />
<glyph unicode="&#xf1;" horiz-adv-x="702" d="M20 6q23 35 42.5 64.5t23.5 74.5q8 86 12 168t4 168v86t-6 55.5t-18 52t-37 77.5q14 8 47 28.5t69 41t67.5 36.5t41.5 19q4 -29 5 -55.5t5 -55.5q18 23 37 44t38.5 37.5t44 27t57.5 10.5q53 0 98 -33t61 -86q10 -33 13.5 -99.5t3.5 -140t-2 -143.5t-2 -109 q0 -70 12 -142.5t49 -131.5q-27 -10 -50.5 -10h-43.5q-49 0 -97.5 3t-97.5 7q16 39 31.5 70.5t20.5 74.5q10 100 9 217t-1 218q0 18 -4 40.5t-14.5 42t-26 32t-39.5 12.5q-49 0 -73 -50.5t-33 -116t-8 -133t1 -100.5q0 -49 2 -86t8 -71.5t18.5 -69.5t33.5 -80 q-82 -2 -159 -9t-143 15zM94 1093q0 66 27.5 109t81.5 43q35 0 66.5 -25.5t59 -55.5t50 -53.5t41 -19.5t32 46t21.5 145l135 -156q-16 -25 -36.5 -50.5t-42 -48t-46 -36.5t-49.5 -14q-39 0 -67.5 25.5t-55.5 55t-54.5 55t-64.5 25.5q-49 0 -65.5 -36t-12.5 -95q-10 8 -15 39 t-5 47z" />
<glyph unicode="&#xf2;" horiz-adv-x="569" d="M25 408q0 88 1 179t26.5 165.5t85.5 122t179 47.5q90 0 138.5 -47.5t70 -117t24.5 -149.5t3 -143q0 -80 -5 -163t-32 -150.5t-83 -110.5t-159 -43q-86 0 -136 39t-75.5 99.5t-31.5 133t-6 138.5zM70 1198q0 4 17.5 25.5t40 44t42 39t19.5 12.5q4 -33 52 -83t107 -99 q68 -58 156 -121q-53 -6 -123.5 4t-137.5 33.5t-116 59.5t-57 85zM180 453q0 -27 2 -69t12.5 -82t32 -68.5t60.5 -28.5t61.5 24.5t32.5 59.5t13 72.5t3 66.5t-1 77t-10 95t-32.5 82t-66.5 35q-45 0 -66.5 -30t-31 -72t-9.5 -86.5v-75.5z" />
<glyph unicode="&#xf3;" horiz-adv-x="569" d="M25 408q0 88 1 179t26.5 165.5t85.5 122t179 47.5q90 0 138.5 -47.5t70 -117t24.5 -149.5t3 -143q0 -80 -5 -163t-32 -150.5t-83 -110.5t-159 -43q-86 0 -136 39t-75.5 99.5t-31.5 133t-6 138.5zM68 1016q86 63 153 121q59 49 108.5 99t53.5 83q0 4 19.5 -12.5t42 -39 t40 -44t17.5 -25.5q-8 -49 -57.5 -85t-116 -59.5t-138 -33.5t-122.5 -4zM180 453q0 -27 2 -69t12.5 -82t32 -68.5t60.5 -28.5t61.5 24.5t32.5 59.5t13 72.5t3 66.5t-1 77t-10 95t-32.5 82t-66.5 35q-45 0 -66.5 -30t-31 -72t-9.5 -86.5v-75.5z" />
<glyph unicode="&#xf4;" horiz-adv-x="569" d="M25 408q0 88 1 179t26.5 165.5t85.5 122t179 47.5q90 0 138.5 -47.5t70 -117t24.5 -149.5t3 -143q0 -80 -5 -163t-32 -150.5t-83 -110.5t-159 -43q-86 0 -136 39t-75.5 99.5t-31.5 133t-6 138.5zM45 1010l260 258l264 -258l-272 66zM180 453q0 -27 2 -69t12.5 -82 t32 -68.5t60.5 -28.5t61.5 24.5t32.5 59.5t13 72.5t3 66.5t-1 77t-10 95t-32.5 82t-66.5 35q-45 0 -66.5 -30t-31 -72t-9.5 -86.5v-75.5z" />
<glyph unicode="&#xf5;" horiz-adv-x="569" d="M25 408q0 88 1 179t26.5 165.5t85.5 122t179 47.5q90 0 138.5 -47.5t70 -117t24.5 -149.5t3 -143q0 -80 -5 -163t-32 -150.5t-83 -110.5t-159 -43q-86 0 -136 39t-75.5 99.5t-31.5 133t-6 138.5zM63 1169q0 66 27.5 109t81.5 43q35 0 66.5 -25.5t59 -55.5t50 -53.5 t41 -19.5t32 46t21.5 145l135 -156q-16 -25 -36.5 -50.5t-42 -48t-46 -36.5t-49.5 -14q-39 0 -67.5 25.5t-55.5 55t-54.5 55t-64.5 25.5q-49 0 -65.5 -36t-12.5 -95q-10 8 -15 39t-5 47zM180 453q0 -27 2 -69t12.5 -82t32 -68.5t60.5 -28.5t61.5 24.5t32.5 59.5t13 72.5 t3 66.5t-1 77t-10 95t-32.5 82t-66.5 35q-45 0 -66.5 -30t-31 -72t-9.5 -86.5v-75.5z" />
<glyph unicode="&#xf6;" horiz-adv-x="569" d="M25 408q0 88 1 179t26.5 165.5t85.5 122t179 47.5q90 0 138.5 -47.5t70 -117t24.5 -149.5t3 -143q0 -80 -5 -163t-32 -150.5t-83 -110.5t-159 -43q-86 0 -136 39t-75.5 99.5t-31.5 133t-6 138.5zM74 1176q0 41 27.5 71.5t68.5 30.5q43 0 70.5 -28.5t27.5 -69.5 q0 -47 -28.5 -76t-75.5 -29q-39 0 -64.5 32t-25.5 69zM180 453q0 -27 2 -69t12.5 -82t32 -68.5t60.5 -28.5t61.5 24.5t32.5 59.5t13 72.5t3 66.5t-1 77t-10 95t-32.5 82t-66.5 35q-45 0 -66.5 -30t-31 -72t-9.5 -86.5v-75.5zM301 1176q0 41 27.5 71.5t68.5 30.5 q43 0 71 -28.5t28 -69.5q0 -47 -29 -76t-76 -29q-39 0 -64.5 32t-25.5 69z" />
<glyph unicode="&#xf7;" horiz-adv-x="874" d="M20 653q0 35 1.5 72t1.5 72l75 -54q45 -4 89 -5t89 -1q117 0 233 2t232 2q33 0 58.5 16.5t54.5 30.5v-282q-31 14 -60.5 32.5t-64.5 18.5q-33 0 -91 1t-130 1t-148.5 -2t-145.5 -7t-120 -14.5t-71 -23.5q-2 35 -2.5 70.5t-0.5 70.5zM317 340q0 53 32 96t87 43 q47 0 79 -29.5t32 -76.5q0 -51 -35 -92t-88 -41q-41 0 -74 28.5t-33 71.5zM332 901q0 53 32 96t87 43q47 0 78.5 -29.5t31.5 -76.5q0 -51 -34.5 -92t-88.5 -41q-41 0 -73.5 28.5t-32.5 71.5z" />
<glyph unicode="&#xf8;" horiz-adv-x="569" d="M-35 10q29 84 80 183q-14 53 -17 107t-3 108q0 88 1 179t26.5 165.5t86 122t178.5 47.5q61 0 102.5 -24t67.5 -60l45 47q23 23 34.5 33t25.5 -7l-2 -10q-12 -8 -32.5 -33.5t-49.5 -66.5q35 -74 40 -167t5 -169q0 -80 -5 -163t-32 -150.5t-83 -110.5t-159 -43 q-59 0 -99 17.5t-69 50.5q-2 -7 -2 -13q0 -4 -17 -12t-39.5 -17.5t-45 -17.5t-31.5 -10zM180 426q41 66 85 129t91 123q-12 16 -29.5 27.5t-39.5 11.5q-45 0 -66.5 -30t-31 -72t-9.5 -86.5v-75.5v-27zM201 281q12 -33 31.5 -54.5t54.5 -21.5q39 0 61.5 24.5t32.5 59.5 t13 72.5t3 66.5t-1 80t-11 98q-49 -80 -96 -165t-88 -160z" />
<glyph unicode="&#xf9;" horiz-adv-x="673" d="M20 768q31 16 63.5 32.5t55.5 45.5q27 16 50.5 36.5t56.5 24.5q6 -25 6 -51q0 -125 -12.5 -249t-12.5 -249q0 -18 3 -44.5t11.5 -51t24 -43t39.5 -18.5q37 0 60.5 24.5t39 62.5t21.5 86t9 95t2 88t-1 66q0 35 -15 68.5t-34 62.5q57 31 105.5 71.5t101.5 75.5 q10 -16 14 -33.5t4 -36.5q0 -150 -12 -300t-12 -302q0 -59 21.5 -120.5t54.5 -110.5q-66 -2 -119 -1t-107 5q-16 16 -16 37.5v42.5l-2 18q-35 -41 -82 -77.5t-105 -36.5q-55 0 -88.5 29.5t-51 75.5t-22.5 105.5t-5 118t4 111.5t4 88q0 43 -1 73.5t-5.5 57.5t-15.5 55.5 t-32 67.5zM121 1198q0 4 17.5 25.5t40 44t42 39t19.5 12.5q4 -33 52 -83t107 -99q68 -58 156 -121q-53 -6 -123.5 4t-137.5 33.5t-116 59.5t-57 85z" />
<glyph unicode="&#xfa;" horiz-adv-x="673" d="M20 768q31 16 63.5 32.5t55.5 45.5q27 16 50.5 36.5t56.5 24.5q6 -25 6 -51q0 -125 -12.5 -249t-12.5 -249q0 -18 3 -44.5t11.5 -51t24 -43t39.5 -18.5q37 0 60.5 24.5t39 62.5t21.5 86t9 95t2 88t-1 66q0 35 -15 68.5t-34 62.5q57 31 105.5 71.5t101.5 75.5 q10 -16 14 -33.5t4 -36.5q0 -150 -12 -300t-12 -302q0 -59 21.5 -120.5t54.5 -110.5q-66 -2 -119 -1t-107 5q-16 16 -16 37.5v42.5l-2 18q-35 -41 -82 -77.5t-105 -36.5q-55 0 -88.5 29.5t-51 75.5t-22.5 105.5t-5 118t4 111.5t4 88q0 43 -1 73.5t-5.5 57.5t-15.5 55.5 t-32 67.5zM119 1016q86 63 153 121q59 49 108.5 99t53.5 83q0 4 19.5 -12.5t42 -39t40 -44t17.5 -25.5q-8 -49 -57.5 -85t-116 -59.5t-138 -33.5t-122.5 -4z" />
<glyph unicode="&#xfb;" horiz-adv-x="673" d="M20 768q31 16 63.5 32.5t55.5 45.5q27 16 50.5 36.5t56.5 24.5q6 -25 6 -51q0 -125 -12.5 -249t-12.5 -249q0 -18 3 -44.5t11.5 -51t24 -43t39.5 -18.5q37 0 60.5 24.5t39 62.5t21.5 86t9 95t2 88t-1 66q0 35 -15 68.5t-34 62.5q57 31 105.5 71.5t101.5 75.5 q10 -16 14 -33.5t4 -36.5q0 -150 -12 -300t-12 -302q0 -59 21.5 -120.5t54.5 -110.5q-66 -2 -119 -1t-107 5q-16 16 -16 37.5v42.5l-2 18q-35 -41 -82 -77.5t-105 -36.5q-55 0 -88.5 29.5t-51 75.5t-22.5 105.5t-5 118t4 111.5t4 88q0 43 -1 73.5t-5.5 57.5t-15.5 55.5 t-32 67.5zM119 1005l260 258l264 -258l-272 66z" />
<glyph unicode="&#xfc;" horiz-adv-x="673" d="M20 768q31 16 63.5 32.5t55.5 45.5q27 16 50.5 36.5t56.5 24.5q6 -25 6 -51q0 -125 -12.5 -249t-12.5 -249q0 -18 3 -44.5t11.5 -51t24 -43t39.5 -18.5q37 0 60.5 24.5t39 62.5t21.5 86t9 95t2 88t-1 66q0 35 -15 68.5t-34 62.5q57 31 105.5 71.5t101.5 75.5 q10 -16 14 -33.5t4 -36.5q0 -150 -12 -300t-12 -302q0 -59 21.5 -120.5t54.5 -110.5q-66 -2 -119 -1t-107 5q-16 16 -16 37.5v42.5l-2 18q-35 -41 -82 -77.5t-105 -36.5q-55 0 -88.5 29.5t-51 75.5t-22.5 105.5t-5 118t4 111.5t4 88q0 43 -1 73.5t-5.5 57.5t-15.5 55.5 t-32 67.5zM125 1176q0 41 27.5 71.5t68.5 30.5q43 0 70.5 -28.5t27.5 -69.5q0 -47 -28.5 -76t-75.5 -29q-39 0 -64.5 32t-25.5 69zM352 1176q0 41 27.5 71.5t68.5 30.5q43 0 71 -28.5t28 -69.5q0 -47 -29 -76t-76 -29q-39 0 -64.5 32t-25.5 69z" />
<glyph unicode="&#xfd;" horiz-adv-x="708" d="M18 885h314q-16 -33 -30.5 -67t-14.5 -70q0 -10 9 -45t24.5 -83.5t33 -102.5t33.5 -103t29.5 -88t19.5 -56l17 35q23 78 46 159t23 163q0 39 -33.5 77.5t-62.5 61.5q45 39 88 79t96 66q29 -41 51.5 -87t22.5 -97q0 -33 -19.5 -110.5t-49 -180t-67.5 -216.5t-75 -216 t-69.5 -181t-51.5 -110q-63 -104 -188 -104q-20 0 -37 8q2 53 10 104.5t8 104.5q90 10 140.5 53t50.5 141q0 18 -15.5 76t-39 133.5t-52 161.5t-55.5 163t-49.5 136.5t-32.5 81.5q-16 31 -36.5 57.5t-37.5 55.5zM138 1016q86 63 153 121q59 49 108.5 99t53.5 83 q0 4 19.5 -12.5t42 -39t40 -44t17.5 -25.5q-8 -49 -57.5 -85t-116 -59.5t-138 -33.5t-122.5 -4z" />
<glyph unicode="&#xfe;" d="M12 1163q29 16 57.5 29.5t55.5 32.5q33 23 61.5 52.5t65.5 45.5q4 -25 6 -49.5t2 -48.5q0 -94 -3 -179t-5 -169q2 -29 3 -59t1 -64q12 23 23.5 44t30 38.5t46 27.5t70.5 10q74 0 114 -41.5t58 -102t21.5 -129.5t3.5 -120q0 -37 -1 -89t-6.5 -110.5t-16.5 -115.5 t-34.5 -103.5t-59.5 -75t-89 -28.5q-102 0 -172 160v-35t-1 -45.5t-1 -44v-33.5q0 -51 3 -77.5t12 -46t22.5 -41t35.5 -60.5q-16 -10 -47.5 -31.5t-67.5 -44t-69 -43t-47 -29.5l-2 205q2 236 6 419t6 322.5t0 241t-10 175t-25.5 123.5t-46.5 89zM248 397q0 -25 3 -67.5 t14 -83.5t34 -71t61 -30q43 0 64.5 44t30 102.5t7.5 116t-1 86.5q0 25 -2 57.5t-11.5 62t-27.5 50t-51 20.5q-47 0 -72 -33t-36 -79t-12 -94t-1 -81z" />
<glyph unicode="&#xff;" horiz-adv-x="708" d="M18 885h314q-16 -33 -30.5 -67t-14.5 -70q0 -10 9 -45t24.5 -83.5t33 -102.5t33.5 -103t29.5 -88t19.5 -56l17 35q23 78 46 159t23 163q0 39 -33.5 77.5t-62.5 61.5q45 39 88 79t96 66q29 -41 51.5 -87t22.5 -97q0 -33 -19.5 -110.5t-49 -180t-67.5 -216.5t-75 -216 t-69.5 -181t-51.5 -110q-63 -104 -188 -104q-20 0 -37 8q2 53 10 104.5t8 104.5q90 10 140.5 53t50.5 141q0 18 -15.5 76t-39 133.5t-52 161.5t-55.5 163t-49.5 136.5t-32.5 81.5q-16 31 -36.5 57.5t-37.5 55.5zM197 1113q0 41 27.5 71.5t68.5 30.5q43 0 70.5 -28.5 t27.5 -69.5q0 -47 -28.5 -76t-75.5 -29q-39 0 -64.5 32t-25.5 69zM424 1113q0 41 27.5 71.5t68.5 30.5q43 0 71 -28.5t28 -69.5q0 -47 -29 -76t-76 -29q-39 0 -64.5 32t-25.5 69z" />
<glyph unicode="&#x152;" horiz-adv-x="1425" d="M20 590q0 82 18.5 168t59.5 156.5t107.5 117.5t163.5 53q-63 -53 -100.5 -99t-55.5 -96t-22.5 -110.5t-4.5 -140.5q0 -63 10.5 -135t40 -132.5t80 -100.5t129.5 -40q82 0 130.5 49.5t73 121t31.5 152.5t7 142q0 86 -12 170t-48 150.5t-100.5 106.5t-167.5 40 q-43 0 -79.5 -13t-72.5 -31.5t-72 -36t-75 -23.5q39 82 52.5 148.5t38 111.5t79 69.5t170.5 24.5q109 0 193 -39l-23 74q104 -16 217 -42t218 -26q39 0 77.5 9.5t73.5 21.5t61.5 21.5t43.5 9.5q18 -66 39.5 -129.5t52.5 -122.5q-80 -29 -162 -29q-68 0 -124 18.5t-99 40 t-72 40t-41 18.5q-4 0 -8 -2t-8 -2q16 -57 23 -119.5t9 -126t0 -127t-4 -121.5q49 66 100.5 104t110.5 38q12 0 37 -8.5t48.5 -20.5t41 -27.5t17.5 -29.5q0 -16 -10.5 -34t-20.5 -30q-29 -39 -45.5 -79t-38.5 -81q-8 20 -16.5 41t-19.5 38.5t-28.5 27.5t-44.5 10 q-33 0 -62.5 -19.5t-45.5 -47.5q-12 -27 -21.5 -98.5t-13.5 -153.5t-6 -159t-2 -112q57 20 102 51t93.5 57.5t107.5 46t145 19.5q53 0 97 -14q-10 -31 -24.5 -59.5t-25.5 -59.5q-16 -45 -24 -96t-19 -98q-55 31 -109 43t-108 12q-66 0 -134 -9t-138 -21.5t-138.5 -26 t-131.5 -21.5v2q-53 -16 -109 -16q-133 0 -213 61.5t-125 156.5t-59.5 207.5t-14.5 215.5z" />
<glyph unicode="&#x153;" horiz-adv-x="948" d="M25 408q0 88 1 179t26.5 165.5t86 122t178.5 47.5q59 0 100.5 -22.5t67.5 -59.5q31 35 76 56.5t111 21.5t112.5 -22t76.5 -60.5t44.5 -90t14.5 -110.5q0 -53 -11.5 -100.5t-38 -82t-67.5 -56t-98 -21.5q-45 0 -76 15.5t-70 33.5l-6 -29q0 -10 -1 -19t-1 -20 q4 -61 49 -110t111 -49q43 0 61.5 13t24.5 33.5t8 46t10 50.5q47 -16 76 -53t29 -88q0 -49 -23 -87t-57.5 -65t-78.5 -40t-89 -13q-68 0 -114 25.5t-77 68.5q-31 -41 -81 -65.5t-126 -24.5q-86 0 -136 39t-75.5 99.5t-31.5 133t-6 138.5zM180 453q0 -27 2 -69t12.5 -82 t32 -68.5t60.5 -28.5t61.5 24.5t32.5 59.5t13 72.5t3 66.5t-1 77t-10 95t-32.5 82t-66.5 35q-45 0 -66.5 -30t-31 -72t-9.5 -86.5v-75.5zM553 606q0 -51 36 -86t87 -35q45 0 72.5 37t27.5 78q0 51 -31.5 85t-85.5 34q-41 0 -73.5 -37t-32.5 -76z" />
<glyph unicode="&#x178;" horiz-adv-x="1044" d="M20 1421q104 6 207 7.5t207 1.5q-18 -41 -31.5 -83t-13.5 -85q0 -37 21.5 -102.5t51.5 -137.5t60.5 -137.5t46.5 -102.5q72 168 94.5 329t26.5 319q31 -4 75 -19.5t92 -34t92 -38t75 -31.5q-61 -51 -128 -158t-122 -230.5t-91 -243.5t-36 -200q0 -90 5 -145.5 t16.5 -102.5t31 -97t48.5 -130q-96 0 -191.5 3t-191.5 -3q16 55 37.5 103.5t27.5 107.5q6 72 11 144.5t5 144.5q0 33 -19 95t-49 140t-68 163t-74.5 162t-69.5 137t-53 91q-23 35 -48 65.5t-45 67.5zM311 1586q0 41 27.5 71.5t68.5 30.5q43 0 70.5 -28.5t27.5 -69.5 q0 -47 -28.5 -76t-75.5 -29q-39 0 -64.5 32t-25.5 69zM538 1586q0 41 27.5 71.5t68.5 30.5q43 0 71 -28.5t28 -69.5q0 -47 -29 -76t-76 -29q-39 0 -64.5 32t-25.5 69z" />
<glyph unicode="&#x2c6;" horiz-adv-x="565" d="M43 1071l260 258l264 -258l-272 66z" />
<glyph unicode="&#x2dc;" horiz-adv-x="565" d="M43 1169q0 66 27.5 109t81.5 43q35 0 66.5 -25.5t59 -55.5t50 -53.5t41 -19.5t32 46t21.5 145l135 -156q-16 -25 -36.5 -50.5t-42 -48t-46 -36.5t-49.5 -14q-39 0 -67.5 25.5t-55.5 55t-54.5 55t-64.5 25.5q-49 0 -65.5 -36t-12.5 -95q-10 8 -15 39t-5 47z" />
<glyph unicode="&#x2000;" horiz-adv-x="909" />
<glyph unicode="&#x2001;" horiz-adv-x="1819" />
<glyph unicode="&#x2002;" horiz-adv-x="909" />
<glyph unicode="&#x2003;" horiz-adv-x="1819" />
<glyph unicode="&#x2004;" horiz-adv-x="606" />
<glyph unicode="&#x2005;" horiz-adv-x="454" />
<glyph unicode="&#x2006;" horiz-adv-x="303" />
<glyph unicode="&#x2007;" horiz-adv-x="303" />
<glyph unicode="&#x2008;" horiz-adv-x="227" />
<glyph unicode="&#x2009;" horiz-adv-x="363" />
<glyph unicode="&#x200a;" horiz-adv-x="101" />
<glyph unicode="&#x2010;" horiz-adv-x="673" d="M59 547q0 53 2 106.5t2 106.5q23 -12 44.5 -29.5t48.5 -23.5q51 -12 80.5 -15.5t55 -2.5t55.5 5t83 4q39 0 57.5 3.5t33 8.5t31.5 13t52 20l-4 -178l4 -121q-18 0 -39.5 19.5t-38.5 23.5q-37 10 -40 14.5t-1 5.5t-2 0t-41 -1q-59 0 -104 2t-88 -3t-87 -18.5t-100 -44.5 q-2 27 -3 52.5t-1 52.5z" />
<glyph unicode="&#x2011;" horiz-adv-x="673" d="M59 547q0 53 2 106.5t2 106.5q23 -12 44.5 -29.5t48.5 -23.5q51 -12 80.5 -15.5t55 -2.5t55.5 5t83 4q39 0 57.5 3.5t33 8.5t31.5 13t52 20l-4 -178l4 -121q-18 0 -39.5 19.5t-38.5 23.5q-37 10 -40 14.5t-1 5.5t-2 0t-41 -1q-59 0 -104 2t-88 -3t-87 -18.5t-100 -44.5 q-2 27 -3 52.5t-1 52.5z" />
<glyph unicode="&#x2012;" horiz-adv-x="673" d="M59 547q0 53 2 106.5t2 106.5q23 -12 44.5 -29.5t48.5 -23.5q51 -12 80.5 -15.5t55 -2.5t55.5 5t83 4q39 0 57.5 3.5t33 8.5t31.5 13t52 20l-4 -178l4 -121q-18 0 -39.5 19.5t-38.5 23.5q-37 10 -40 14.5t-1 5.5t-2 0t-41 -1q-59 0 -104 2t-88 -3t-87 -18.5t-100 -44.5 q-2 27 -3 52.5t-1 52.5z" />
<glyph unicode="&#x2013;" horiz-adv-x="874" d="M59 547q0 53 2 106.5t2 106.5q23 -12 44.5 -29.5t48.5 -23.5q51 -12 109.5 -15.5t116.5 -2.5t115.5 5t110.5 4q39 0 57.5 3.5t33 8.5t32 13t51.5 20l-4 -178l4 -121q-18 0 -39.5 19.5t-37.5 23.5q-37 10 -40 14.5t-1 5.5t-2.5 0t-40.5 -1q-59 0 -132 2t-150 -3 t-148.5 -18.5t-127.5 -44.5q-2 27 -3 52.5t-1 52.5z" />
<glyph unicode="&#x2014;" horiz-adv-x="1179" d="M59 547q0 53 2 106.5t2 106.5q23 -12 44.5 -29.5t48.5 -23.5q35 -8 95 -12.5t133 -5.5t151.5 0t152.5 3t134.5 4t95.5 2q39 0 57 3.5t32.5 8.5t32 13t52.5 20l-5 -178l5 -121q-18 0 -40 19.5t-38 23.5q-37 10 -40 14.5t-1 5.5t-2 0t-41 -1q-39 0 -107.5 1t-152.5 1 t-176.5 -3t-175 -10.5t-150.5 -19.5t-105 -33q-2 27 -3 52.5t-1 52.5z" />
<glyph unicode="&#x2018;" horiz-adv-x="434" d="M119.5 1122.5q19.5 57.5 59.5 115.5t88 108t85 77q-23 -92 -37 -172q-12 -68 -18 -132t8 -89q4 -8 -21.5 -13t-59.5 -6t-63.5 2t-35.5 13q-25 39 -5.5 96.5z" />
<glyph unicode="&#x2019;" horiz-adv-x="434" d="M111 1010q23 92 36 172q12 68 17.5 132t-6.5 89q-4 8 21.5 13t59 6t63.5 -3t36 -12q25 -41 5.5 -97.5t-59.5 -114.5t-88 -108t-85 -77z" />
<glyph unicode="&#x201a;" horiz-adv-x="434" d="M111 -266q23 92 36 172q12 68 17.5 132t-6.5 89q-4 8 21.5 13t59 6t63.5 -3t36 -12q25 -41 5.5 -97.5t-59.5 -114.5t-88 -108t-85 -77z" />
<glyph unicode="&#x201c;" horiz-adv-x="759" d="M105.5 1163.5q19.5 57.5 59.5 115.5t88 108t85 77q-23 -92 -37 -172q-12 -68 -18.5 -132t8.5 -89q4 -8 -21.5 -13t-59.5 -6t-63.5 2t-35.5 13q-25 39 -5.5 96.5zM392 1159.5q20 57.5 60 115.5t88 108t85 77q-23 -92 -37 -172q-12 -68 -18.5 -132t8.5 -89q4 -8 -22 -13 t-59.5 -6t-63.5 2t-36 13q-25 39 -5 96.5z" />
<glyph unicode="&#x201d;" horiz-adv-x="759" d="M96 1051q23 92 37 172q12 68 17.5 132t-7.5 89q-4 8 21.5 13t59.5 6t63.5 -3t36.5 -12q25 -41 5 -97.5t-60 -114.5t-88 -108t-85 -77zM383 1047q23 92 37 172q12 68 17 132t-7 89q-4 8 21.5 13t59.5 6t63.5 -3t35.5 -12q25 -41 5.5 -97.5t-59.5 -114.5t-88 -108t-85 -77z " />
<glyph unicode="&#x201e;" horiz-adv-x="774" d="M111 -266q23 92 36 172q12 68 17.5 132t-6.5 89q-4 8 21.5 13t59 6t63.5 -3t36 -12q25 -41 5.5 -97.5t-59.5 -114.5t-88 -108t-85 -77zM397 -270q23 92 37 172q12 68 17.5 132t-7.5 89q-4 8 22 13t59.5 6t63 -3t36.5 -12q25 -41 5 -97.5t-60 -114.5t-88 -108t-85 -77z " />
<glyph unicode="&#x2022;" horiz-adv-x="804" d="M184 383q0 49 18.5 92t51.5 76t76 51.5t92 18.5t92 -18.5t76 -51.5t51 -76t18 -92t-18 -92t-51 -76t-76 -51.5t-92 -18.5t-92 18.5t-76 51.5t-51.5 76t-18.5 92z" />
<glyph unicode="&#x2026;" horiz-adv-x="1339" d="M121 115q0 47 33.5 80.5t81.5 33.5q47 0 80.5 -33.5t33.5 -80.5t-33.5 -81t-80.5 -34t-81 34t-34 81zM567 115q0 47 34 80.5t81 33.5t81 -33.5t34 -80.5t-34 -81t-81 -34t-81 34t-34 81zM1014 115q0 47 33.5 80.5t80.5 33.5t81 -33.5t34 -80.5t-33.5 -81t-81.5 -34 q-47 0 -80.5 34t-33.5 81z" />
<glyph unicode="&#x202f;" horiz-adv-x="363" />
<glyph unicode="&#x2039;" horiz-adv-x="315" d="M35 446l256 388l-105 -392l105 -379z" />
<glyph unicode="&#x203a;" horiz-adv-x="315" d="M35 63l104 379l-104 392l256 -388z" />
<glyph unicode="&#x205f;" horiz-adv-x="454" />
<glyph unicode="&#x20ac;" horiz-adv-x="1046" d="M20 487v123h93q-2 20 -2 68q0 39 2 55h-93v123h101q68 535 469 535q172 0 280.5 -101.5t130.5 -285.5l-221 -29q-27 248 -190 248q-197 0 -232 -367h265v-123h-271l-2 -69q0 -39 2 -54h271v-123h-265q31 -344 228 -344q78 0 128 72t62 188l225 -28q-55 -399 -415 -400 q-399 0 -465 512h-101z" />
<glyph unicode="&#x2122;" horiz-adv-x="1173" d="M25 1432q98 0 193 -1t194 -1h65q-2 -23 -11 -41.5t-20 -38.5q-10 -29 -16 -59.5t-14 -59.5q-8 14 -16.5 30.5t-19.5 30t-25.5 22.5t-32.5 9q-14 0 -19.5 -11.5t-6.5 -26.5t1 -31.5t2 -24.5q0 -66 -4 -131.5t-4 -130.5q0 -66 6 -144t37 -135q-53 -4 -102.5 -5t-96.5 1 q35 78 43 148.5t8 154.5v95.5t7 95.5q4 23 6 47t2 49q0 20 -3 35.5t-30 15.5q-37 0 -50.5 -32.5t-23.5 -61.5q-20 23 -23 55.5t-14 56.5q-10 23 -21 44.5t-11 44.5zM412 737q16 27 34.5 50.5t28.5 52.5q10 23 20.5 43t16.5 43q27 86 45 176t18 180q0 49 -7 79t-36 71 q16 2 35 2h35q35 0 67.5 -1t67.5 -1q-10 -23 -18 -43.5t-8 -45.5q0 -14 8 -55t19.5 -87t23.5 -86t20 -52q8 14 21.5 53t27 83t22.5 84t9 56q0 31 -12 48.5t-21 44.5q55 4 111.5 2t110.5 -2q-12 -20 -21.5 -33t-13.5 -24t-6 -26.5t-2 -39.5q0 -41 6 -122t16 -168t24.5 -164 t30.5 -112q8 -16 17.5 -29.5t17.5 -29.5q-8 -4 -17 -4h-20h-83t-82 4q16 25 27 41t11 49l-43 449q-6 -14 -20 -59.5t-30.5 -96.5t-29 -94t-12.5 -53q0 -33 15.5 -61t31.5 -56q-29 -29 -53 -59.5t-37 -69.5h-14q-12 37 -38 65.5t-44 63.5q10 23 26.5 50.5t16.5 51.5 q0 8 -11.5 54.5t-25.5 100.5t-27.5 101t-17.5 58q-4 -12 -8 -54.5t-9 -98.5t-12.5 -120.5t-17.5 -121t-23.5 -98.5t-29.5 -52q-2 0 -9.5 4t-16.5 10t-18.5 11.5t-11.5 7.5q-20 8 -38.5 14t-36.5 16z" />
<glyph unicode="&#x25fc;" horiz-adv-x="880" d="M0 0v881h881v-881h-881z" />
</font>
</defs>
</svg>
